{
.appVersion = "3227";
.formatVersion = 3;
DisplayStrings = (
"/laMedial_waMedial_cham ꨆ ./laMedial_cham.narrow ꩖",
"꩞/doubleDanda_cham.dotless ꩖",
"/va_cham.calt ꩝"
);
axes = (
{
name = Weight;
tag = wght;
}
);
classes = (
{
code = "dda_cham na_cham na_cham.calt nga_cham nha_cham nhja_cham";
name = class1;
},
{
code = "bba_cham bba_cham.calt ma_cham ma_cham.calt va_cham va_cham.calt";
name = class2;
},
{
code = "laMedial_cham laMedial_cham.narrow waMedial_cham waMedial_cham.narrow uSign_cham ueSign_cham
";
name = markFilteringSet1;
},
{
code = "a_cham aaSign_cham aaSign_oeSign_cham aiSign_cham ai_cham auSign_cham auSign_mSignFinal_cham ba_cham bba_cham bha_cham chFinal_cham cha_cham chha_cham comma.cham da_cham danda_cham dda_cham dha_cham doubleDanda_cham e_cham eiSign_cham eight_cham five_cham four_cham gFinal_cham ga_cham gha_cham hSignFinal_cham ha_cham iSign_cham iSign_mSignFinal_cham i_cham iiSign_cham ja_cham jha_cham kFinal_cham ka_cham kha_cham lFinal_cham laMedial_cham laMedial_waMedial_cham la_cham mSignFinal_cham ma_cham mue_cham nFinal_cham na_cham ngFinal_cham ngSignFinal_cham nga_cham ngue_cham nha_cham nhja_cham nhue_cham nine_cham nue_cham oSign_cham o_cham oeSign_auSign_cham oeSign_cham oeSign_mSignFinal_cham oeSign_ngSignFinal_cham one_cham pFinal_cham pa_cham period.cham pha_cham ppa_cham rFinal_cham raMedial_cham ra_cham sa_cham seven_cham six_cham spiral_cham ssFinal_cham ssa_cham tFinal_cham ta_cham tha_cham three_cham tripleDanda_cham two_cham uSign_cham u_cham ueSign_cham va_cham waMedial_cham yFinal_cham yaMedial_cham ya_cham zero_cham";
name = class3;
},
{
code = "ba_cham bba_cham da_cham dda_cham ga_cham jha_cham la_cham ma_cham na_cham nue_cham ppa_cham ra_cham ssa_cham ta_cham va_cham";
name = class4;
},
{

glyphs = (
{
glyphname = .notdef;
layers = (
{
layerId = "0A718E2F-231D-484E-9433-16A5230D2CE8";
shapes = (
{
closed = 1;
nodes = (
(94,0,l),
(505,0,l),
(505,714,l),
(94,714,l)
);
},
{
closed = 1;
nodes = (
(145,51,l),
(145,663,l),
(454,663,l),
(454,51,l)
);
}
);
width = 600;
},
{
layerId = "9FF96064-8718-4A86-A5C8-73C592101F67";
shapes = (
{
closed = 1;
nodes = (
(94,0,l),
(505,0,l),
(505,714,l),
(94,714,l)
);
},
{
closed = 1;
nodes = (
(145,51,l),
(145,663,l),
(454,663,l),
(454,51,l)
);
}
);
width = 600;
},
{
layerId = "AB666A95-3AF9-4DE8-B258-097FFCFE8A59";
shapes = (
{
closed = 1;
nodes = (
(94,0,l),
(505,0,l),
(505,714,l),
(94,714,l)
);
},
{
closed = 1;
nodes = (
(145,51,l),
(145,663,l),
(454,663,l),
(454,51,l)
);
}
);
width = 600;
}
);
},
{
category = Letter;
glyphname = uni25CC;
layers = (
{
anchors = (
{
name = Anchor13;
pos = (297,653);
},
{
name = Anchor14;
pos = (574,441);
},
{
name = Anchor16;
pos = (348,63);
},
{
name = Anchor17;
pos = (348,63);
}
);
layerId = "0A718E2F-231D-484E-9433-16A5230D2CE8";
shapes = (
{
closed = 1;
nodes = (
(199,543,o),
(187,531,o),
(187,517,cs),
(187,503,o),
(199,491,o),
(213,491,cs),
(227,491,o),
(239,503,o),
(239,517,cs),
(239,531,o),
(227,543,o),
(213,543,cs)
);
},
{
closed = 1;
nodes = (
(367,543,o),
(355,531,o),
(355,517,cs),
(355,503,o),
(367,491,o),
(381,491,cs),
(395,491,o),
(407,503,o),
(407,517,cs),
(407,531,o),
(395,543,o),
(381,543,cs)
);
},
{
closed = 1;
nodes = (
(199,133,o),
(187,121,o),
(187,107,cs),
(187,93,o),
(199,81,o),
(213,81,cs),
(227,81,o),
(239,93,o),
(239,107,cs),
(239,121,o),
(227,133,o),
(213,133,cs)
);
},
{
closed = 1;
nodes = (
(367,133,o),
(355,121,o),
(355,107,cs),
(355,93,o),
(367,81,o),
(381,81,cs),
(395,81,o),
(407,93,o),
(407,107,cs),
(407,121,o),
(395,133,o),
(381,133,cs)
);
},
{
closed = 1;
nodes = (
(283,561,o),
(271,549,o),
(271,535,cs),
(271,521,o),
(283,509,o),
(297,509,cs),
(311,509,o),
(323,521,o),
(323,535,cs),
(323,549,o),
(311,561,o),
(297,561,cs)
);
},
{
closed = 1;
nodes = (
(283,115,o),
(271,103,o),
(271,89,cs),
(271,75,o),
(283,63,o),
(297,63,cs),
(311,63,o),
(323,75,o),
(323,89,cs),
(323,103,o),
(311,115,o),
(297,115,cs)
);
},
{
closed = 1;
nodes = (
(48,298,o),
(60,286,o),
(74,286,cs),
(88,286,o),
(100,298,o),
(100,312,cs),
(100,326,o),
(88,338,o),
(74,338,cs),
(60,338,o),
(48,326,o),
(48,312,cs)
);
},
{
closed = 1;
nodes = (
(494,298,o),
(506,286,o),
(520,286,cs),
(534,286,o),
(546,298,o),
(546,312,cs),
(546,326,o),
(534,338,o),
(520,338,cs),
(506,338,o),
(494,326,o),
(494,312,cs)
);
},
{
closed = 1;
nodes = (
(113,140,o),
(125,128,o),
(139,128,cs),
(153,128,o),
(165,140,o),
(165,154,cs),
(165,168,o),
(153,180,o),
(139,180,cs),
(125,180,o),
(113,168,o),
(113,154,cs)
);
},
{
closed = 1;
nodes = (
(113,456,o),
(125,444,o),
(139,444,cs),
(153,444,o),
(165,456,o),
(165,470,cs),
(165,484,o),
(153,496,o),
(139,496,cs),
(125,496,o),
(113,484,o),
(113,470,cs)
);
},
{
closed = 1;
nodes = (
(429,140,o),
(441,128,o),
(455,128,cs),
(469,128,o),
(481,140,o),
(481,154,cs),
(481,168,o),
(469,180,o),
(455,180,cs),
(441,180,o),
(429,168,o),
(429,154,cs)
);
},
{
closed = 1;
nodes = (
(429,456,o),
(441,444,o),
(455,444,cs),
(469,444,o),
(481,456,o),
(481,470,cs),
(481,484,o),
(469,496,o),
(455,496,cs),
(441,496,o),
(429,484,o),
(429,470,cs)
);
},
{
closed = 1;
nodes = (
(66,214,o),
(78,202,o),
(92,202,cs),
(106,202,o),
(118,214,o),
(118,228,cs),
(118,242,o),
(106,254,o),
(92,254,cs),
(78,254,o),
(66,242,o),
(66,228,cs)
);
},
{
closed = 1;
nodes = (
(66,382,o),
(78,370,o),
(92,370,cs),
(106,370,o),
(118,382,o),
(118,396,cs),
(118,410,o),
(106,422,o),
(92,422,cs),
(78,422,o),
(66,410,o),
(66,396,cs)
);
},
{
closed = 1;
nodes = (
(476,214,o),
(488,202,o),
(502,202,cs),
(516,202,o),
(528,214,o),
(528,228,cs),
(528,242,o),
(516,254,o),
(502,254,cs),
(488,254,o),
(476,242,o),
(476,228,cs)
);
},
{
closed = 1;
nodes = (
(476,382,o),
(488,370,o),
(502,370,cs),
(516,370,o),
(528,382,o),
(528,396,cs),
(528,410,o),
(516,422,o),
(502,422,cs),
(488,422,o),
(476,410,o),
(476,396,cs)
);
}
);
width = 594;
},
{
anchors = (
{
name = Anchor13;
pos = (297,594);
},
{
name = Anchor14;
pos = (574,418);
},
{
name = Anchor16;
pos = (326,39);
},
{
name = Anchor17;
pos = (326,39);
}
);
layerId = "9FF96064-8718-4A86-A5C8-73C592101F67";
shapes = (
{
closed = 1;
nodes = (
(199,519,o),
(187,507,o),
(187,493,cs),
(187,479,o),
(199,467,o),
(213,467,cs),
(227,467,o),
(239,479,o),
(239,493,cs),
(239,507,o),
(227,519,o),
(213,519,cs)
);
},
{
closed = 1;
nodes = (
(367,519,o),
(355,507,o),
(355,493,cs),
(355,479,o),
(367,467,o),
(381,467,cs),
(395,467,o),
(407,479,o),
(407,493,cs),
(407,507,o),
(395,519,o),
(381,519,cs)
);
},
{
closed = 1;
nodes = (
(199,109,o),
(187,97,o),
(187,83,cs),
(187,69,o),
(199,57,o),
(213,57,cs),
(227,57,o),
(239,69,o),
(239,83,cs),
(239,97,o),
(227,109,o),
(213,109,cs)
);
},
{
closed = 1;
nodes = (
(367,109,o),
(355,97,o),
(355,83,cs),
(355,69,o),
(367,57,o),
(381,57,cs),
(395,57,o),
(407,69,o),
(407,83,cs),
(407,97,o),
(395,109,o),
(381,109,cs)
);
},
{
closed = 1;
nodes = (
(283,537,o),
(271,525,o),
(271,511,cs),
(271,497,o),
(283,485,o),
(297,485,cs),
(311,485,o),
(323,497,o),
(323,511,cs),
(323,525,o),
(311,537,o),
(297,537,cs)
);
},
{
closed = 1;
nodes = (
(283,91,o),
(271,79,o),
(271,65,cs),
(271,51,o),
(283,39,o),
(297,39,cs),
(311,39,o),
(323,51,o),
(323,65,cs),
(323,79,o),
(311,91,o),
(297,91,cs)
);
},
{
closed = 1;
nodes = (
(48,274,o),
(60,262,o),
(74,262,cs),
(88,262,o),
(100,274,o),
(100,288,cs),
(100,302,o),
(88,314,o),
(74,314,cs),
(60,314,o),
(48,302,o),
(48,288,cs)
);
},
{
closed = 1;
nodes = (
(494,274,o),
(506,262,o),
(520,262,cs),
(534,262,o),
(546,274,o),
(546,288,cs),
(546,302,o),
(534,314,o),
(520,314,cs),
(506,314,o),
(494,302,o),
(494,288,cs)
);
},
{
closed = 1;
nodes = (
(113,116,o),
(125,104,o),
(139,104,cs),
(153,104,o),
(165,116,o),
(165,130,cs),
(165,144,o),
(153,156,o),
(139,156,cs),
(125,156,o),
(113,144,o),
(113,130,cs)
);
},
{
closed = 1;
nodes = (
(113,432,o),
(125,420,o),
(139,420,cs),
(153,420,o),
(165,432,o),
(165,446,cs),
(165,460,o),
(153,472,o),
(139,472,cs),
(125,472,o),
(113,460,o),
(113,446,cs)
);
},
{
closed = 1;
nodes = (
(429,116,o),
(441,104,o),
(455,104,cs),
(469,104,o),
(481,116,o),
(481,130,cs),
(481,144,o),
(469,156,o),
(455,156,cs),
(441,156,o),
(429,144,o),
(429,130,cs)
);
},
{
closed = 1;
nodes = (
(429,432,o),
(441,420,o),
(455,420,cs),
(469,420,o),
(481,432,o),
(481,446,cs),
(481,460,o),
(469,472,o),
(455,472,cs),
(441,472,o),
(429,460,o),
(429,446,cs)
);
},
{
closed = 1;
nodes = (
(66,190,o),
(78,178,o),
(92,178,cs),
(106,178,o),
(118,190,o),
(118,204,cs),
(118,218,o),
(106,230,o),
(92,230,cs),
(78,230,o),
(66,218,o),
(66,204,cs)
);
},
{
closed = 1;
nodes = (
(66,358,o),
(78,346,o),
(92,346,cs),
(106,346,o),
(118,358,o),
(118,372,cs),
(118,386,o),
(106,398,o),
(92,398,cs),
(78,398,o),
(66,386,o),
(66,372,cs)
);
},
{
closed = 1;
nodes = (
(476,190,o),
(488,178,o),
(502,178,cs),
(516,178,o),
(528,190,o),
(528,204,cs),
(528,218,o),
(516,230,o),
(502,230,cs),
(488,230,o),
(476,218,o),
(476,204,cs)
);
},
{
closed = 1;
nodes = (
(476,358,o),
(488,346,o),
(502,346,cs),
(516,346,o),
(528,358,o),
(528,372,cs),
(528,386,o),
(516,398,o),
(502,398,cs),
(488,398,o),
(476,386,o),
(476,372,cs)
);
}
);
width = 594;
},
{
anchors = (
{
name = Anchor13;
pos = (297,556);
},
{
name = Anchor14;
pos = (574,403);
},
{
name = Anchor16;
pos = (317,24);
},
{
name = Anchor17;
pos = (317,24);
}
);
layerId = "AB666A95-3AF9-4DE8-B258-097FFCFE8A59";
shapes = (
{
closed = 1;
nodes = (
(199,504,o),
(187,492,o),
(187,478,cs),
(187,464,o),
(199,452,o),
(213,452,cs),
(227,452,o),
(239,464,o),
(239,478,cs),
(239,492,o),
(227,504,o),
(213,504,cs)
);
},
{
closed = 1;
nodes = (
(367,504,o),
(355,492,o),
(355,478,cs),
(355,464,o),
(367,452,o),
(381,452,cs),
(395,452,o),
(407,464,o),
(407,478,cs),
(407,492,o),
(395,504,o),
(381,504,cs)
);
},
{
closed = 1;
nodes = (
(199,94,o),
(187,82,o),
(187,68,cs),
(187,54,o),
(199,42,o),
(213,42,cs),
(227,42,o),
(239,54,o),
(239,68,cs),
(239,82,o),
(227,94,o),
(213,94,cs)
);
},
{
closed = 1;
nodes = (
(367,94,o),
(355,82,o),
(355,68,cs),
(355,54,o),
(367,42,o),
(381,42,cs),
(395,42,o),
(407,54,o),
(407,68,cs),
(407,82,o),
(395,94,o),
(381,94,cs)
);
},
{
closed = 1;
nodes = (
(283,522,o),
(271,510,o),
(271,496,cs),
(271,482,o),
(283,470,o),
(297,470,cs),
(311,470,o),
(323,482,o),
(323,496,cs),
(323,510,o),
(311,522,o),
(297,522,cs)
);
},
{
closed = 1;
nodes = (
(283,76,o),
(271,64,o),
(271,50,cs),
(271,36,o),
(283,24,o),
(297,24,cs),
(311,24,o),
(323,36,o),
(323,50,cs),
(323,64,o),
(311,76,o),
(297,76,cs)
);
},
{
closed = 1;
nodes = (
(48,259,o),
(60,247,o),
(74,247,cs),
(88,247,o),
(100,259,o),
(100,273,cs),
(100,287,o),
(88,299,o),
(74,299,cs),
(60,299,o),
(48,287,o),
(48,273,cs)
);
},
{
closed = 1;
nodes = (
(494,259,o),
(506,247,o),
(520,247,cs),
(534,247,o),
(546,259,o),
(546,273,cs),
(546,287,o),
(534,299,o),
(520,299,cs),
(506,299,o),
(494,287,o),
(494,273,cs)
);
},
{
closed = 1;
nodes = (
(113,101,o),
(125,89,o),
(139,89,cs),
(153,89,o),
(165,101,o),
(165,115,cs),
(165,129,o),
(153,141,o),
(139,141,cs),
(125,141,o),
(113,129,o),
(113,115,cs)
);
},
{
closed = 1;
nodes = (
(113,417,o),
(125,405,o),
(139,405,cs),
(153,405,o),
(165,417,o),
(165,431,cs),
(165,445,o),
(153,457,o),
(139,457,cs),
(125,457,o),
(113,445,o),
(113,431,cs)
);
},
{
closed = 1;
nodes = (
(429,101,o),
(441,89,o),
(455,89,cs),
(469,89,o),
(481,101,o),
(481,115,cs),
(481,129,o),
(469,141,o),
(455,141,cs),
(441,141,o),
(429,129,o),
(429,115,cs)
);
},
{
closed = 1;
nodes = (
(429,417,o),
(441,405,o),
(455,405,cs),
(469,405,o),
(481,417,o),
(481,431,cs),
(481,445,o),
(469,457,o),
(455,457,cs),
(441,457,o),
(429,445,o),
(429,431,cs)
);
},
{
closed = 1;
nodes = (
(66,175,o),
(78,163,o),
(92,163,cs),
(106,163,o),
(118,175,o),
(118,189,cs),
(118,203,o),
(106,215,o),
(92,215,cs),
(78,215,o),
(66,203,o),
(66,189,cs)
);
},
{
closed = 1;
nodes = (
(66,343,o),
(78,331,o),
(92,331,cs),
(106,331,o),
(118,343,o),
(118,357,cs),
(118,371,o),
(106,383,o),
(92,383,cs),
(78,383,o),
(66,371,o),
(66,357,cs)
);
},
{
closed = 1;
nodes = (
(476,175,o),
(488,163,o),
(502,163,cs),
(516,163,o),
(528,175,o),
(528,189,cs),
(528,203,o),
(516,215,o),
(502,215,cs),
(488,215,o),
(476,203,o),
(476,189,cs)
);
},
{
closed = 1;
nodes = (
(476,343,o),
(488,331,o),
(502,331,cs),
(516,331,o),
(528,343,o),
(528,357,cs),
(528,371,o),
(516,383,o),
(502,383,cs),
(488,383,o),
(476,371,o),
(476,357,cs)
);
}
);
width = 594;
}
);
unicode = 9676;
},
{
glyphname = uni200C;
layers = (
{
layerId = "0A718E2F-231D-484E-9433-16A5230D2CE8";
shapes = (
{
closed = 1;
nodes = (
(-21,-133,l),
(21,-133,l),
(21,628,l),
(-21,628,l)
);
}
);
width = 0;
},
{
layerId = "9FF96064-8718-4A86-A5C8-73C592101F67";
shapes = (
{
closed = 1;
nodes = (
(-21,-133,l),
(21,-133,l),
(21,628,l),
(-21,628,l)
);
}
);
width = 0;
},
{
layerId = "AB666A95-3AF9-4DE8-B258-097FFCFE8A59";
shapes = (
{
closed = 1;
nodes = (
(-21,-133,l),
(21,-133,l),
(21,628,l),
(-21,628,l)
);
}
);
width = 0;
}
);
unicode = 8204;
},
{
glyphname = uni200D;
layers = (
{
layerId = "0A718E2F-231D-484E-9433-16A5230D2CE8";
shapes = (
{
closed = 1;
nodes = (
(-21,-133,l),
(21,-133,l),
(21,535,l),
(83,473,l),
(109,500,l),
(27,582,l),
(109,663,l),
(83,690,l),
(0,607,l),
(-83,690,l),
(-109,663,l),
(-27,582,l),
(-109,500,l),
(-83,473,l),
(-21,535,l)
);
}
);
width = 0;
},
{
layerId = "9FF96064-8718-4A86-A5C8-73C592101F67";
shapes = (
{
closed = 1;
nodes = (
(-21,-133,l),
(21,-133,l),
(21,535,l),
(83,473,l),
(109,500,l),
(27,582,l),
(109,663,l),
(83,690,l),
(0,607,l),
(-83,690,l),
(-109,663,l),
(-27,582,l),
(-109,500,l),
(-83,473,l),
(-21,535,l)
);
}
);
width = 0;
},
{
layerId = "AB666A95-3AF9-4DE8-B258-097FFCFE8A59";
shapes = (
{
closed = 1;
nodes = (
(-21,-133,l),
(21,-133,l),
(21,535,l),
(83,473,l),
(109,500,l),
(27,582,l),
(109,663,l),
(83,690,l),
(0,607,l),
(-83,690,l),
(-109,663,l),
(-27,582,l),
(-109,500,l),
(-83,473,l),
(-21,535,l)
);
}
);
width = 0;
}
);
unicode = 8205;
},
{
category = Letter;
glyphname = zero_cham;
layers = (
{
anchors = (
{
name = Anchor13;
pos = (322,594);
},
{
name = Anchor14;
pos = (562,418);
},
{
name = Anchor16;
pos = (317,-18);
},
{
name = Anchor17;
pos = (317,-18);
}
);
layerId = "9FF96064-8718-4A86-A5C8-73C592101F67";
shapes = (
{
closed = 1;
nodes = (
(580,470,o),
(490,594,o),
(322,594,cs),
(155,594,o),
(55,480,o),
(55,288,cs),
(55,104,o),
(153,-18,o),
(317,-18,cs),
(490,-18,o),
(580,105,o),
(580,288,cs)
);
},
{
closed = 1;
nodes = (
(143,439,o),
(203,525,o),
(321,525,cs),
(445,525,o),
(492,428,o),
(492,288,cs),
(492,145,o),
(441,51,o),
(318,51,cs),
(198,51,o),
(143,144,o),
(143,288,cs)
);
}
);
width = 634;
},
{
anchors = (
{
name = Anchor13;
pos = (360,653);
},
{
name = Anchor14;
pos = (656,441);
},
{
name = Anchor16;
pos = (357,-29);
},
{
name = Anchor17;
pos = (357,-29);
}
);
layerId = "0A718E2F-231D-484E-9433-16A5230D2CE8";
shapes = (
{
closed = 1;
nodes = (
(674,531,o),
(542,653,o),
(360,653,cs),
(162,653,o),
(42,531,o),
(42,313,cs),
(42,93,o),
(174,-29,o),
(357,-29,cs),
(554,-29,o),
(674,93,o),
(674,313,cs)
);
},
{
closed = 1;
nodes = (
(230,443,o),
(267,511,o),
(358,511,cs),
(452,511,o),
(486,443,o),
(486,313,cs),
(486,183,o),
(452,113,o),
(359,113,cs),
(266,113,o),
(230,183,o),
(230,313,cs)
);
}
);
width = 717;
},
{
anchors = (
{
name = Anchor13;
pos = (292,556);
},
{
name = Anchor14;
pos = (497,403);
},
{
name = Anchor16;
pos = (286,-10);
},
{
name = Anchor17;
pos = (286,-10);
}
);
layerId = "AB666A95-3AF9-4DE8-B258-097FFCFE8A59";
shapes = (
{
closed = 1;
nodes = (
(515,431,o),
(451,556,o),
(292,556,cs),
(145,556,o),
(59,447,o),
(59,273,cs),
(59,111,o),
(134,-10,o),
(286,-10,cs),
(443,-10,o),
(515,113,o),
(515,273,cs)
);
},
{
closed = 1;
nodes = (
(83,437,o),
(158,534,o),
(292,534,cs),
(435,534,o),
(491,418,o),
(491,273,cs),
(491,121,o),
(428,12,o),
(286,12,cs),
(149,12,o),
(83,119,o),
(83,273,cs)
);
}
);
width = 575;
}
);
note = uniAA50;
production = uniAA50;
script = cham;
subCategory = Spacing;
unicode = 43600;
},
{
category = Letter;
glyphname = two_cham;
layers = (
{
anchors = (
{
name = Anchor13;
pos = (731,894);
},
{
name = Anchor14;
pos = (876,718);
},
{
name = Anchor16;
pos = (483,-17);
},
{
name = Anchor17;
pos = (483,-17);
}
);
layerId = "9FF96064-8718-4A86-A5C8-73C592101F67";
shapes = (
{
closed = 1;
nodes = (
(876,419,ls),
(876,529,o),
(819,594,o),
(731,594,cs),
(688,594,o),
(661,580,o),
(633,557,cs),
(607,535,o),
(593,520,o),
(568,520,cs),
(544,520,o),
(529,536,o),
(503,557,cs),
(474,580,o),
(446,594,o),
(407,594,cs),
(315,594,o),
(263,519,o),
(263,409,cs),
(263,265,o),
(335,189,o),
(442,189,cs),
(501,189,o),
(548,228,o),
(548,284,cs),
(548,339,o),
(506,374,o),
(449,374,cs),
(385,374,o),
(341,324,o),
(332,245,c),
(373,240,l),
(379,293,o),
(404,329,o),
(446,329,cs),
(475,329,o),
(497,313,o),
(497,282,cs),
(497,253,o),
(474,234,o),
(445,234,cs),
(384,234,o),
(345,278,o),
(345,392,cs),
(345,474,o),
(375,520,o),
(427,520,cs),
(456,520,o),
(473,503,o),
(497,483,cs),
(520,463,o),
(539,448,o),
(568,448,cs),
(597,448,o),
(615,461,o),
(639,483,cs),
(664,506,o),
(682,520,o),
(710,520,cs),
(762,520,o),
(791,483,o),
(791,411,cs),
(791,297,ls),
(791,136,o),
(686,54,o),
(484,54,cs),
(289,54,o),
(165,123,o),
(165,276,cs),
(165,641,ls),
(165,773,o),
(241,830,o),
(339,830,cs),
(440,830,o),
(507,765,o),
(612,765,cs),
(707,765,o),
(786,820,o),
(829,938,c),
(757,968,l),
(722,875,o),
(669,843,o),
(603,843,cs),
(513,843,o),
(446,908,o),
(330,908,cs),
(185,908,o),
(80,816,o),
(80,647,cs),
(80,273,ls),
(80,85,o),
(233,-17,o),
(483,-17,cs),
(736,-17,o),
(876,98,o),
(876,294,cs)
);
}
);
userData = {
RMXScaler = {
verticalShift = -124;
};
};
width = 956;
},
{
anchors = (
{
name = Anchor13;
pos = (815,953);
},
{
name = Anchor14;
pos = (986,741);
},
{
name = Anchor16;
pos = (533,-29);
},
{
name = Anchor17;
pos = (533,-29);
}
);
layerId = "0A718E2F-231D-484E-9433-16A5230D2CE8";
shapes = (
{
closed = 1;
nodes = (
(986,448,ls),
(986,573,o),
(917,653,o),
(815,653,cs),
(762,653,o),
(742,640,o),
(712,619,cs),
(684,600,o),
(670,588,o),
(643,588,cs),
(617,588,o),
(601,600,o),
(574,619,cs),
(543,641,o),
(521,653,o),
(474,653,cs),
(363,653,o),
(307,558,o),
(307,436,cs),
(307,274,o),
(399,189,o),
(522,189,cs),
(604,189,o),
(663,242,o),
(663,317,cs),
(663,394,o),
(607,442,o),
(528,442,cs),
(440,442,o),
(377,372,o),
(366,272,c),
(438,272,l),
(443,312,o),
(471,359,o),
(524,359,cs),
(546,359,o),
(569,348,o),
(569,312,cs),
(569,286,o),
(554,269,o),
(530,269,cs),
(501,269,o),
(479,291,o),
(479,393,cs),
(479,463,o),
(496,498,o),
(527,498,cs),
(541,498,o),
(555,490,o),
(574,477,cs),
(596,462,o),
(616,451,o),
(644,451,cs),
(671,451,o),
(690,461,o),
(712,477,cs),
(731,491,o),
(745,498,o),
(761,498,cs),
(794,498,o),
(807,476,o),
(807,428,cs),
(807,321,ls),
(807,184,o),
(724,122,o),
(535,122,cs),
(362,122,o),
(244,171,o),
(244,291,cs),
(244,673,ls),
(244,792,o),
(312,840,o),
(396,840,cs),
(492,840,o),
(554,778,o),
(673,778,cs),
(777,778,o),
(893,825,o),
(953,996,c),
(802,1060,l),
(759,956,o),
(707,931,o),
(652,931,cs),
(566,931,o),
(506,993,o),
(372,993,cs),
(194,993,o),
(65,884,o),
(65,677,cs),
(65,287,ls),
(65,90,o),
(244,-29,o),
(533,-29,cs),
(832,-29,o),
(986,103,o),
(986,317,cs)
);
}
);
userData = {
RMXScaler = {
verticalShift = -82;
};
};
width = 1051;
},
{
anchors = (
{
name = Anchor13;
pos = (678,856);
},
{
name = Anchor14;
pos = (805,703);
},
{
name = Anchor16;
pos = (462,-10);
},
{
name = Anchor17;
pos = (462,-10);
}
);
layerId = "AB666A95-3AF9-4DE8-B258-097FFCFE8A59";
shapes = (
{
closed = 1;
nodes = (
(805,401,ls),
(805,500,o),
(757,556,o),
(678,556,cs),
(634,556,o),
(610,538,o),
(581,512,cs),
(558,491,o),
(543,477,o),
(520,477,cs),
(497,477,o),
(481,491,o),
(459,512,cs),
(430,539,o),
(406,556,o),
(363,556,cs),
(280,556,o),
(230,491,o),
(230,393,cs),
(230,257,o),
(290,190,o),
(386,190,cs),
(430,190,o),
(469,219,o),
(469,264,cs),
(469,304,o),
(437,332,o),
(393,332,cs),
(345,332,o),
(313,293,o),
(305,228,c),
(326,220,l),
(333,281,o),
(356,311,o),
(392,311,cs),
(425,311,o),
(446,291,o),
(446,264,cs),
(446,232,o),
(418,212,o),
(386,212,cs),
(304,212,o),
(254,269,o),
(254,392,cs),
(254,479,o),
(295,534,o),
(364,534,cs),
(401,534,o),
(422,518,o),
(449,493,cs),
(473,471,o),
(489,455,o),
(520,455,cs),
(549,455,o),
(565,468,o),
(591,493,cs),
(620,521,o),
(643,534,o),
(677,534,cs),
(742,534,o),
(781,488,o),
(781,401,cs),
(781,288,ls),
(781,114,o),
(661,12,o),
(462,12,cs),
(242,12,o),
(114,99,o),
(114,257,cs),
(114,630,ls),
(114,767,o),
(181,832,o),
(292,832,cs),
(391,832,o),
(451,765,o),
(570,765,cs),
(644,765,o),
(710,817,o),
(741,901,c),
(719,909,l),
(691,832,o),
(634,787,o),
(570,787,cs),
(461,787,o),
(401,854,o),
(292,854,cs),
(167,854,o),
(90,779,o),
(90,630,cs),
(90,257,ls),
(90,88,o),
(227,-10,o),
(462,-10,cs),
(676,-10,o),
(805,103,o),
(805,288,cs)
);
}
);
userData = {
RMXScaler = {
verticalShift = -151;
};
};
width = 895;
}
);
metricLeft = "=|pFinal_cham";
metricRight = "=pFinal_cham";
note = uniAA52;
production = uniAA52;
script = cham;
subCategory = Spacing;
unicode = 43602;
userData = {
RMXScaler = {
source = "two-cham";
};
};
},
{
category = Letter;
glyphname = four_cham;
kernLeft = gFinal;
layers = (
{
anchors = (
{
name = Anchor13;
pos = (792,626);
},
{
name = Anchor14;
pos = (792,418);
},
{
name = Anchor16;
pos = (316,-17);
},
{
name = Anchor17;
pos = (316,-17);
}
);
layerId = "9FF96064-8718-4A86-A5C8-73C592101F67";
shapes = (
{
closed = 1;
nodes = (
(727,653,l),
(692,564,o),
(639,529,o),
(582,529,cs),
(482,529,o),
(422,594,o),
(312,594,cs),
(171,594,o),
(80,482,o),
(80,308,cs),
(80,107,o),
(175,-17,o),
(318,-17,cs),
(423,-17,o),
(488,47,o),
(488,141,cs),
(488,239,o),
(414,301,o),
(314,301,cs),
(237,301,o),
(174,265,o),
(130,203,c),
(170,151,l),
(200,209,o),
(249,239,o),
(309,239,cs),
(369,239,o),
(412,206,o),
(412,140,cs),
(412,80,o),
(378,45,o),
(321,45,cs),
(222,45,o),
(166,139,o),
(166,310,cs),
(166,445,o),
(227,522,o),
(325,522,cs),
(417,522,o),
(479,457,o),
(593,457,cs),
(672,457,o),
(751,507,o),
(792,626,c)
);
}
);
userData = {
RMXScaler = {
verticalShift = -124;
};
};
width = 841;
},
{
anchors = (
{
name = Anchor13;
pos = (879,664);
},
{
name = Anchor14;
pos = (879,441);
},
{
name = Anchor16;
pos = (355,-29);
},
{
name = Anchor17;
pos = (355,-29);
}
);
layerId = "0A718E2F-231D-484E-9433-16A5230D2CE8";
shapes = (
{
closed = 1;
nodes = (
(745,720,l),
(704,616,o),
(660,592,o),
(606,592,cs),
(522,592,o),
(456,653,o),
(340,653,cs),
(171,653,o),
(65,519,o),
(65,322,cs),
(65,97,o),
(182,-29,o),
(355,-29,cs),
(487,-29,o),
(563,48,o),
(563,154,cs),
(563,268,o),
(475,337,o),
(365,337,cs),
(280,337,o),
(211,295,o),
(164,223,c),
(235,134,l),
(259,195,o),
(301,225,o),
(354,225,cs),
(387,225,o),
(424,208,o),
(424,152,cs),
(424,112,o),
(398,85,o),
(356,85,cs),
(286,85,o),
(247,168,o),
(247,334,cs),
(247,446,o),
(295,502,o),
(376,502,cs),
(453,502,o),
(523,441,o),
(636,441,cs),
(724,441,o),
(823,497,o),
(879,664,c)
);
}
);
userData = {
RMXScaler = {
verticalShift = -82;
};
};
width = 911;
},
{
anchors = (
{
name = Anchor13;
pos = (737,602);
},
{
name = Anchor14;
pos = (737,403);
},
{
name = Anchor16;
pos = (291,-10);
},
{
name = Anchor17;
pos = (291,-10);
}
);
layerId = "AB666A95-3AF9-4DE8-B258-097FFCFE8A59";
shapes = (
{
closed = 1;
nodes = (
(715,611,l),
(684,531,o),
(626,489,o),
(567,489,cs),
(456,489,o),
(400,556,o),
(294,556,cs),
(170,556,o),
(90,457,o),
(90,294,cs),
(90,105,o),
(166,-10,o),
(291,-10,cs),
(376,-10,o),
(428,42,o),
(428,125,cs),
(428,215,o),
(368,272,o),
(272,272,cs),
(203,272,o),
(145,242,o),
(105,188,c),
(120,172,l),
(157,223,o),
(210,251,o),
(272,251,cs),
(354,251,o),
(404,203,o),
(404,125,cs),
(404,54,o),
(361,12,o),
(291,12,cs),
(181,12,o),
(114,117,o),
(114,294,cs),
(114,444,o),
(184,534,o),
(293,534,cs),
(394,534,o),
(451,467,o),
(566,467,cs),
(639,467,o),
(705,514,o),
(737,602,c)
);
}
);
userData = {
RMXScaler = {
verticalShift = -151;
};
};
width = 796;
}
);
metricLeft = "=gFinal_cham";
note = uniAA54;
production = uniAA54;
script = cham;
subCategory = Spacing;
unicode = 43604;
userData = {
RMXScaler = {
source = "four-cham";
};
};
},
{
category = Letter;
glyphname = five_cham;
kernLeft = o;
kernRight = o;
layers = (
{
anchors = (
{
name = Anchor13;
pos = (287,594);
},
{
name = Anchor14;
pos = (518,418);
},
{
name = Anchor16;
pos = (344,-18);
},
{
name = Anchor17;
pos = (344,-18);
}
);
layerId = "9FF96064-8718-4A86-A5C8-73C592101F67";
shapes = (
{
closed = 1;
nodes = (
(519,516,o),
(422,594,o),
(287,594,cs),
(148,594,o),
(54,512,o),
(54,388,cs),
(54,334,o),
(76,276,o),
(118,233,c),
(184,277,l),
(157,304,o),
(138,346,o),
(138,390,cs),
(138,472,o),
(198,525,o),
(286,525,cs),
(378,525,o),
(434,470,o),
(434,388,cs),
(434,336,o),
(409,281,o),
(352,255,c),
(352,220,l),
(408,196,o),
(438,158,o),
(438,112,cs),
(438,60,o),
(403,28,o),
(344,28,cs),
(288,28,o),
(264,42,o),
(264,64,cs),
(264,81,o),
(277,93,o),
(302,93,cs),
(334,93,o),
(351,74,o),
(351,41,cs),
(351,30,o),
(349,16,o),
(345,3,c),
(393,11,l),
(395,21,o),
(396,32,o),
(396,40,cs),
(396,92,o),
(364,136,o),
(300,136,cs),
(248,136,o),
(214,107,o),
(214,66,cs),
(214,14,o),
(264,-18,o),
(344,-18,cs),
(453,-18,o),
(507,43,o),
(507,115,cs),
(507,167,o),
(478,220,o),
(399,251,c),
(391,210,l),
(474,240,o),
(519,322,o),
(519,394,cs)
);
}
);
userData = {
RMXScaler = {
verticalShift = -124;
};
};
width = 588;
},
{
anchors = (
{
name = Anchor13;
pos = (253,556);
},
{
name = Anchor14;
pos = (447,403);
},
{
name = Anchor16;
pos = (319,-10);
},
{
name = Anchor17;
pos = (319,-10);
}
);
layerId = "AB666A95-3AF9-4DE8-B258-097FFCFE8A59";
shapes = (
{
closed = 1;
nodes = (
(449,486,o),
(367,556,o),
(253,556,cs),
(137,556,o),
(57,483,o),
(57,375,cs),
(57,320,o),
(81,265,o),
(118,228,c),
(135,243,l),
(103,274,o),
(81,324,o),
(81,375,cs),
(81,472,o),
(149,534,o),
(253,534,cs),
(356,534,o),
(425,475,o),
(425,374,cs),
(425,314,o),
(396,247,o),
(326,220,c),
(326,208,l),
(382,182,o),
(409,142,o),
(409,98,cs),
(409,47,o),
(379,12,o),
(319,12,cs),
(280,12,o),
(254,25,o),
(254,47,cs),
(254,65,o),
(267,78,o),
(295,78,cs),
(327,78,o),
(343,61,o),
(343,31,cs),
(343,23,o),
(341,13,o),
(338,3,c),
(361,8,l),
(363,16,o),
(364,24,o),
(364,32,cs),
(364,74,o),
(341,99,o),
(295,99,cs),
(254,99,o),
(231,77,o),
(231,47,cs),
(231,11,o),
(268,-10,o),
(319,-10,cs),
(392,-10,o),
(433,35,o),
(433,98,cs),
(433,145,o),
(404,187,o),
(348,218,c),
(349,207,l),
(415,235,o),
(449,314,o),
(449,375,cs)
);
}
);
userData = {
RMXScaler = {
verticalShift = -151;
};
};
width = 526;
},
{
anchors = (
{
name = Anchor13;
pos = (340,653);
},
{
name = Anchor14;
pos = (628,441);
},
{
name = Anchor16;
pos = (381,-29);
},
{
name = Anchor17;
pos = (381,-29);
}
);
layerId = "0A718E2F-231D-484E-9433-16A5230D2CE8";
shapes = (
{
closed = 1;
nodes = (
(629,563,o),
(508,653,o),
(340,653,cs),
(166,653,o),
(49,556,o),
(49,409,cs),
(49,357,o),
(70,293,o),
(118,241,c),
(261,329,l),
(241,351,o),
(227,380,o),
(227,413,cs),
(227,472,o),
(273,511,o),
(338,511,cs),
(411,511,o),
(447,463,o),
(447,410,cs),
(447,368,o),
(428,334,o),
(392,309,c),
(392,238,l),
(449,218,o),
(484,182,o),
(484,135,cs),
(484,81,o),
(439,53,o),
(381,53,cs),
(301,53,o),
(279,69,o),
(279,91,cs),
(279,107,o),
(292,116,o),
(312,116,cs),
(344,116,o),
(364,94,o),
(364,57,cs),
(364,40,o),
(361,21,o),
(356,3,c),
(442,14,l),
(444,28,o),
(445,43,o),
(445,53,cs),
(445,120,o),
(400,193,o),
(307,193,cs),
(239,193,o),
(186,153,o),
(186,96,cs),
(186,18,o),
(258,-29,o),
(381,-29,cs),
(549,-29,o),
(623,54,o),
(623,142,cs),
(623,200,o),
(593,270,o),
(478,303,c),
(456,213,l),
(566,248,o),
(629,334,o),
(629,423,cs)
);
}
);
userData = {
RMXScaler = {
verticalShift = -82;
};
};
width = 686;
}
);
metricLeft = o_cham;
metricRight = o_cham;
note = uniAA55;
production = uniAA55;
script = cham;
subCategory = Spacing;
unicode = 43605;
userData = {
RMXScaler = {
source = "five-cham";
};
};
},
{
category = Letter;
glyphname = seven_cham;
kernLeft = ha;
layers = (
{
anchors = (
{
name = Anchor13;
pos = (609,594);
},
{
name = Anchor14;
pos = (821,418);
},
{
name = Anchor16;
pos = (822,-253);
},
{
name = Anchor17;
pos = (822,-253);
}
);
layerId = "9FF96064-8718-4A86-A5C8-73C592101F67";
shapes = (
{
closed = 1;
nodes = (
(829,492,o),
(753,594,o),
(609,594,cs),
(494,594,o),
(415,526,o),
(415,424,cs),
(415,337,o),
(455,278,o),
(455,196,cs),
(455,100,o),
(395,48,o),
(292,48,cs),
(195,48,o),
(132,96,o),
(132,166,cs),
(132,216,o),
(164,251,o),
(217,251,cs),
(270,251,o),
(303,215,o),
(303,152,cs),
(303,116,o),
(290,71,o),
(276,43,c),
(343,43,l),
(356,68,o),
(374,114,o),
(374,163,cs),
(374,258,o),
(308,317,o),
(214,317,cs),
(114,317,o),
(53,251,o),
(53,165,cs),
(53,57,o),
(151,-17,o),
(304,-17,cs),
(453,-17,o),
(540,65,o),
(540,191,cs),
(540,285,o),
(500,343,o),
(500,418,cs),
(500,482,o),
(542,525,o),
(611,525,cs),
(700,525,o),
(743,452,o),
(743,331,cs),
(743,169,o),
(696,95,o),
(574,21,cs),
(442,-59,o),
(410,-121,o),
(410,-184,cs),
(410,-251,o),
(464,-299,o),
(529,-299,cs),
(651,-299,o),
(669,-149,o),
(733,-149,cs),
(755,-149,o),
(768,-162,o),
(768,-183,cs),
(768,-195,o),
(763,-209,o),
(754,-222,c),
(822,-253,l),
(840,-228,o),
(849,-195,o),
(849,-172,cs),
(849,-119,o),
(806,-76,o),
(748,-76,cs),
(626,-76,o),
(608,-224,o),
(540,-224,cs),
(511,-224,o),
(494,-203,o),
(494,-177,cs),
(494,-149,o),
(509,-98,o),
(629,-28,cs),
(784,62,o),
(829,167,o),
(829,333,cs)
);
}
);
userData = {
RMXScaler = {
verticalShift = -124;
};
};
width = 914;
},
{
anchors = (
{
name = Anchor13;
pos = (690,653);
},
{
name = Anchor14;
pos = (965,441);
},
{
name = Anchor16;
pos = (983,-320);
},
{
name = Anchor17;
pos = (983,-320);
}
);
layerId = "0A718E2F-231D-484E-9433-16A5230D2CE8";
shapes = (
{
closed = 1;
nodes = (
(973,537,o),
(881,653,o),
(690,653,cs),
(541,653,o),
(436,573,o),
(436,454,cs),
(436,365,o),
(480,302,o),
(480,224,cs),
(480,132,o),
(419,85,o),
(325,85,cs),
(235,85,o),
(181,130,o),
(181,187,cs),
(181,224,o),
(204,249,o),
(241,249,cs),
(280,249,o),
(303,220,o),
(303,171,cs),
(303,142,o),
(294,106,o),
(280,80,c),
(393,80,l),
(407,102,o),
(426,145,o),
(426,196,cs),
(426,298,o),
(347,361,o),
(236,361,cs),
(112,361,o),
(42,284,o),
(42,184,cs),
(42,58,o),
(159,-29,o),
(357,-29,cs),
(545,-29,o),
(658,70,o),
(658,213,cs),
(658,312,o),
(618,373,o),
(618,438,cs),
(618,479,o),
(645,511,o),
(695,511,cs),
(766,511,o),
(791,453,o),
(791,344,cs),
(791,175,o),
(743,111,o),
(635,28,cs),
(512,-66,o),
(479,-131,o),
(479,-195,cs),
(479,-286,o),
(554,-346,o),
(638,-346,cs),
(772,-346,o),
(802,-215,o),
(847,-215,cs),
(863,-215,o),
(872,-223,o),
(872,-238,cs),
(872,-248,o),
(869,-258,o),
(862,-269,c),
(983,-320,l),
(1007,-288,o),
(1015,-242,o),
(1015,-215,cs),
(1015,-144,o),
(957,-84,o),
(874,-84,cs),
(758,-84,o),
(700,-214,o),
(657,-214,cs),
(640,-214,o),
(627,-199,o),
(627,-181,cs),
(627,-152,o),
(645,-121,o),
(773,-33,cs),
(922,69,o),
(973,184,o),
(973,351,cs)
);
}
);
userData = {
RMXScaler = {
verticalShift = -82;
};
};
width = 1022;
},
{
anchors = (
{
name = Anchor13;
pos = (554,556);
},
{
name = Anchor14;
pos = (725,403);
},
{
name = Anchor16;
pos = (720,-185);
},
{
name = Anchor17;
pos = (720,-185);
}
);
layerId = "AB666A95-3AF9-4DE8-B258-097FFCFE8A59";
shapes = (
{
closed = 1;
nodes = (
(733,463,o),
(668,556,o),
(554,556,cs),
(461,556,o),
(398,495,o),
(398,406,cs),
(398,319,o),
(437,263,o),
(437,178,cs),
(437,72,o),
(376,12,o),
(262,12,cs),
(157,12,o),
(84,64,o),
(84,147,cs),
(84,209,o),
(123,255,o),
(193,255,cs),
(257,255,o),
(300,210,o),
(300,134,cs),
(300,91,o),
(283,39,o),
(269,8,c),
(293,8,l),
(306,37,o),
(324,85,o),
(324,134,cs),
(324,221,o),
(269,276,o),
(192,276,cs),
(111,276,o),
(60,220,o),
(60,147,cs),
(60,53,o),
(145,-10,o),
(261,-10,cs),
(388,-10,o),
(461,61,o),
(461,177,cs),
(461,268,o),
(422,324,o),
(422,405,cs),
(422,484,o),
(473,534,o),
(554,534,cs),
(655,534,o),
(709,451,o),
(709,322,cs),
(709,165,o),
(642,82,o),
(539,4,cs),
(427,-80,o),
(394,-123,o),
(394,-168,cs),
(394,-213,o),
(427,-248,o),
(479,-248,cs),
(586,-248,o),
(597,-82,o),
(676,-82,cs),
(701,-82,o),
(720,-100,o),
(720,-124,cs),
(720,-139,o),
(713,-157,o),
(702,-171,c),
(720,-185,l),
(735,-166,o),
(744,-144,o),
(744,-124,cs),
(744,-87,o),
(714,-60,o),
(676,-60,cs),
(578,-60,o),
(567,-226,o),
(478,-226,cs),
(441,-226,o),
(418,-200,o),
(418,-167,cs),
(418,-129,o),
(445,-93,o),
(556,-10,cs),
(662,69,o),
(733,156,o),
(733,322,cs)
);
}
);
userData = {
RMXScaler = {
verticalShift = -151;
};
};
width = 841;
}
);
metricLeft = dha_cham;
metricRight = nine_cham;
note = uniAA57;
production = uniAA57;
script = cham;
subCategory = Spacing;
unicode = 43607;
userData = {
RMXScaler = {
source = "seven-cham";
};
};
},
{
category = Letter;
glyphname = eight_cham;
kernLeft = cha;
layers = (
{
anchors = (
{
name = Anchor13;
pos = (744,594);
},
{
name = Anchor14;
pos = (936,418);
},
{
name = Anchor16;
pos = (873,-253);
},
{
name = Anchor17;
pos = (873,-253);
}
);
layerId = "9FF96064-8718-4A86-A5C8-73C592101F67";
shapes = (
{
closed = 1;
nodes = (
(938,510,o),
(863,594,o),
(742,594,cs),
(653,594,o),
(581,549,o),
(563,448,cs),
(544,344,o),
(506,330,o),
(396,312,cs),
(250,288,o),
(156,218,o),
(156,112,cs),
(156,31,o),
(208,-17,o),
(289,-17,cs),
(408,-17,o),
(487,103,o),
(487,286,cs),
(487,481,o),
(393,594,o),
(249,594,cs),
(132,594,o),
(61,527,o),
(61,435,cs),
(61,379,o),
(85,333,o),
(118,302,c),
(174,347,l),
(156,367,o),
(143,395,o),
(143,429,cs),
(143,488,o),
(184,525,o),
(251,525,cs),
(344,525,o),
(403,442,o),
(403,290,cs),
(403,142,o),
(357,51,o),
(289,51,cs),
(256,51,o),
(239,78,o),
(239,115,cs),
(239,175,o),
(286,228,o),
(434,255,cs),
(569,280,o),
(615,307,o),
(634,418,cs),
(646,487,o),
(681,525,o),
(743,525,cs),
(811,525,o),
(852,472,o),
(852,362,cs),
(852,227,o),
(789,129,o),
(653,51,cs),
(484,-46,o),
(461,-124,o),
(461,-186,cs),
(461,-251,o),
(515,-299,o),
(580,-299,cs),
(702,-299,o),
(720,-149,o),
(784,-149,cs),
(806,-149,o),
(819,-162,o),
(819,-183,cs),
(819,-195,o),
(814,-209,o),
(805,-222,c),
(873,-253,l),
(891,-228,o),
(900,-195,o),
(900,-172,cs),
(900,-119,o),
(857,-76,o),
(799,-76,cs),
(677,-76,o),
(659,-224,o),
(591,-224,cs),
(562,-224,o),
(545,-203,o),
(545,-178,cs),
(545,-135,o),
(582,-75,o),
(710,-2,cs),
(871,90,o),
(938,217,o),
(938,362,cs)
);
}
);
userData = {
RMXScaler = {
verticalShift = -124;
};
};
width = 1018;
},
{
anchors = (
{
name = Anchor13;
pos = (834,653);
},
{
name = Anchor14;
pos = (1070,441);
},
{
name = Anchor16;
pos = (1018,-320);
},
{
name = Anchor17;
pos = (1018,-320);
}
);
layerId = "0A718E2F-231D-484E-9433-16A5230D2CE8";
shapes = (
{
closed = 1;
nodes = (
(1072,554,o),
(980,653,o),
(835,653,cs),
(723,653,o),
(636,607,o),
(610,488,cs),
(585,374,o),
(540,359,o),
(439,352,cs),
(271,340,o),
(147,267,o),
(147,143,cs),
(147,34,o),
(222,-29,o),
(330,-29,cs),
(475,-29,o),
(577,101,o),
(577,296,cs),
(577,524,o),
(463,653,o),
(286,653,cs),
(147,653,o),
(56,578,o),
(56,470,cs),
(56,395,o),
(91,339,o),
(137,309,c),
(251,404,l),
(241,411,o),
(228,429,o),
(228,455,cs),
(228,494,o),
(259,511,o),
(290,511,cs),
(359,511,o),
(400,443,o),
(400,305,cs),
(400,179,o),
(369,109,o),
(333,109,cs),
(312,109,o),
(301,125,o),
(301,149,cs),
(301,187,o),
(333,228,o),
(512,255,cs),
(658,277,o),
(712,310,o),
(733,415,cs),
(746,479,o),
(767,511,o),
(817,511,cs),
(862,511,o),
(890,471,o),
(890,397,cs),
(890,238,o),
(850,159,o),
(702,69,cs),
(549,-24,o),
(514,-108,o),
(514,-190,cs),
(514,-282,o),
(589,-346,o),
(673,-346,cs),
(807,-346,o),
(837,-215,o),
(882,-215,cs),
(898,-215,o),
(907,-223,o),
(907,-238,cs),
(907,-248,o),
(904,-258,o),
(897,-269,c),
(1018,-320,l),
(1042,-288,o),
(1050,-242,o),
(1050,-215,cs),
(1050,-144,o),
(992,-84,o),
(909,-84,cs),
(793,-84,o),
(735,-214,o),
(692,-214,cs),
(675,-214,o),
(662,-198,o),
(662,-175,cs),
(662,-131,o),
(708,-87,o),
(809,-27,cs),
(987,79,o),
(1072,196,o),
(1072,396,cs)
);
}
);
userData = {
RMXScaler = {
verticalShift = -82;
};
};
width = 1137;
},
{
anchors = (
{
name = Anchor13;
pos = (686,556);
},
{
name = Anchor14;
pos = (849,403);
},
{
name = Anchor16;
pos = (764,-185);
},
{
name = Anchor17;
pos = (764,-185);
}
);
layerId = "AB666A95-3AF9-4DE8-B258-097FFCFE8A59";
shapes = (
{
closed = 1;
nodes = (
(852,479,o),
(787,556,o),
(686,556,cs),
(603,556,o),
(543,509,o),
(529,415,cs),
(514,316,o),
(485,304,o),
(367,274,cs),
(243,243,o),
(174,174,o),
(174,82,cs),
(174,26,o),
(206,-10,o),
(262,-10,cs),
(366,-10,o),
(430,104,o),
(430,280,cs),
(430,453,o),
(348,556,o),
(225,556,cs),
(122,556,o),
(64,495,o),
(64,412,cs),
(64,368,o),
(80,328,o),
(106,297,c),
(124,311,l),
(102,338,o),
(88,373,o),
(88,412,cs),
(88,483,o),
(135,534,o),
(226,534,cs),
(334,534,o),
(406,441,o),
(406,280,cs),
(406,116,o),
(350,12,o),
(261,12,cs),
(221,12,o),
(198,43,o),
(198,83,cs),
(198,163,o),
(258,225,o),
(375,254,cs),
(499,285,o),
(537,304,o),
(552,411,cs),
(564,494,o),
(616,534,o),
(685,534,cs),
(776,534,o),
(828,469,o),
(828,365,cs),
(828,228,o),
(766,121,o),
(632,42,cs),
(476,-50,o),
(439,-120,o),
(439,-170,cs),
(439,-214,o),
(471,-248,o),
(523,-248,cs),
(630,-248,o),
(641,-82,o),
(720,-82,cs),
(745,-82,o),
(764,-100,o),
(764,-124,cs),
(764,-139,o),
(757,-157,o),
(746,-171,c),
(764,-185,l),
(779,-166,o),
(788,-144,o),
(788,-124,cs),
(788,-87,o),
(758,-60,o),
(720,-60,cs),
(622,-60,o),
(611,-226,o),
(522,-226,cs),
(485,-226,o),
(463,-201,o),
(463,-170,cs),
(463,-131,o),
(490,-69,o),
(649,25,cs),
(789,108,o),
(852,221,o),
(852,365,cs)
);
}
);
userData = {
RMXScaler = {
verticalShift = -151;
};
};
width = 942;
}
);
metricLeft = cha_cham;
metricRight = gFinal_cham;
note = uniAA58;
production = uniAA58;
script = cham;
subCategory = Spacing;
unicode = 43608;
userData = {
RMXScaler = {
source = "eight-cham";
};
};
},
{
category = Letter;
glyphname = nine_cham;
kernLeft = dha;
layers = (
{
anchors = (
{
name = Anchor13;
pos = (754,594);
},
{
name = Anchor14;
pos = (965,418);
},
{
name = Anchor16;
pos = (966,-253);
},
{
name = Anchor17;
pos = (966,-253);
}
);
layerId = "9FF96064-8718-4A86-A5C8-73C592101F67";
shapes = (
{
closed = 1;
nodes = (
(973,492,o),
(898,594,o),
(754,594,cs),
(641,594,o),
(565,526,o),
(565,422,cs),
(565,318,o),
(626,250,o),
(626,170,cs),
(626,100,o),
(580,51,o),
(501,51,cs),
(422,51,o),
(375,100,o),
(375,170,cs),
(375,250,o),
(438,318,o),
(438,422,cs),
(438,526,o),
(361,594,o),
(249,594,cs),
(131,594,o),
(53,525,o),
(53,418,cs),
(53,368,o),
(73,312,o),
(114,276,c),
(176,325,l),
(154,348,o),
(137,384,o),
(137,420,cs),
(137,485,o),
(178,525,o),
(247,525,cs),
(313,525,o),
(352,483,o),
(352,415,cs),
(352,332,o),
(289,263,o),
(289,170,cs),
(289,59,o),
(371,-18,o),
(501,-18,cs),
(632,-18,o),
(711,61,o),
(711,170,cs),
(711,264,o),
(650,332,o),
(650,415,cs),
(650,483,o),
(689,525,o),
(756,525,cs),
(845,525,o),
(887,452,o),
(887,331,cs),
(887,169,o),
(841,95,o),
(718,21,cs),
(586,-58,o),
(554,-121,o),
(554,-184,cs),
(554,-251,o),
(608,-299,o),
(673,-299,cs),
(795,-299,o),
(813,-149,o),
(877,-149,cs),
(899,-149,o),
(912,-162,o),
(912,-183,cs),
(912,-195,o),
(907,-209,o),
(898,-222,c),
(966,-253,l),
(984,-228,o),
(993,-195,o),
(993,-172,cs),
(993,-119,o),
(950,-76,o),
(892,-76,cs),
(770,-76,o),
(752,-224,o),
(684,-224,cs),
(655,-224,o),
(638,-203,o),
(638,-177,cs),
(638,-149,o),
(653,-98,o),
(773,-28,cs),
(928,62,o),
(973,167,o),
(973,333,cs)
);
}
);
userData = {
RMXScaler = {
verticalShift = -124;
};
};
width = 1058;
},
{
anchors = (
{
name = Anchor13;
pos = (854,653);
},
{
name = Anchor14;
pos = (1128,441);
},
{
name = Anchor16;
pos = (1147,-320);
},
{
name = Anchor17;
pos = (1147,-320);
}
);
layerId = "0A718E2F-231D-484E-9433-16A5230D2CE8";
shapes = (
{
closed = 1;
nodes = (
(1137,537,o),
(1045,653,o),
(854,653,cs),
(708,653,o),
(603,573,o),
(603,455,cs),
(603,338,o),
(660,265,o),
(660,195,cs),
(660,145,o),
(633,113,o),
(575,113,cs),
(519,113,o),
(489,145,o),
(489,195,cs),
(489,265,o),
(551,338,o),
(551,455,cs),
(551,573,o),
(446,653,o),
(300,653,cs),
(147,653,o),
(42,564,o),
(42,434,cs),
(42,377,o),
(64,307,o),
(120,266,c),
(253,366,l),
(237,380,o),
(220,410,o),
(220,440,cs),
(220,481,o),
(249,511,o),
(295,511,cs),
(342,511,o),
(369,479,o),
(369,438,cs),
(369,364,o),
(307,289,o),
(307,188,cs),
(307,59,o),
(408,-29,o),
(575,-29,cs),
(747,-29,o),
(842,63,o),
(842,189,cs),
(842,293,o),
(785,364,o),
(785,438,cs),
(785,479,o),
(812,511,o),
(859,511,cs),
(930,511,o),
(955,453,o),
(955,344,cs),
(955,175,o),
(907,111,o),
(799,28,cs),
(676,-66,o),
(643,-131,o),
(643,-195,cs),
(643,-286,o),
(718,-346,o),
(802,-346,cs),
(936,-346,o),
(966,-215,o),
(1011,-215,cs),
(1027,-215,o),
(1036,-223,o),
(1036,-238,cs),
(1036,-248,o),
(1033,-258,o),
(1026,-269,c),
(1147,-320,l),
(1171,-288,o),
(1179,-242,o),
(1179,-215,cs),
(1179,-144,o),
(1121,-84,o),
(1038,-84,cs),
(922,-84,o),
(864,-214,o),
(821,-214,cs),
(804,-214,o),
(791,-199,o),
(791,-181,cs),
(791,-152,o),
(809,-121,o),
(937,-33,cs),
(1086,69,o),
(1137,184,o),
(1137,351,cs)
);
}
);
userData = {
RMXScaler = {
verticalShift = -82;
};
};
width = 1186;
},
{
anchors = (
{
name = Anchor13;
pos = (690,556);
},
{
name = Anchor14;
pos = (861,403);
},
{
name = Anchor16;
pos = (856,-185);
},
{
name = Anchor17;
pos = (856,-185);
}
);
layerId = "AB666A95-3AF9-4DE8-B258-097FFCFE8A59";
shapes = (
{
closed = 1;
nodes = (
(869,463,o),
(804,556,o),
(690,556,cs),
(599,556,o),
(540,496,o),
(540,400,cs),
(540,305,o),
(604,240,o),
(604,155,cs),
(604,71,o),
(546,12,o),
(453,12,cs),
(360,12,o),
(302,71,o),
(302,155,cs),
(302,240,o),
(366,305,o),
(366,400,cs),
(366,496,o),
(307,556,o),
(216,556,cs),
(121,556,o),
(60,499,o),
(60,407,cs),
(60,362,o),
(79,316,o),
(109,283,c),
(126,298,l),
(101,326,o),
(84,367,o),
(84,407,cs),
(84,488,o),
(133,534,o),
(216,534,cs),
(295,534,o),
(342,485,o),
(342,400,cs),
(342,312,o),
(278,246,o),
(278,158,cs),
(278,59,o),
(347,-10,o),
(453,-10,cs),
(559,-10,o),
(628,59,o),
(628,158,cs),
(628,246,o),
(564,312,o),
(564,400,cs),
(564,485,o),
(611,534,o),
(690,534,cs),
(791,534,o),
(845,451,o),
(845,322,cs),
(845,165,o),
(778,82,o),
(675,4,cs),
(563,-81,o),
(530,-123,o),
(530,-168,cs),
(530,-213,o),
(563,-248,o),
(615,-248,cs),
(722,-248,o),
(733,-82,o),
(812,-82,cs),
(837,-82,o),
(856,-100,o),
(856,-124,cs),
(856,-139,o),
(849,-157,o),
(838,-171,c),
(856,-185,l),
(871,-166,o),
(880,-144,o),
(880,-124,cs),
(880,-87,o),
(850,-60,o),
(812,-60,cs),
(714,-60,o),
(703,-226,o),
(614,-226,cs),
(577,-226,o),
(554,-200,o),
(554,-167,cs),
(554,-129,o),
(581,-93,o),
(692,-10,cs),
(797,69,o),
(869,156,o),
(869,322,cs)
);
}
);
userData = {
RMXScaler = {
verticalShift = -151;
};
};
width = 977;
}
);
metricLeft = dha_cham;
note = uniAA59;
production = uniAA59;
script = cham;
subCategory = Spacing;
unicode = 43609;
userData = {
RMXScaler = {
source = "nine-cham";
};
};
},
{
category = Letter;
glyphname = ka_cham;
kernLeft = ka;
kernRight = dha;
layers = (
{
anchors = (
{
name = Anchor13;
pos = (620,594);
},
{
name = Anchor14;
pos = (802,418);
},
{
name = Anchor16;
pos = (743,274);
},
{
name = Anchor17;
pos = (743,274);
}
);
layerId = "9FF96064-8718-4A86-A5C8-73C592101F67";
shapes = (
{
closed = 1;
nodes = (
(802,523,o),
(729,594,o),
(620,594,cs),
(507,594,o),
(427,518,o),
(427,390,c),
(481,390,l),
(481,518,o),
(400,594,o),
(289,594,cs),
(182,594,o),
(108,524,o),
(108,424,cs),
(108,330,o),
(170,255,o),
(170,173,cs),
(170,93,o),
(123,42,o),
(48,27,c),
(64,-45,l),
(183,-25,o),
(255,56,o),
(255,168,cs),
(255,267,o),
(193,344,o),
(193,420,cs),
(193,483,o),
(235,525,o),
(302,525,cs),
(371,525,o),
(420,477,o),
(417,379,c),
(491,379,l),
(489,478,o),
(541,525,o),
(609,525,cs),
(677,525,o),
(718,484,o),
(718,418,cs),
(718,380,o),
(705,347,o),
(680,320,c),
(743,274,l),
(785,318,o),
(802,363,o),
(802,417,cs)
);
}
);
width = 855;
},
{
anchors = (
{
name = Anchor13;
pos = (689,653);
},
{
name = Anchor14;
pos = (912,441);
},
{
name = Anchor16;
pos = (835,272);
},
{
name = Anchor17;
pos = (835,272);
}
);
layerId = "0A718E2F-231D-484E-9433-16A5230D2CE8";
shapes = (
{
closed = 1;
nodes = (
(912,567,o),
(821,653,o),
(689,653,cs),
(550,653,o),
(457,560,o),
(457,414,c),
(564,414,l),
(564,560,o),
(466,653,o),
(327,653,cs),
(197,653,o),
(108,569,o),
(108,454,cs),
(108,353,o),
(170,272,o),
(170,207,cs),
(170,138,o),
(119,104,o),
(45,84,c),
(76,-64,l),
(249,-36,o),
(352,60,o),
(352,195,cs),
(352,295,o),
(290,378,o),
(290,443,cs),
(290,481,o),
(316,511,o),
(359,511,cs),
(408,511,o),
(440,476,o),
(434,391,c),
(587,391,l),
(581,478,o),
(617,511,o),
(665,511,cs),
(706,511,o),
(734,484,o),
(734,443,cs),
(734,412,o),
(723,390,o),
(699,367,c),
(835,272,l),
(892,329,o),
(912,379,o),
(912,441,cs)
);
}
);
width = 954;
},
{
anchors = (
{
name = Anchor13;
pos = (575,556);
},
{
name = Anchor14;
pos = (732,403);
},
{
name = Anchor16;
pos = (685,276);
},
{
name = Anchor17;
pos = (685,276);
}
);
guides = (
{
pos = (-478,-33);
}
);
layerId = "AB666A95-3AF9-4DE8-B258-097FFCFE8A59";
shapes = (
{
closed = 1;
nodes = (
(732,494,o),
(671,556,o),
(575,556,cs),
(480,556,o),
(411,491,o),
(411,374,c),
(426,374,l),
(427,490,o),
(359,556,o),
(264,556,cs),
(172,556,o),
(108,495,o),
(108,406,cs),
(108,316,o),
(170,244,o),
(170,151,cs),
(170,65,o),
(126,5,o),
(51,-11,c),
(56,-33,l),
(141,-15,o),
(194,54,o),
(194,151,cs),
(194,250,o),
(132,322,o),
(132,406,cs),
(132,484,o),
(184,534,o),
(266,534,cs),
(347,534,o),
(407,478,o),
(407,372,c),
(430,372,l),
(430,479,o),
(492,534,o),
(573,534,cs),
(659,534,o),
(708,483,o),
(708,402,cs),
(708,359,o),
(694,319,o),
(668,290,c),
(685,275,l),
(717,310,o),
(732,353,o),
(732,402,cs)
);
}
);
width = 792;
}
);
metricRight = dha_cham;
note = uniAA06;
production = uniAA06;
script = cham;
subCategory = Spacing;
unicode = 43526;
},
{
category = Letter;
glyphname = kha_cham;
kernLeft = ka;
kernRight = dha;
layers = (
{
anchors = (
{
name = Anchor13;
pos = (1072,594);
},
{
name = Anchor14;
pos = (1256,417);
},
{
name = Anchor16;
pos = (1198,273);
},
{
name = Anchor17;
pos = (1198,273);
}
);
layerId = "9FF96064-8718-4A86-A5C8-73C592101F67";
shapes = (
{
closed = 1;
nodes = (
(1256,523,o),
(1184,594,o),
(1072,594,cs),
(979,594,o),
(909,550,o),
(891,449,cs),
(872,344,o),
(835,330,o),
(725,312,cs),
(579,288,o),
(485,218,o),
(485,112,cs),
(485,31,o),
(537,-17,o),
(618,-17,cs),
(737,-17,o),
(816,111,o),
(816,306,cs),
(816,491,o),
(741,594,o),
(618,594,cs),
(508,594,o),
(430,518,o),
(430,389,c),
(481,389,l),
(481,517,o),
(402,594,o),
(289,594,cs),
(181,594,o),
(108,524,o),
(108,424,cs),
(108,330,o),
(170,255,o),
(170,173,cs),
(170,93,o),
(123,42,o),
(48,27,c),
(64,-45,l),
(183,-25,o),
(256,56,o),
(256,168,cs),
(256,267,o),
(194,344,o),
(194,420,cs),
(194,483,o),
(235,525,o),
(302,525,cs),
(372,525,o),
(421,477,o),
(418,379,c),
(493,379,l),
(490,480,o),
(542,525,o),
(607,525,cs),
(688,525,o),
(732,451,o),
(732,307,cs),
(732,148,o),
(686,51,o),
(618,51,cs),
(585,51,o),
(568,78,o),
(568,115,cs),
(568,175,o),
(615,228,o),
(763,255,cs),
(898,280,o),
(944,307,o),
(963,418,cs),
(975,487,o),
(1009,525,o),
(1065,525,cs),
(1132,525,o),
(1172,484,o),
(1172,418,cs),
(1172,380,o),
(1160,347,o),
(1134,320,c),
(1198,274,l),
(1239,318,o),
(1256,363,o),
(1256,417,cs)
);
}
);
width = 1309;
},
{
anchors = (
{
name = Anchor13;
pos = (1186,653);
},
{
name = Anchor14;
pos = (1414,441);
},
{
name = Anchor16;
pos = (1337,272);
},
{
name = Anchor17;
pos = (1337,272);
}
);
layerId = "0A718E2F-231D-484E-9433-16A5230D2CE8";
shapes = (
{
closed = 1;
nodes = (
(1414,567,o),
(1324,653,o),
(1186,653,cs),
(1073,653,o),
(988,608,o),
(963,490,cs),
(938,374,o),
(892,359,o),
(791,352,cs),
(623,340,o),
(499,267,o),
(499,143,cs),
(499,34,o),
(574,-29,o),
(682,-29,cs),
(827,-29,o),
(929,101,o),
(929,328,cs),
(929,537,o),
(839,653,o),
(689,653,cs),
(552,653,o),
(457,560,o),
(457,414,c),
(564,414,l),
(564,560,o),
(466,653,o),
(327,653,cs),
(197,653,o),
(108,569,o),
(108,454,cs),
(108,353,o),
(170,272,o),
(170,207,cs),
(170,138,o),
(119,104,o),
(45,84,c),
(76,-64,l),
(249,-36,o),
(352,60,o),
(352,195,cs),
(352,295,o),
(290,378,o),
(290,443,cs),
(290,481,o),
(316,511,o),
(359,511,cs),
(408,511,o),
(440,476,o),
(434,391,c),
(587,391,l),
(582,480,o),
(622,511,o),
(666,511,cs),
(722,511,o),
(752,453,o),
(752,330,cs),
(752,179,o),
(721,109,o),
(685,109,cs),
(664,109,o),
(653,125,o),
(653,149,cs),
(653,187,o),
(685,228,o),
(864,255,cs),
(1010,277,o),
(1064,310,o),
(1085,415,cs),
(1098,479,o),
(1118,511,o),
(1168,511,cs),
(1209,511,o),
(1236,484,o),
(1236,443,cs),
(1236,412,o),
(1225,390,o),
(1201,367,c),
(1337,272,l),
(1394,329,o),
(1414,379,o),
(1414,441,cs)
);
}
);
width = 1456;
},
{
anchors = (
{
name = Anchor13;
pos = (1000,556);
},
{
name = Anchor14;
pos = (1156,402);
},
{
name = Anchor16;
pos = (1109,275);
},
{
name = Anchor17;
pos = (1109,275);
}
);
layerId = "AB666A95-3AF9-4DE8-B258-097FFCFE8A59";
shapes = (
{
closed = 1;
nodes = (
(1156,494,o),
(1095,556,o),
(1000,556,cs),
(917,556,o),
(857,509,o),
(843,415,cs),
(828,316,o),
(799,304,o),
(681,274,cs),
(557,243,o),
(488,174,o),
(488,82,cs),
(488,26,o),
(520,-10,o),
(576,-10,cs),
(680,-10,o),
(744,104,o),
(744,293,cs),
(744,461,o),
(679,556,o),
(572,556,cs),
(480,556,o),
(413,491,o),
(413,374,c),
(428,374,l),
(429,490,o),
(361,556,o),
(265,556,cs),
(171,556,o),
(108,495,o),
(108,406,cs),
(108,316,o),
(170,244,o),
(170,151,cs),
(170,65,o),
(126,5,o),
(51,-11,c),
(56,-33,l),
(141,-15,o),
(194,54,o),
(194,151,cs),
(194,250,o),
(132,322,o),
(132,406,cs),
(132,484,o),
(183,534,o),
(266,534,cs),
(349,534,o),
(409,478,o),
(409,372,c),
(432,372,l),
(432,479,o),
(492,534,o),
(570,534,cs),
(666,534,o),
(720,449,o),
(720,293,cs),
(720,116,o),
(664,12,o),
(575,12,cs),
(535,12,o),
(512,43,o),
(512,83,cs),
(512,163,o),
(572,225,o),
(689,254,cs),
(813,285,o),
(851,304,o),
(866,411,cs),
(878,494,o),
(930,534,o),
(999,534,cs),
(1084,534,o),
(1132,483,o),
(1132,402,cs),
(1132,359,o),
(1118,319,o),
(1092,290,c),
(1109,275,l),
(1141,310,o),
(1156,353,o),
(1156,402,cs)
);
}
);
width = 1216;
}
);
metricLeft = ka_cham;
metricRight = dha_cham;
note = uniAA07;
production = uniAA07;
script = cham;
subCategory = Spacing;
unicode = 43527;
},
{
category = Letter;
glyphname = ga_cham;
kernLeft = gFinal;
kernRight = dha;
layers = (
{
anchors = (
{
name = Anchor13;
pos = (640,594);
},
{
name = Anchor14;
pos = (826,418);
},
{
name = Anchor16;
pos = (768,274);
},
{
name = Anchor17;
pos = (783,274);
}
);
layerId = "9FF96064-8718-4A86-A5C8-73C592101F67";
shapes = (
{
closed = 1;
nodes = (
(826,523,o),
(753,594,o),
(640,594,cs),
(523,594,o),
(443,514,o),
(444,386,c),
(498,386,l),
(498,513,o),
(422,594,o),
(305,594,cs),
(166,594,o),
(80,485,o),
(80,308,cs),
(80,105,o),
(190,-19,o),
(339,-19,cs),
(412,-19,o),
(457,23,o),
(457,82,cs),
(457,143,o),
(411,182,o),
(347,182,cs),
(275,182,o),
(226,129,o),
(213,48,c),
(265,48,l),
(273,93,o),
(300,131,o),
(346,131,cs),
(376,131,o),
(400,116,o),
(400,83,cs),
(400,54,o),
(379,35,o),
(344,35,cs),
(245,35,o),
(166,130,o),
(166,309,cs),
(166,445,o),
(222,525,o),
(312,525,cs),
(386,525,o),
(437,473,o),
(434,377,c),
(508,377,l),
(506,474,o),
(556,525,o),
(630,525,cs),
(699,525,o),
(743,483,o),
(743,418,cs),
(743,379,o),
(729,347,o),
(704,318,c),
(768,273,l),
(808,320,o),
(826,364,o),
(826,418,cs)
);
}
);
width = 879;
},
{
anchors = (
{
name = Anchor13;
pos = (681,653);
},
{
name = Anchor14;
pos = (903,441);
},
{
name = Anchor16;
pos = (829,272);
},
{
name = Anchor17;
pos = (870,272);
}
);
layerId = "0A718E2F-231D-484E-9433-16A5230D2CE8";
shapes = (
{
closed = 1;
nodes = (
(903,567,o),
(812,653,o),
(681,653,cs),
(540,653,o),
(447,560,o),
(447,414,c),
(554,414,l),
(554,560,o),
(467,653,o),
(331,653,cs),
(168,653,o),
(65,529,o),
(65,330,cs),
(65,107,o),
(197,-29,o),
(377,-29,cs),
(477,-29,o),
(534,26,o),
(534,104,cs),
(534,184,o),
(475,234,o),
(392,234,cs),
(302,234,o),
(238,164,o),
(227,64,c),
(309,64,l),
(314,104,o),
(340,151,o),
(390,151,cs),
(414,151,o),
(440,140,o),
(440,104,cs),
(440,78,o),
(423,61,o),
(395,61,cs),
(312,61,o),
(247,147,o),
(247,332,cs),
(247,446,o),
(287,511,o),
(349,511,cs),
(397,511,o),
(430,475,o),
(424,391,c),
(577,391,l),
(571,478,o),
(606,511,o),
(656,511,cs),
(697,511,o),
(727,484,o),
(727,442,cs),
(727,410,o),
(716,388,o),
(692,364,c),
(829,269,l),
(884,332,o),
(903,379,o),
(903,441,cs)
);
}
);
width = 945;
},
{
anchors = (
{
name = Anchor13;
pos = (614,556);
},
{
name = Anchor14;
pos = (777,403);
},
{
name = Anchor16;
pos = (730,275);
},
{
name = Anchor17;
pos = (720,275);
}
);
layerId = "AB666A95-3AF9-4DE8-B258-097FFCFE8A59";
shapes = (
{
closed = 1;
nodes = (
(777,494,o),
(715,556,o),
(614,556,cs),
(511,556,o),
(444,484,o),
(445,368,c),
(460,368,l),
(461,483,o),
(394,556,o),
(289,556,cs),
(165,556,o),
(90,457,o),
(90,294,cs),
(90,105,o),
(182,-10,o),
(304,-10,cs),
(354,-10,o),
(386,19,o),
(386,62,cs),
(386,105,o),
(354,133,o),
(304,133,cs),
(252,133,o),
(214,95,o),
(201,33,c),
(224,33,l),
(234,82,o),
(264,112,o),
(304,112,cs),
(340,112,o),
(363,94,o),
(363,63,cs),
(363,32,o),
(339,12,o),
(303,12,cs),
(197,12,o),
(114,117,o),
(114,294,cs),
(114,444,o),
(180,534,o),
(289,534,cs),
(380,534,o),
(441,471,o),
(441,368,c),
(464,368,l),
(464,471,o),
(524,534,o),
(614,534,cs),
(701,534,o),
(753,482,o),
(753,403,cs),
(753,360,o),
(737,321,o),
(711,289,c),
(730,275,l),
(760,312,o),
(777,354,o),
(777,403,cs)
);
}
);
width = 837;
}
);
metricLeft = "=gFinal_cham";
metricRight = dha_cham;
note = uniAA08;
production = uniAA08;
script = cham;
subCategory = Spacing;
unicode = 43528;
},
{
category = Letter;
glyphname = gha_cham;
kernLeft = dha;
kernRight = dha;
layers = (
{
anchors = (
{
name = Anchor13;
pos = (1119,594);
},
{
name = Anchor14;
pos = (1303,418);
},
{
name = Anchor16;
pos = (1244,275);
},
{
name = Anchor17;
pos = (1244,275);
}
);
layerId = "9FF96064-8718-4A86-A5C8-73C592101F67";
shapes = (
{
closed = 1;
nodes = (
(1303,523,o),
(1230,594,o),
(1119,594,cs),
(1008,594,o),
(930,517,o),
(930,389,c),
(981,389,l),
(982,517,o),
(903,594,o),
(790,594,cs),
(680,594,o),
(611,531,o),
(611,439,cs),
(611,403,o),
(624,368,o),
(624,346,cs),
(624,236,o),
(468,241,o),
(468,122,cs),
(468,89,o),
(475,67,o),
(503,39,c),
(503,52,l),
(497,52,o),
(490,52,o),
(484,52,cs),
(416,52,o),
(373,101,o),
(373,170,cs),
(373,251,o),
(439,319,o),
(439,417,cs),
(439,526,o),
(361,594,o),
(249,594,cs),
(132,594,o),
(53,525,o),
(53,419,cs),
(53,368,o),
(74,316,o),
(116,276,c),
(178,324,l),
(154,349,o),
(137,384,o),
(137,421,cs),
(137,486,o),
(181,525,o),
(248,525,cs),
(314,525,o),
(353,481,o),
(353,414,cs),
(353,329,o),
(287,262,o),
(287,170,cs),
(287,61,o),
(370,-17,o),
(499,-17,cs),
(523,-17,o),
(547,-17,o),
(564,-16,c),
(586,37,l),
(562,65,o),
(551,82,o),
(551,111,cs),
(551,204,o),
(710,199,o),
(710,335,cs),
(710,367,o),
(697,396,o),
(697,428,cs),
(697,487,o),
(736,525,o),
(803,525,cs),
(873,525,o),
(921,477,o),
(919,379,c),
(993,379,l),
(990,479,o),
(1042,525,o),
(1109,525,cs),
(1177,525,o),
(1218,483,o),
(1218,418,cs),
(1218,379,o),
(1206,347,o),
(1180,320,c),
(1244,273,l),
(1286,318,o),
(1303,363,o),
(1303,418,cs)
);
}
);
userData = {
RMXScaler = {
verticalShift = -124;
};
};
width = 1356;
},
{
anchors = (
{
name = Anchor13;
pos = (1227,653);
},
{
name = Anchor14;
pos = (1450,441);
},
{
name = Anchor16;
pos = (1373,275);
},
{
name = Anchor17;
pos = (1373,275);
}
);
layerId = "0A718E2F-231D-484E-9433-16A5230D2CE8";
shapes = (
{
closed = 1;
nodes = (
(1450,567,o),
(1359,653,o),
(1227,653,cs),
(1088,653,o),
(995,560,o),
(995,414,c),
(1102,414,l),
(1102,560,o),
(1004,653,o),
(865,653,cs),
(733,653,o),
(651,579,o),
(651,475,cs),
(651,437,o),
(663,401,o),
(663,376,cs),
(663,276,o),
(520,280,o),
(520,144,cs),
(520,112,o),
(527,91,o),
(559,68,c),
(542,106,l),
(538,106,o),
(533,106,o),
(531,106,cs),
(503,106,o),
(481,150,o),
(481,193,cs),
(481,269,o),
(551,340,o),
(551,445,cs),
(551,573,o),
(446,653,o),
(299,653,cs),
(145,653,o),
(42,567,o),
(42,437,cs),
(42,381,o),
(63,320,o),
(121,269,c),
(254,368,l),
(233,387,o),
(220,413,o),
(220,441,cs),
(220,485,o),
(251,511,o),
(296,511,cs),
(344,511,o),
(369,476,o),
(369,437,cs),
(369,355,o),
(299,287,o),
(299,189,cs),
(299,69,o),
(404,-29,o),
(568,-29,cs),
(600,-29,o),
(631,-28,o),
(650,-25,c),
(689,66,l),
(667,91,o),
(658,105,o),
(658,126,cs),
(658,224,o),
(837,210,o),
(837,356,cs),
(837,394,o),
(825,423,o),
(825,446,cs),
(825,486,o),
(853,511,o),
(897,511,cs),
(946,511,o),
(978,476,o),
(972,391,c),
(1125,391,l),
(1119,478,o),
(1155,511,o),
(1203,511,cs),
(1244,511,o),
(1272,484,o),
(1272,443,cs),
(1272,412,o),
(1261,390,o),
(1237,367,c),
(1373,272,l),
(1430,329,o),
(1450,379,o),
(1450,441,cs)
);
}
);
userData = {
RMXScaler = {
verticalShift = -82;
};
};
width = 1492;
},
{
anchors = (
{
name = Anchor13;
pos = (1049,556);
},
{
name = Anchor14;
pos = (1208,403);
},
{
name = Anchor16;
pos = (1161,275);
},
{
name = Anchor17;
pos = (1161,275);
}
);
layerId = "AB666A95-3AF9-4DE8-B258-097FFCFE8A59";
shapes = (
{
closed = 1;
nodes = (
(1208,494,o),
(1148,556,o),
(1049,556,cs),
(956,556,o),
(889,490,o),
(889,374,c),
(904,374,l),
(905,490,o),
(837,556,o),
(742,556,cs),
(647,556,o),
(588,500,o),
(588,416,cs),
(588,377,o),
(603,339,o),
(603,313,cs),
(603,196,o),
(429,210,o),
(429,94,cs),
(429,64,o),
(441,38,o),
(464,4,c),
(467,12,l),
(462,12,o),
(459,12,o),
(454,12,c),
(360,12,o),
(303,66,o),
(303,156,cs),
(303,240,o),
(367,306,o),
(367,400,cs),
(367,496,o),
(307,556,o),
(217,556,cs),
(124,556,o),
(60,498,o),
(60,408,cs),
(60,360,o),
(81,313,o),
(113,280,c),
(130,295,l),
(103,324,o),
(84,365,o),
(84,408,cs),
(84,487,o),
(136,534,o),
(217,534,cs),
(295,534,o),
(343,485,o),
(343,400,cs),
(343,313,o),
(279,246,o),
(279,157,cs),
(279,55,o),
(348,-10,o),
(454,-10,c),
(465,-10,o),
(477,-10,o),
(488,-10,c),
(493,3,l),
(466,35,o),
(453,65,o),
(453,94,cs),
(453,200,o),
(626,179,o),
(626,313,cs),
(626,345,o),
(612,377,o),
(612,417,cs),
(612,489,o),
(659,534,o),
(743,534,cs),
(825,534,o),
(885,478,o),
(885,372,c),
(908,372,l),
(908,481,o),
(969,534,o),
(1049,534,cs),
(1133,534,o),
(1184,482,o),
(1184,403,cs),
(1184,359,o),
(1170,319,o),
(1144,290,c),
(1161,275,l),
(1193,310,o),
(1208,353,o),
(1208,403,cs)
);
}
);
userData = {
RMXScaler = {
verticalShift = -151;
};
};
width = 1268;
}
);
metricLeft = dha_cham;
metricRight = dha_cham;
note = uniAA09;
production = uniAA09;
script = cham;
subCategory = Spacing;
unicode = 43529;
userData = {
RMXScaler = {
source = "gha-cham";
};
};
},
{
category = Letter;
glyphname = ngue_cham;
kernLeft = dha;
kernRight = dha;
layers = (
{
anchors = (
{
name = Anchor13;
pos = (808,594);
},
{
name = Anchor14;
pos = (1022,418);
},
{
name = Anchor16;
pos = (951,274);
},
{
name = Anchor17;
pos = (951,274);
}
);
layerId = "9FF96064-8718-4A86-A5C8-73C592101F67";
shapes = (
{
closed = 1;
nodes = (
(1023,516,o),
(935,594,o),
(808,594,cs),
(679,594,o),
(592,516,o),
(592,401,cs),
(592,301,o),
(660,229,o),
(749,229,cs),
(808,229,o),
(844,263,o),
(844,314,cs),
(844,362,o),
(810,393,o),
(756,393,cs),
(682,393,o),
(637,353,o),
(634,284,cs),
(632,251,o),
(633,217,o),
(631,195,cs),
(621,100,o),
(556,64,o),
(420,43,c),
(404,-18,l),
(475,41,o),
(507,107,o),
(507,175,cs),
(507,262,o),
(442,316,o),
(357,316,cs),
(340,316,o),
(322,313,o),
(304,309,c),
(325,264,l),
(399,291,o),
(441,357,o),
(441,426,cs),
(441,527,o),
(360,594,o),
(248,594,cs),
(132,594,o),
(53,524,o),
(53,420,cs),
(53,368,o),
(74,315,o),
(117,275,c),
(180,323,l),
(154,347,o),
(137,383,o),
(137,421,cs),
(137,485,o),
(181,525,o),
(247,525,cs),
(313,525,o),
(355,482,o),
(355,422,cs),
(355,371,o),
(325,325,o),
(271,302,c),
(286,252,l),
(301,256,o),
(317,259,o),
(331,259,cs),
(383,259,o),
(421,224,o),
(421,162,cs),
(421,109,o),
(399,65,o),
(350,5,c),
(370,-46,l),
(614,-5,o),
(702,49,o),
(709,199,cs),
(710,228,o),
(703,265,o),
(705,291,cs),
(707,326,o),
(728,347,o),
(756,347,cs),
(779,347,o),
(795,335,o),
(795,313,cs),
(795,290,o),
(779,275,o),
(755,275,cs),
(708,275,o),
(672,321,o),
(672,397,cs),
(672,478,o),
(722,525,o),
(803,525,cs),
(884,525,o),
(939,478,o),
(939,402,cs),
(939,358,o),
(919,317,o),
(889,289,c),
(951,241,l),
(999,286,o),
(1023,344,o),
(1023,400,cs)
);
}
);
userData = {
RMXScaler = {
verticalShift = -124;
};
};
width = 1076;
},
{
anchors = (
{
name = Anchor13;
pos = (943,653);
},
{
name = Anchor14;
pos = (1222,441);
},
{
name = Anchor16;
pos = (1137,272);
},
{
name = Anchor17;
pos = (1187,272);
}
);
layerId = "0A718E2F-231D-484E-9433-16A5230D2CE8";
shapes = (
{
closed = 1;
nodes = (
(1223,558,o),
(1109,653,o),
(943,653,cs),
(776,653,o),
(662,558,o),
(662,415,cs),
(662,293,o),
(745,212,o),
(855,212,cs),
(937,212,o),
(980,252,o),
(980,320,cs),
(980,380,o),
(939,421,o),
(870,421,cs),
(763,421,o),
(700,370,o),
(700,282,cs),
(700,257,o),
(699,222,o),
(697,211,cs),
(687,144,o),
(630,121,o),
(504,104,c),
(490,5,l),
(582,66,o),
(616,138,o),
(616,207,cs),
(616,310,o),
(532,363,o),
(428,363,cs),
(404,363,o),
(379,360,o),
(354,355,c),
(399,256,l),
(496,289,o),
(551,368,o),
(551,449,cs),
(551,573,o),
(446,653,o),
(299,653,cs),
(145,653,o),
(42,567,o),
(42,437,cs),
(42,381,o),
(63,320,o),
(121,269,c),
(254,368,l),
(233,387,o),
(220,413,o),
(220,441,cs),
(220,485,o),
(251,511,o),
(296,511,cs),
(344,511,o),
(369,476,o),
(369,437,cs),
(369,390,o),
(337,355,o),
(278,336,c),
(312,236,l),
(328,243,o),
(346,247,o),
(363,247,cs),
(400,247,o),
(438,227,o),
(438,175,cs),
(438,125,o),
(420,92,o),
(367,24,c),
(396,-61,l),
(736,-3,o),
(828,49,o),
(833,220,cs),
(834,254,o),
(832,281,o),
(832,304,c),
(832,328,o),
(848,343,o),
(867,343,cs),
(884,343,o),
(897,333,o),
(897,317,cs),
(897,302,o),
(887,289,o),
(867,289,cs),
(842,289,o),
(821,324,o),
(821,406,cs),
(821,478,o),
(867,511,o),
(933,511,cs),
(998,511,o),
(1045,478,o),
(1045,419,cs),
(1045,385,o),
(1029,353,o),
(1004,330,c),
(1137,231,l),
(1200,287,o),
(1223,354,o),
(1223,415,cs)
);
}
);
userData = {
RMXScaler = {
verticalShift = -82;
};
};
width = 1265;
},
{
anchors = (
{
name = Anchor13;
pos = (717,556);
},
{
name = Anchor14;
pos = (891,403);
},
{
name = Anchor16;
pos = (829,276);
},
{
name = Anchor17;
pos = (829,276);
}
);
layerId = "AB666A95-3AF9-4DE8-B258-097FFCFE8A59";
shapes = (
{
closed = 1;
nodes = (
(891,489,o),
(820,556,o),
(717,556,cs),
(614,556,o),
(543,488,o),
(543,391,cs),
(543,307,o),
(598,243,o),
(667,243,cs),
(707,243,o),
(739,271,o),
(739,309,cs),
(739,347,o),
(709,373,o),
(667,373,cs),
(621,373,o),
(590,339,o),
(583,286,cs),
(578,246,o),
(578,205,o),
(575,178,cs),
(564,62,o),
(492,12,o),
(347,-13,c),
(355,-30,l),
(406,27,o),
(435,89,o),
(435,154,cs),
(435,231,o),
(385,285,o),
(311,285,cs),
(299,285,o),
(286,283,o),
(272,280,c),
(278,269,l),
(337,293,o),
(370,350,o),
(370,412,cs),
(370,498,o),
(306,556,o),
(215,556,cs),
(124,556,o),
(60,496,o),
(60,409,cs),
(60,360,o),
(81,312,o),
(115,280,c),
(132,295,l),
(103,322,o),
(84,364,o),
(84,409,cs),
(84,484,o),
(136,534,o),
(215,534,cs),
(294,534,o),
(346,486,o),
(346,412,cs),
(346,358,o),
(318,306,o),
(266,280,c),
(270,262,l),
(285,265,o),
(298,266,o),
(311,266,cs),
(373,266,o),
(411,222,o),
(411,154,cs),
(411,95,o),
(385,38,o),
(340,-14,c),
(351,-33,l),
(506,-8,o),
(588,48,o),
(598,179,cs),
(600,206,o),
(601,252,o),
(604,279,cs),
(609,323,o),
(631,352,o),
(668,352,cs),
(698,352,o),
(716,337,o),
(716,309,cs),
(716,281,o),
(696,264,o),
(667,264,cs),
(610,264,o),
(567,317,o),
(567,391,cs),
(567,477,o),
(626,534,o),
(717,534,cs),
(808,534,o),
(867,478,o),
(867,391,cs),
(867,341,o),
(845,293,o),
(812,263,c),
(829,248,l),
(867,284,o),
(891,337,o),
(891,391,cs)
);
}
);
userData = {
RMXScaler = {
verticalShift = -151;
};
};
width = 951;
}
);
metricLeft = dha_cham;
metricRight = dha_cham;
note = uniAA0A;
production = uniAA0A;
script = cham;
subCategory = Spacing;
unicode = 43530;
userData = {
RMXScaler = {
source = "ngue-cham";
};
};
},
{
category = Letter;
glyphname = nga_cham;
kernLeft = dha;
kernRight = dha;
layers = (
{
anchors = (
{
name = Anchor13;
pos = (810,594);
},
{
name = Anchor14;
pos = (1024,418);
},
{
name = Anchor16;
pos = (953,274);
},
{
name = Anchor17;
pos = (973,274);
}
);
layerId = "9FF96064-8718-4A86-A5C8-73C592101F67";
shapes = (
{
closed = 1;
nodes = (
(1025,516,o),
(937,594,o),
(810,594,cs),
(681,594,o),
(594,516,o),
(594,401,cs),
(594,301,o),
(663,228,o),
(755,228,cs),
(815,228,o),
(852,262,o),
(852,314,cs),
(852,363,o),
(817,395,o),
(762,395,cs),
(686,395,o),
(641,354,o),
(637,284,cs),
(636,267,o),
(633,246,o),
(633,231,cs),
(633,141,o),
(624,103,o),
(580,79,cs),
(544,60,o),
(478,44,o),
(425,24,c),
(420,-4,l),
(481,42,o),
(507,116,o),
(507,176,cs),
(507,262,o),
(443,315,o),
(357,315,cs),
(340,315,o),
(322,313,o),
(304,309,c),
(325,264,l),
(399,291,o),
(441,357,o),
(441,426,cs),
(441,527,o),
(360,594,o),
(248,594,cs),
(132,594,o),
(53,524,o),
(53,420,cs),
(53,368,o),
(74,315,o),
(117,275,c),
(180,323,l),
(154,347,o),
(137,383,o),
(137,421,cs),
(137,485,o),
(181,525,o),
(247,525,cs),
(313,525,o),
(355,482,o),
(355,422,cs),
(355,370,o),
(325,325,o),
(271,302,c),
(286,252,l),
(301,256,o),
(317,259,o),
(331,259,cs),
(383,259,o),
(421,224,o),
(421,162,cs),
(421,101,o),
(399,35,o),
(327,-23,cs),
(259,-78,o),
(226,-124,o),
(226,-183,cs),
(226,-251,o),
(280,-299,o),
(345,-299,cs),
(467,-299,o),
(485,-149,o),
(549,-149,cs),
(571,-149,o),
(584,-162,o),
(584,-183,cs),
(584,-195,o),
(579,-209,o),
(570,-222,c),
(638,-253,l),
(656,-228,o),
(665,-195,o),
(665,-172,cs),
(665,-119,o),
(622,-76,o),
(564,-76,cs),
(442,-76,o),
(424,-224,o),
(356,-224,cs),
(327,-224,o),
(310,-197,o),
(310,-172,cs),
(310,-143,o),
(328,-101,o),
(395,-64,cs),
(468,-24,o),
(542,-19,o),
(606,8,cs),
(681,39,o),
(706,87,o),
(710,210,cs),
(711,241,o),
(710,267,o),
(711,291,cs),
(713,326,o),
(733,347,o),
(762,347,cs),
(785,347,o),
(801,335,o),
(801,313,cs),
(801,291,o),
(785,276,o),
(761,276,cs),
(713,276,o),
(676,321,o),
(676,397,cs),
(676,478,o),
(728,525,o),
(805,525,cs),
(886,525,o),
(941,478,o),
(941,402,cs),
(941,358,o),
(921,317,o),
(891,289,c),
(953,241,l),
(1001,286,o),
(1025,344,o),
(1025,400,cs)
);
}
);
userData = {
RMXScaler = {
verticalShift = -124;
};
};
width = 1078;
},
{
anchors = (
{
name = Anchor13;
pos = (943,653);
},
{
name = Anchor14;
pos = (1222,441);
},
{
name = Anchor16;
pos = (1137,272);
},
{
name = Anchor17;
pos = (1197,272);
}
);
layerId = "0A718E2F-231D-484E-9433-16A5230D2CE8";
shapes = (
{
closed = 1;
nodes = (
(1223,558,o),
(1109,653,o),
(943,653,cs),
(776,653,o),
(662,558,o),
(662,415,cs),
(662,293,o),
(745,212,o),
(855,212,cs),
(937,212,o),
(980,252,o),
(980,320,cs),
(980,380,o),
(939,421,o),
(870,421,cs),
(763,421,o),
(700,370,o),
(700,282,cs),
(700,271,o),
(701,256,o),
(701,250,cs),
(701,201,o),
(698,149,o),
(663,127,cs),
(639,112,o),
(553,89,o),
(495,73,c),
(490,30,l),
(583,84,o),
(616,145,o),
(616,209,cs),
(616,310,o),
(532,363,o),
(428,363,cs),
(404,363,o),
(379,360,o),
(354,355,c),
(399,256,l),
(496,289,o),
(551,368,o),
(551,449,cs),
(551,573,o),
(446,653,o),
(299,653,cs),
(145,653,o),
(42,567,o),
(42,437,cs),
(42,381,o),
(63,320,o),
(121,269,c),
(254,368,l),
(233,387,o),
(220,413,o),
(220,441,cs),
(220,485,o),
(251,511,o),
(296,511,cs),
(344,511,o),
(369,476,o),
(369,437,cs),
(369,390,o),
(337,355,o),
(278,336,c),
(312,236,l),
(328,243,o),
(346,247,o),
(363,247,cs),
(400,247,o),
(438,226,o),
(438,168,cs),
(438,126,o),
(425,63,o),
(360,-6,cs),
(285,-85,o),
(239,-135,o),
(239,-209,cs),
(239,-294,o),
(314,-346,o),
(398,-346,cs),
(532,-346,o),
(562,-215,o),
(607,-215,cs),
(623,-215,o),
(632,-223,o),
(632,-238,cs),
(632,-248,o),
(629,-258,o),
(622,-269,c),
(743,-320,l),
(767,-288,o),
(775,-242,o),
(775,-215,cs),
(775,-144,o),
(717,-84,o),
(634,-84,cs),
(518,-84,o),
(460,-214,o),
(417,-214,cs),
(400,-214,o),
(387,-199,o),
(387,-181,cs),
(387,-161,o),
(403,-129,o),
(462,-91,cs),
(547,-36,o),
(633,-25,o),
(706,0,cs),
(800,32,o),
(834,83,o),
(834,207,cs),
(834,244,o),
(832,273,o),
(832,304,cs),
(832,328,o),
(848,343,o),
(867,343,cs),
(884,343,o),
(897,333,o),
(897,317,cs),
(897,302,o),
(887,289,o),
(867,289,cs),
(842,289,o),
(821,324,o),
(821,406,cs),
(821,478,o),
(867,511,o),
(933,511,cs),
(998,511,o),
(1045,478,o),
(1045,419,cs),
(1045,385,o),
(1029,353,o),
(1004,330,c),
(1137,231,l),
(1200,287,o),
(1223,354,o),
(1223,415,cs)
);
}
);
userData = {
RMXScaler = {
verticalShift = -82;
};
};
width = 1265;
},
{
anchors = (
{
name = Anchor13;
pos = (717,556);
},
{
name = Anchor14;
pos = (890,403);
},
{
name = Anchor16;
pos = (829,276);
},
{
name = Anchor17;
pos = (839,276);
}
);
layerId = "AB666A95-3AF9-4DE8-B258-097FFCFE8A59";
shapes = (
{
closed = 1;
nodes = (
(891,489,o),
(820,556,o),
(717,556,cs),
(614,556,o),
(543,488,o),
(543,391,cs),
(543,307,o),
(598,243,o),
(667,243,cs),
(707,243,o),
(739,271,o),
(739,309,cs),
(739,347,o),
(709,373,o),
(667,373,cs),
(621,373,o),
(589,339,o),
(583,286,cs),
(580,263,o),
(577,236,o),
(576,203,cs),
(572,110,o),
(563,69,o),
(501,40,cs),
(461,21,o),
(414,13,o),
(364,-15,c),
(364,-25,l),
(415,14,o),
(435,96,o),
(435,154,cs),
(435,231,o),
(385,285,o),
(311,285,cs),
(299,285,o),
(286,283,o),
(272,280,c),
(278,269,l),
(337,293,o),
(370,350,o),
(370,412,cs),
(370,498,o),
(306,556,o),
(215,556,cs),
(124,556,o),
(60,496,o),
(60,409,cs),
(60,360,o),
(81,312,o),
(115,280,c),
(132,295,l),
(103,322,o),
(84,364,o),
(84,409,cs),
(84,484,o),
(136,534,o),
(215,534,cs),
(294,534,o),
(346,486,o),
(346,412,cs),
(346,358,o),
(318,306,o),
(266,280,c),
(270,262,l),
(285,265,o),
(298,266,o),
(311,266,cs),
(373,266,o),
(411,222,o),
(411,154,cs),
(411,75,o),
(374,1,o),
(323,-34,cs),
(254,-81,o),
(219,-120,o),
(219,-168,cs),
(219,-212,o),
(253,-248,o),
(302,-248,cs),
(411,-248,o),
(420,-82,o),
(501,-82,cs),
(528,-82,o),
(545,-100,o),
(545,-124,cs),
(545,-139,o),
(538,-157,o),
(527,-171,c),
(545,-185,l),
(560,-166,o),
(569,-144,o),
(569,-124,cs),
(569,-89,o),
(540,-60,o),
(503,-60,cs),
(403,-60,o),
(394,-226,o),
(303,-226,cs),
(264,-226,o),
(243,-199,o),
(243,-167,cs),
(243,-131,o),
(267,-100,o),
(336,-53,cs),
(399,-10,o),
(456,-5,o),
(509,19,cs),
(581,52,o),
(593,95,o),
(598,198,cs),
(600,237,o),
(602,262,o),
(604,279,cs),
(608,323,o),
(631,352,o),
(668,352,cs),
(698,352,o),
(716,337,o),
(716,309,cs),
(716,281,o),
(696,264,o),
(667,264,cs),
(610,264,o),
(567,317,o),
(567,391,cs),
(567,477,o),
(626,534,o),
(717,534,cs),
(808,534,o),
(867,478,o),
(867,391,cs),
(867,341,o),
(845,293,o),
(812,263,c),
(829,248,l),
(867,284,o),
(891,337,o),
(891,391,cs)
);
}
);
userData = {
RMXScaler = {
verticalShift = -151;
};
};
width = 951;
}
);
metricLeft = dha_cham;
metricRight = dha_cham;
note = uniAA0B;
production = uniAA0B;
script = cham;
subCategory = Spacing;
unicode = 43531;
userData = {
RMXScaler = {
source = "nga-cham";
};
};
},
{
category = Letter;
glyphname = cha_cham;
kernLeft = cha;
kernRight = dha;
layers = (
{
anchors = (
{
name = Anchor13;
pos = (744,594);
},
{
name = Anchor14;
pos = (928,418);
},
{
name = Anchor16;
pos = (869,274);
},
{
name = Anchor17;
pos = (869,274);
}
);
layerId = "9FF96064-8718-4A86-A5C8-73C592101F67";
shapes = (
{
closed = 1;
nodes = (
(928,523,o),
(855,594,o),
(744,594,cs),
(650,594,o),
(580,550,o),
(562,449,cs),
(543,344,o),
(506,330,o),
(396,312,cs),
(250,288,o),
(156,218,o),
(156,112,cs),
(156,31,o),
(208,-17,o),
(289,-17,cs),
(408,-17,o),
(487,103,o),
(487,286,cs),
(487,481,o),
(393,594,o),
(249,594,cs),
(132,594,o),
(61,527,o),
(61,435,cs),
(61,379,o),
(84,332,o),
(118,302,c),
(174,347,l),
(156,367,o),
(142,395,o),
(142,429,cs),
(142,487,o),
(183,525,o),
(251,525,cs),
(344,525,o),
(403,442,o),
(403,290,cs),
(403,142,o),
(357,51,o),
(289,51,cs),
(256,51,o),
(239,78,o),
(239,115,cs),
(239,175,o),
(286,228,o),
(434,255,cs),
(569,280,o),
(616,307,o),
(634,418,cs),
(645,487,o),
(680,525,o),
(739,525,cs),
(805,525,o),
(844,484,o),
(844,418,cs),
(844,380,o),
(831,347,o),
(806,320,c),
(869,274,l),
(911,318,o),
(928,363,o),
(928,417,cs)
);
}
);
userData = {
RMXScaler = {
verticalShift = -124;
};
};
width = 981;
},
{
anchors = (
{
name = Anchor13;
pos = (834,653);
},
{
name = Anchor14;
pos = (1062,441);
},
{
name = Anchor16;
pos = (985,272);
},
{
name = Anchor17;
pos = (985,272);
}
);
layerId = "0A718E2F-231D-484E-9433-16A5230D2CE8";
shapes = (
{
closed = 1;
nodes = (
(1062,567,o),
(972,653,o),
(834,653,cs),
(721,653,o),
(636,608,o),
(611,490,cs),
(586,374,o),
(540,359,o),
(439,352,cs),
(271,340,o),
(147,267,o),
(147,143,cs),
(147,34,o),
(222,-29,o),
(330,-29,cs),
(475,-29,o),
(577,101,o),
(577,296,cs),
(577,524,o),
(463,653,o),
(286,653,cs),
(147,653,o),
(56,578,o),
(56,470,cs),
(56,395,o),
(91,339,o),
(137,309,c),
(251,404,l),
(241,411,o),
(228,429,o),
(228,455,cs),
(228,494,o),
(259,511,o),
(290,511,cs),
(359,511,o),
(400,443,o),
(400,305,cs),
(400,179,o),
(369,109,o),
(333,109,cs),
(312,109,o),
(301,125,o),
(301,149,cs),
(301,187,o),
(333,228,o),
(512,255,cs),
(658,277,o),
(712,310,o),
(733,415,cs),
(746,479,o),
(766,511,o),
(816,511,cs),
(857,511,o),
(884,484,o),
(884,443,cs),
(884,412,o),
(873,390,o),
(849,367,c),
(985,272,l),
(1042,329,o),
(1062,379,o),
(1062,441,cs)
);
}
);
userData = {
RMXScaler = {
verticalShift = -82;
};
};
width = 1104;
},
{
anchors = (
{
name = Anchor13;
pos = (686,556);
},
{
name = Anchor14;
pos = (842,403);
},
{
name = Anchor16;
pos = (795,275);
},
{
name = Anchor17;
pos = (795,275);
}
);
layerId = "AB666A95-3AF9-4DE8-B258-097FFCFE8A59";
shapes = (
{
closed = 1;
nodes = (
(842,494,o),
(781,556,o),
(686,556,cs),
(603,556,o),
(543,509,o),
(529,415,cs),
(514,316,o),
(485,304,o),
(367,274,cs),
(243,243,o),
(174,174,o),
(174,82,cs),
(174,26,o),
(206,-10,o),
(262,-10,cs),
(366,-10,o),
(430,104,o),
(430,280,cs),
(430,453,o),
(348,556,o),
(225,556,cs),
(122,556,o),
(64,495,o),
(64,412,cs),
(64,368,o),
(80,328,o),
(106,297,c),
(124,311,l),
(102,338,o),
(88,373,o),
(88,412,cs),
(88,483,o),
(135,534,o),
(226,534,cs),
(334,534,o),
(406,441,o),
(406,280,cs),
(406,116,o),
(350,12,o),
(261,12,cs),
(221,12,o),
(198,43,o),
(198,83,cs),
(198,163,o),
(258,225,o),
(375,254,cs),
(499,285,o),
(537,304,o),
(552,411,cs),
(564,494,o),
(616,534,o),
(685,534,cs),
(770,534,o),
(818,483,o),
(818,402,cs),
(818,359,o),
(804,319,o),
(778,290,c),
(795,275,l),
(827,310,o),
(842,353,o),
(842,402,cs)
);
}
);
userData = {
RMXScaler = {
verticalShift = -151;
};
};
width = 902;
}
);
metricRight = dha_cham;
note = uniAA0C;
production = uniAA0C;
script = cham;
subCategory = Spacing;
unicode = 43532;
userData = {
RMXScaler = {
source = "cha-cham";
};
};
},
{
category = Letter;
glyphname = chha_cham;
kernLeft = cha;
kernRight = dha;
layers = (
{
anchors = (
{
name = Anchor13;
pos = (1333,594);
},
{
name = Anchor14;
pos = (1522,418);
},
{
name = Anchor16;
pos = (1458,274);
},
{
name = Anchor17;
pos = (1468,274);
}
);
layerId = "9FF96064-8718-4A86-A5C8-73C592101F67";
shapes = (
{
closed = 1;
nodes = (
(1522,525,o),
(1447,594,o),
(1333,594,cs),
(1219,594,o),
(1146,533,o),
(1146,442,cs),
(1146,377,o),
(1184,321,o),
(1184,274,cs),
(1184,224,o),
(1144,189,o),
(1095,189,cs),
(1050,189,o),
(1020,208,o),
(1020,237,cs),
(1020,259,o),
(1036,270,o),
(1057,270,cs),
(1095,270,o),
(1116,238,o),
(1116,181,cs),
(1116,95,o),
(1066,50,o),
(986,50,cs),
(902,50,o),
(852,102,o),
(852,175,cs),
(852,252,o),
(930,320,o),
(930,422,cs),
(930,526,o),
(854,594,o),
(744,594,c),
(650,594,o),
(580,550,o),
(562,449,cs),
(543,344,o),
(506,330,o),
(396,312,cs),
(250,288,o),
(156,218,o),
(156,112,cs),
(156,31,o),
(208,-17,o),
(289,-17,cs),
(408,-17,o),
(487,103,o),
(487,286,cs),
(487,481,o),
(394,594,o),
(250,594,cs),
(132,594,o),
(61,527,o),
(61,435,cs),
(61,378,o),
(85,332,o),
(119,302,c),
(174,347,l),
(157,366,o),
(143,395,o),
(143,428,cs),
(143,487,o),
(184,525,o),
(252,525,cs),
(344,525,o),
(403,442,o),
(403,290,cs),
(403,142,o),
(357,51,o),
(289,51,cs),
(256,51,o),
(239,78,o),
(239,115,cs),
(239,175,o),
(286,228,o),
(434,255,cs),
(569,280,o),
(615,307,o),
(634,418,cs),
(646,487,o),
(680,525,o),
(739,525,c),
(807,525,o),
(844,483,o),
(844,415,cs),
(844,332,o),
(766,263,o),
(766,170,cs),
(766,59,o),
(846,-17,o),
(976,-17,cs),
(1101,-17,o),
(1178,55,o),
(1178,177,cs),
(1178,260,o),
(1125,313,o),
(1058,313,cs),
(1007,313,o),
(970,285,o),
(970,236,cs),
(970,180,o),
(1024,144,o),
(1101,144,cs),
(1185,144,o),
(1256,196,o),
(1256,277,cs),
(1256,327,o),
(1226,379,o),
(1226,427,cs),
(1226,488,o),
(1267,525,o),
(1333,525,cs),
(1397,525,o),
(1438,487,o),
(1438,421,cs),
(1438,383,o),
(1421,348,o),
(1394,321,c),
(1458,274,l),
(1501,319,o),
(1522,366,o),
(1522,421,cs)
);
}
);
userData = {
RMXScaler = {
verticalShift = -124;
};
};
width = 1575;
},
{
anchors = (
{
name = Anchor13;
pos = (1480,653);
},
{
name = Anchor14;
pos = (1730,441);
},
{
name = Anchor16;
pos = (1655,272);
},
{
name = Anchor17;
pos = (1705,272);
}
);
layerId = "0A718E2F-231D-484E-9433-16A5230D2CE8";
shapes = (
{
closed = 1;
nodes = (
(1730,567,o),
(1634,653,o),
(1480,653,cs),
(1329,653,o),
(1235,582,o),
(1235,480,cs),
(1235,406,o),
(1282,345,o),
(1282,297,cs),
(1282,263,o),
(1233,234,o),
(1200,234,cs),
(1160,234,o),
(1142,249,o),
(1142,268,cs),
(1142,285,o),
(1154,293,o),
(1168,293,cs),
(1197,293,o),
(1213,265,o),
(1213,212,cs),
(1213,137,o),
(1171,109,o),
(1107,109,cs),
(1033,109,o),
(991,151,o),
(991,208,cs),
(991,271,o),
(1069,343,o),
(1069,455,cs),
(1069,573,o),
(967,653,o),
(834,653,cs),
(721,653,o),
(636,608,o),
(611,490,cs),
(586,374,o),
(540,359,o),
(439,352,cs),
(271,340,o),
(147,267,o),
(147,143,cs),
(147,34,o),
(222,-29,o),
(330,-29,cs),
(475,-29,o),
(577,101,o),
(577,296,cs),
(577,524,o),
(463,653,o),
(286,653,cs),
(147,653,o),
(56,578,o),
(56,470,cs),
(56,395,o),
(91,339,o),
(137,309,c),
(251,404,l),
(241,411,o),
(228,429,o),
(228,455,cs),
(228,494,o),
(259,511,o),
(290,511,cs),
(359,511,o),
(400,443,o),
(400,305,cs),
(400,179,o),
(369,109,o),
(333,109,cs),
(312,109,o),
(301,125,o),
(301,149,cs),
(301,187,o),
(333,228,o),
(512,255,cs),
(658,277,o),
(712,310,o),
(733,415,cs),
(746,479,o),
(766,511,o),
(816,511,cs),
(864,511,o),
(887,479,o),
(887,438,cs),
(887,364,o),
(809,291,o),
(809,188,cs),
(809,59,o),
(910,-29,o),
(1081,-29,cs),
(1242,-29,o),
(1335,53,o),
(1335,203,cs),
(1335,305,o),
(1258,371,o),
(1170,371,cs),
(1100,371,o),
(1049,334,o),
(1049,267,cs),
(1049,195,o),
(1114,152,o),
(1216,152,cs),
(1319,152,o),
(1430,209,o),
(1430,306,cs),
(1430,358,o),
(1403,405,o),
(1403,443,cs),
(1403,485,o),
(1433,511,o),
(1480,511,cs),
(1523,511,o),
(1552,488,o),
(1552,442,cs),
(1552,414,o),
(1541,390,o),
(1517,367,c),
(1655,272,l),
(1711,334,o),
(1730,380,o),
(1730,443,cs)
);
}
);
userData = {
RMXScaler = {
verticalShift = -82;
};
};
width = 1772;
},
{
anchors = (
{
name = Anchor13;
pos = (1238,556);
},
{
name = Anchor14;
pos = (1388,404);
},
{
name = Anchor16;
pos = (1331,276);
},
{
name = Anchor17;
pos = (1331,276);
}
);
layerId = "AB666A95-3AF9-4DE8-B258-097FFCFE8A59";
shapes = (
{
closed = 1;
nodes = (
(1388,497,o),
(1327,556,o),
(1238,556,cs),
(1148,556,o),
(1088,501,o),
(1088,417,cs),
(1088,359,o),
(1121,305,o),
(1121,259,cs),
(1121,198,o),
(1087,160,o),
(1026,160,cs),
(977,160,o),
(941,182,o),
(941,216,cs),
(941,243,o),
(961,255,o),
(985,255,cs),
(1028,255,o),
(1054,221,o),
(1054,161,cs),
(1054,68,o),
(998,12,o),
(907,12,cs),
(817,12,o),
(761,70,o),
(761,155,cs),
(761,240,o),
(840,305,o),
(840,400,cs),
(840,496,o),
(781,556,o),
(688,556,cs),
(603,556,o),
(543,509,o),
(529,415,cs),
(514,316,o),
(485,304,o),
(367,274,cs),
(243,243,o),
(174,174,o),
(174,82,cs),
(174,26,o),
(206,-10,o),
(262,-10,cs),
(366,-10,o),
(430,104,o),
(430,280,cs),
(430,453,o),
(348,556,o),
(225,556,cs),
(122,556,o),
(64,495,o),
(64,412,cs),
(64,368,o),
(80,328,o),
(106,297,c),
(124,311,l),
(102,338,o),
(88,373,o),
(88,412,cs),
(88,483,o),
(135,534,o),
(226,534,cs),
(334,534,o),
(406,441,o),
(406,280,cs),
(406,116,o),
(350,12,o),
(261,12,cs),
(221,12,o),
(198,43,o),
(198,83,cs),
(198,163,o),
(258,225,o),
(375,254,cs),
(499,285,o),
(537,304,o),
(552,411,cs),
(564,494,o),
(616,534,o),
(687,534,cs),
(769,534,o),
(816,485,o),
(816,400,cs),
(816,312,o),
(737,246,o),
(737,158,cs),
(737,59,o),
(805,-10,o),
(907,-10,cs),
(1010,-10,o),
(1077,57,o),
(1077,161,cs),
(1077,231,o),
(1040,276,o),
(985,276,cs),
(947,276,o),
(918,253,o),
(918,217,cs),
(918,171,o),
(965,139,o),
(1026,139,cs),
(1099,139,o),
(1144,187,o),
(1144,259,cs),
(1144,308,o),
(1112,362,o),
(1112,417,cs),
(1112,490,o),
(1160,534,o),
(1238,534,cs),
(1315,534,o),
(1364,486,o),
(1364,408,cs),
(1364,363,o),
(1344,321,o),
(1315,292,c),
(1331,276,l),
(1365,309,o),
(1388,357,o),
(1388,408,cs)
);
}
);
userData = {
RMXScaler = {
verticalShift = -151;
};
};
width = 1448;
}
);
metricLeft = cha_cham;
metricRight = dha_cham;
note = uniAA0D;
production = uniAA0D;
script = cham;
subCategory = Spacing;
unicode = 43533;
userData = {
RMXScaler = {
source = "chha-cham";
};
};
},
{
category = Letter;
glyphname = ja_cham;
kernLeft = dha;
kernRight = dha;
layers = (
{
anchors = (
{
name = Anchor13;
pos = (1093,594);
},
{
name = Anchor14;
pos = (1277,418);
},
{
name = Anchor16;
pos = (1218,273);
},
{
name = Anchor17;
pos = (1218,273);
}
);
layerId = "9FF96064-8718-4A86-A5C8-73C592101F67";
shapes = (
{
closed = 1;
nodes = (
(1277,523,o),
(1205,594,o),
(1093,594,cs),
(982,594,o),
(904,518,o),
(904,390,c),
(957,390,l),
(957,518,o),
(876,594,o),
(764,594,cs),
(657,594,o),
(584,525,o),
(584,423,cs),
(584,334,o),
(625,272,o),
(625,207,cs),
(625,116,o),
(546,56,o),
(408,33,c),
(408,-16,l),
(475,42,o),
(506,108,o),
(506,174,cs),
(506,262,o),
(442,316,o),
(357,316,cs),
(340,316,o),
(322,313,o),
(304,309,c),
(326,264,l),
(399,291,o),
(441,357,o),
(441,426,cs),
(441,527,o),
(361,594,o),
(248,594,cs),
(132,594,o),
(53,524,o),
(53,420,cs),
(53,368,o),
(74,315,o),
(118,275,c),
(180,323,l),
(154,347,o),
(137,383,o),
(137,421,cs),
(137,485,o),
(181,525,o),
(247,525,cs),
(313,525,o),
(355,482,o),
(355,422,cs),
(355,371,o),
(326,325,o),
(271,302,c),
(286,252,l),
(302,256,o),
(317,259,o),
(331,259,cs),
(384,259,o),
(422,224,o),
(422,162,cs),
(422,107,o),
(399,60,o),
(351,1,c),
(368,-44,l),
(573,-8,o),
(711,83,o),
(711,208,cs),
(711,285,o),
(669,345,o),
(669,420,cs),
(669,482,o),
(711,525,o),
(778,525,cs),
(846,525,o),
(896,477,o),
(894,380,c),
(967,380,l),
(965,480,o),
(1016,525,o),
(1084,525,cs),
(1151,525,o),
(1193,483,o),
(1193,418,cs),
(1193,379,o),
(1180,347,o),
(1155,320,c),
(1218,274,l),
(1260,318,o),
(1277,363,o),
(1277,418,cs)
);
}
);
userData = {
RMXScaler = {
verticalShift = -124;
};
};
width = 1330;
},
{
anchors = (
{
name = Anchor13;
pos = (1226,653);
},
{
name = Anchor14;
pos = (1449,441);
},
{
name = Anchor16;
pos = (1372,272);
},
{
name = Anchor17;
pos = (1372,272);
}
);
layerId = "0A718E2F-231D-484E-9433-16A5230D2CE8";
shapes = (
{
closed = 1;
nodes = (
(1449,567,o),
(1358,653,o),
(1226,653,cs),
(1087,653,o),
(994,560,o),
(994,414,c),
(1101,414,l),
(1101,560,o),
(1003,653,o),
(864,653,cs),
(734,653,o),
(645,572,o),
(645,451,cs),
(645,358,o),
(684,293,o),
(684,238,cs),
(684,152,o),
(624,121,o),
(504,104,c),
(490,5,l),
(582,66,o),
(616,138,o),
(616,207,cs),
(616,310,o),
(532,363,o),
(428,363,cs),
(404,363,o),
(379,360,o),
(354,355,c),
(399,256,l),
(496,289,o),
(551,368,o),
(551,449,cs),
(551,573,o),
(446,653,o),
(299,653,cs),
(145,653,o),
(42,567,o),
(42,437,cs),
(42,381,o),
(63,320,o),
(121,269,c),
(254,368,l),
(233,387,o),
(220,413,o),
(220,441,cs),
(220,485,o),
(251,511,o),
(296,511,cs),
(344,511,o),
(369,476,o),
(369,437,cs),
(369,390,o),
(337,355,o),
(278,336,c),
(312,236,l),
(328,243,o),
(346,247,o),
(363,247,cs),
(400,247,o),
(438,227,o),
(438,175,cs),
(438,125,o),
(420,92,o),
(367,24,c),
(396,-61,l),
(666,-10,o),
(868,86,o),
(868,241,cs),
(868,318,o),
(827,380,o),
(827,445,cs),
(827,480,o),
(853,511,o),
(896,511,cs),
(945,511,o),
(977,476,o),
(971,391,c),
(1124,391,l),
(1118,478,o),
(1154,511,o),
(1202,511,cs),
(1243,511,o),
(1271,484,o),
(1271,443,cs),
(1271,412,o),
(1260,390,o),
(1236,367,c),
(1372,272,l),
(1429,329,o),
(1449,379,o),
(1449,441,cs)
);
}
);
userData = {
RMXScaler = {
verticalShift = -82;
};
};
width = 1491;
},
{
anchors = (
{
name = Anchor13;
pos = (1008,556);
},
{
name = Anchor14;
pos = (1167,403);
},
{
name = Anchor16;
pos = (1120,275);
},
{
name = Anchor17;
pos = (1120,275);
}
);
layerId = "AB666A95-3AF9-4DE8-B258-097FFCFE8A59";
shapes = (
{
closed = 1;
nodes = (
(1167,494,o),
(1107,556,o),
(1008,556,cs),
(915,556,o),
(848,490,o),
(848,374,c),
(863,374,l),
(864,490,o),
(796,556,o),
(701,556,cs),
(608,556,o),
(545,495,o),
(545,406,cs),
(545,319,o),
(587,259,o),
(587,187,cs),
(587,92,o),
(495,14,o),
(347,-13,c),
(355,-30,l),
(406,27,o),
(435,89,o),
(435,154,cs),
(435,231,o),
(385,285,o),
(311,285,cs),
(299,285,o),
(286,283,o),
(272,280,c),
(278,269,l),
(337,293,o),
(370,350,o),
(370,412,cs),
(370,498,o),
(306,556,o),
(215,556,cs),
(124,556,o),
(60,496,o),
(60,409,cs),
(60,360,o),
(81,312,o),
(115,280,c),
(132,295,l),
(103,322,o),
(84,364,o),
(84,409,cs),
(84,484,o),
(136,534,o),
(215,534,cs),
(294,534,o),
(346,486,o),
(346,412,cs),
(346,358,o),
(318,306,o),
(266,280,c),
(270,262,l),
(285,265,o),
(298,266,o),
(311,266,cs),
(373,266,o),
(411,222,o),
(411,154,cs),
(411,95,o),
(385,38,o),
(340,-14,c),
(351,-33,l),
(513,-6,o),
(611,80,o),
(611,187,cs),
(611,264,o),
(569,322,o),
(569,405,cs),
(569,484,o),
(620,534,o),
(703,534,cs),
(784,534,o),
(844,478,o),
(844,372,c),
(867,372,l),
(867,481,o),
(928,534,o),
(1008,534,cs),
(1092,534,o),
(1143,482,o),
(1143,403,cs),
(1143,359,o),
(1129,319,o),
(1103,290,c),
(1120,275,l),
(1152,310,o),
(1167,353,o),
(1167,403,cs)
);
}
);
userData = {
RMXScaler = {
verticalShift = -151;
};
};
width = 1227;
}
);
metricLeft = dha_cham;
metricRight = dha_cham;
note = uniAA0E;
production = uniAA0E;
script = cham;
subCategory = Spacing;
unicode = 43534;
userData = {
RMXScaler = {
source = "ja-cham";
};
};
},
{
category = Letter;
glyphname = jha_cham;
kernLeft = ha;
kernRight = dha;
layers = (
{
anchors = (
{
name = Anchor13;
pos = (1230,594);
},
{
name = Anchor14;
pos = (1429,418);
},
{
name = Anchor16;
pos = (1369,274);
},
{
name = Anchor17;
pos = (1429,274);
}
);
layerId = "9FF96064-8718-4A86-A5C8-73C592101F67";
shapes = (
{
closed = 1;
nodes = (
(820,526,o),
(737,594,o),
(615,594,cs),
(493,594,o),
(412,524,o),
(412,424,cs),
(412,337,o),
(455,278,o),
(455,196,cs),
(455,100,o),
(395,48,o),
(292,48,cs),
(195,48,o),
(132,96,o),
(132,166,cs),
(132,216,o),
(164,251,o),
(217,251,cs),
(270,251,o),
(303,215,o),
(303,152,cs),
(303,116,o),
(290,71,o),
(276,43,c),
(343,43,l),
(356,68,o),
(374,114,o),
(374,163,cs),
(374,258,o),
(308,317,o),
(214,317,cs),
(114,317,o),
(53,251,o),
(53,165,cs),
(53,57,o),
(151,-17,o),
(304,-17,cs),
(453,-17,o),
(540,65,o),
(540,191,cs),
(540,285,o),
(497,346,o),
(497,417,cs),
(497,482,o),
(544,525,o),
(619,525,cs),
(692,525,o),
(734,479,o),
(734,412,cs),
(734,332,o),
(674,261,o),
(674,161,c),
(737,171,l),
(737,249,o),
(820,321,o),
(820,421,cs)
);
},
{
pos = (621,0);
ref = ra_cham;
}
);
userData = {
RMXScaler = {
verticalShift = -124;
};
};
width = 1485;
},
{
anchors = (
{
name = Anchor13;
pos = (1390,653);
},
{
name = Anchor14;
pos = (1648,441);
},
{
name = Anchor16;
pos = (1570,272);
},
{
name = Anchor17;
pos = (1720,272);
}
);
layerId = "0A718E2F-231D-484E-9433-16A5230D2CE8";
shapes = (
{
closed = 1;
nodes = (
(979,578,o),
(864,653,o),
(702,653,cs),
(540,653,o),
(437,570,o),
(437,454,cs),
(437,365,o),
(480,302,o),
(480,224,cs),
(480,132,o),
(419,85,o),
(325,85,cs),
(235,85,o),
(181,130,o),
(181,187,cs),
(181,224,o),
(204,249,o),
(241,249,cs),
(280,249,o),
(303,220,o),
(303,171,cs),
(303,142,o),
(294,106,o),
(280,80,c),
(393,80,l),
(407,102,o),
(426,145,o),
(426,196,cs),
(426,298,o),
(347,361,o),
(236,361,cs),
(112,361,o),
(42,284,o),
(42,184,cs),
(42,58,o),
(159,-29,o),
(357,-29,cs),
(545,-29,o),
(658,70,o),
(658,213,cs),
(658,312,o),
(618,375,o),
(618,436,cs),
(618,482,o),
(653,511,o),
(709,511,cs),
(766,511,o),
(797,479,o),
(797,436,cs),
(797,364,o),
(745,291,o),
(745,184,c),
(877,208,l),
(877,271,o),
(979,348,o),
(979,457,cs)
);
},
{
pos = (703,0);
ref = ra_cham;
}
);
userData = {
RMXScaler = {
verticalShift = -82;
};
};
width = 1690;
},
{
anchors = (
{
name = Anchor13;
pos = (1125,556);
},
{
name = Anchor14;
pos = (1286,403);
},
{
name = Anchor16;
pos = (1239,276);
},
{
name = Anchor17;
pos = (1239,276);
}
);
layerId = "AB666A95-3AF9-4DE8-B258-097FFCFE8A59";
shapes = (
{
closed = 1;
nodes = (
(715,492,o),
(653,556,o),
(557,556,cs),
(459,556,o),
(393,495,o),
(393,406,cs),
(393,319,o),
(437,263,o),
(437,178,cs),
(437,72,o),
(376,12,o),
(262,12,cs),
(157,12,o),
(84,64,o),
(84,147,cs),
(84,209,o),
(123,255,o),
(193,255,cs),
(257,255,o),
(300,210,o),
(300,134,cs),
(300,91,o),
(283,39,o),
(269,8,c),
(293,8,l),
(306,37,o),
(324,85,o),
(324,134,cs),
(324,221,o),
(269,276,o),
(192,276,cs),
(111,276,o),
(60,220,o),
(60,147,cs),
(60,53,o),
(145,-10,o),
(261,-10,cs),
(388,-10,o),
(461,61,o),
(461,177,cs),
(461,268,o),
(417,324,o),
(417,405,cs),
(417,483,o),
(471,534,o),
(558,534,cs),
(641,534,o),
(691,480,o),
(691,397,cs),
(691,311,o),
(625,242,o),
(625,147,c),
(645,147,l),
(645,235,o),
(715,304,o),
(715,397,cs)
);
},
{
pos = (565,0);
ref = ra_cham;
}
);
userData = {
RMXScaler = {
verticalShift = -151;
};
};
width = 1346;
}
);
metricLeft = dha_cham;
metricRight = dha_cham;
note = uniAA0F;
production = uniAA0F;
script = cham;
subCategory = Spacing;
unicode = 43535;
userData = {
RMXScaler = {
source = "jha-cham";
};
};
},
{
category = Letter;
glyphname = nhue_cham;
kernLeft = gFinal;
kernRight = dha;
layers = (
{
anchors = (
{
name = Anchor13;
pos = (1115,594);
},
{
name = Anchor14;
pos = (1299,418);
},
{
name = Anchor16;
pos = (1240,274);
},
{
name = Anchor17;
pos = (1240,274);
}
);
layerId = "9FF96064-8718-4A86-A5C8-73C592101F67";
shapes = (
{
closed = 1;
nodes = (
(1299,523,o),
(1227,594,o),
(1115,594,cs),
(1021,594,o),
(951,550,o),
(933,449,cs),
(914,344,o),
(877,330,o),
(767,312,cs),
(621,288,o),
(527,218,o),
(527,112,cs),
(527,31,o),
(579,-17,o),
(660,-17,cs),
(779,-17,o),
(858,103,o),
(858,286,cs),
(858,481,o),
(779,594,o),
(669,594,cs),
(553,594,o),
(530,513,o),
(470,513,cs),
(410,513,o),
(385,594,o),
(271,594,cs),
(157,594,o),
(80,485,o),
(80,308,cs),
(80,105,o),
(177,-19,o),
(309,-19,cs),
(382,-19,o),
(427,23,o),
(427,82,cs),
(427,143,o),
(381,182,o),
(317,182,cs),
(245,182,o),
(196,129,o),
(183,48,c),
(235,48,l),
(243,93,o),
(270,131,o),
(316,131,cs),
(346,131,o),
(370,116,o),
(370,83,cs),
(370,54,o),
(349,35,o),
(314,35,cs),
(232,35,o),
(166,130,o),
(166,308,cs),
(166,441,o),
(218,518,o),
(287,518,cs),
(369,518,o),
(381,437,o),
(470,437,cs),
(559,437,o),
(571,518,o),
(653,518,cs),
(718,518,o),
(774,437,o),
(774,290,cs),
(774,142,o),
(728,51,o),
(660,51,cs),
(627,51,o),
(610,78,o),
(610,115,cs),
(610,175,o),
(657,228,o),
(805,255,cs),
(940,280,o),
(986,307,o),
(1005,418,cs),
(1017,487,o),
(1051,525,o),
(1110,525,cs),
(1175,525,o),
(1215,484,o),
(1215,418,cs),
(1215,380,o),
(1202,347,o),
(1177,320,c),
(1240,274,l),
(1282,318,o),
(1299,363,o),
(1299,417,cs)
);
}
);
userData = {
RMXScaler = {
verticalShift = -124;
};
};
width = 1352;
},
{
anchors = (
{
name = Anchor13;
pos = (1190,653);
},
{
name = Anchor14;
pos = (1418,441);
},
{
name = Anchor16;
pos = (1341,272);
},
{
name = Anchor17;
pos = (1341,272);
}
);
layerId = "0A718E2F-231D-484E-9433-16A5230D2CE8";
shapes = (
{
closed = 1;
nodes = (
(1418,567,o),
(1328,653,o),
(1190,653,cs),
(1077,653,o),
(992,608,o),
(967,490,cs),
(942,374,o),
(896,359,o),
(795,352,cs),
(627,340,o),
(503,267,o),
(503,143,cs),
(503,34,o),
(578,-29,o),
(686,-29,cs),
(831,-29,o),
(933,101,o),
(933,296,cs),
(933,524,o),
(829,653,o),
(699,653,cs),
(577,653,o),
(558,574,o),
(499,574,cs),
(440,574,o),
(421,653,o),
(299,653,cs),
(162,653,o),
(65,530,o),
(65,331,cs),
(65,107,o),
(157,-29,o),
(330,-29,cs),
(426,-29,o),
(483,26,o),
(483,104,cs),
(483,184,o),
(424,234,o),
(341,234,cs),
(251,234,o),
(187,164,o),
(176,64,c),
(258,64,l),
(263,104,o),
(289,151,o),
(339,151,cs),
(363,151,o),
(389,140,o),
(389,104,cs),
(389,78,o),
(372,61,o),
(344,61,cs),
(261,61,o),
(247,166,o),
(247,305,cs),
(247,443,o),
(287,502,o),
(341,502,cs),
(404,502,o),
(426,422,o),
(499,422,cs),
(572,422,o),
(594,502,o),
(657,502,cs),
(711,502,o),
(756,443,o),
(756,305,cs),
(756,179,o),
(725,109,o),
(689,109,cs),
(668,109,o),
(657,125,o),
(657,149,cs),
(657,187,o),
(689,228,o),
(868,255,cs),
(1014,277,o),
(1068,310,o),
(1089,415,cs),
(1102,479,o),
(1122,511,o),
(1172,511,cs),
(1213,511,o),
(1240,484,o),
(1240,443,cs),
(1240,412,o),
(1229,390,o),
(1205,367,c),
(1341,272,l),
(1398,329,o),
(1418,379,o),
(1418,441,cs)
);
}
);
userData = {
RMXScaler = {
verticalShift = -82;
};
};
width = 1460;
},
{
anchors = (
{
name = Anchor13;
pos = (1065,556);
},
{
name = Anchor14;
pos = (1221,403);
},
{
name = Anchor16;
pos = (1174,275);
},
{
name = Anchor17;
pos = (1174,275);
}
);
layerId = "AB666A95-3AF9-4DE8-B258-097FFCFE8A59";
shapes = (
{
closed = 1;
nodes = (
(1221,494,o),
(1160,556,o),
(1065,556,cs),
(982,556,o),
(922,509,o),
(908,415,cs),
(893,316,o),
(864,304,o),
(746,274,cs),
(622,243,o),
(553,174,o),
(553,82,cs),
(553,26,o),
(585,-10,o),
(641,-10,cs),
(745,-10,o),
(809,104,o),
(809,280,cs),
(809,454,o),
(738,556,o),
(624,556,cs),
(527,556,o),
(512,475,o),
(450,475,cs),
(388,475,o),
(373,556,o),
(276,556,cs),
(161,556,o),
(90,457,o),
(90,294,cs),
(90,105,o),
(182,-10,o),
(304,-10,cs),
(354,-10,o),
(386,19,o),
(386,62,cs),
(386,105,o),
(354,133,o),
(304,133,cs),
(252,133,o),
(214,95,o),
(201,33,c),
(224,33,l),
(234,82,o),
(264,112,o),
(304,112,cs),
(340,112,o),
(363,94,o),
(363,63,cs),
(363,32,o),
(339,12,o),
(303,12,cs),
(197,12,o),
(114,117,o),
(114,294,cs),
(114,444,o),
(176,534,o),
(278,534,cs),
(363,534,o),
(378,454,o),
(450,454,cs),
(522,454,o),
(537,534,o),
(622,534,cs),
(723,534,o),
(785,441,o),
(785,280,cs),
(785,116,o),
(729,12,o),
(640,12,cs),
(600,12,o),
(577,43,o),
(577,83,cs),
(577,163,o),
(637,225,o),
(754,254,cs),
(878,285,o),
(916,304,o),
(931,411,cs),
(943,494,o),
(995,534,o),
(1064,534,cs),
(1149,534,o),
(1197,483,o),
(1197,402,cs),
(1197,359,o),
(1183,319,o),
(1157,290,c),
(1174,275,l),
(1206,310,o),
(1221,353,o),
(1221,402,cs)
);
}
);
userData = {
RMXScaler = {
verticalShift = -151;
};
};
width = 1281;
}
);
metricLeft = "=gFinal_cham";
metricRight = dha_cham;
note = uniAA10;
production = uniAA10;
script = cham;
subCategory = Spacing;
unicode = 43536;
userData = {
RMXScaler = {
source = "nhue-cham";
};
};
},
{
category = Letter;
glyphname = nha_cham;
kernLeft = gFinal;
kernRight = dha;
layers = (
{
anchors = (
{
name = Anchor13;
pos = (1115,594);
},
{
name = Anchor14;
pos = (1298,418);
},
{
name = Anchor16;
pos = (1240,274);
},
{
name = Anchor17;
pos = (1240,274);
}
);
layerId = "9FF96064-8718-4A86-A5C8-73C592101F67";
shapes = (
{
closed = 1;
nodes = (
(1298,523,o),
(1226,594,o),
(1115,594,cs),
(1021,594,o),
(951,550,o),
(933,449,cs),
(914,344,o),
(877,330,o),
(767,312,cs),
(621,288,o),
(527,218,o),
(527,112,cs),
(527,31,o),
(579,-17,o),
(660,-17,cs),
(674,-17,o),
(688,-16,o),
(701,-13,c),
(656,31,l),
(522,-65,o),
(481,-126,o),
(481,-184,cs),
(481,-251,o),
(535,-299,o),
(600,-299,cs),
(722,-299,o),
(740,-149,o),
(804,-149,cs),
(826,-149,o),
(839,-162,o),
(839,-183,cs),
(839,-195,o),
(834,-209,o),
(825,-222,c),
(893,-253,l),
(911,-228,o),
(920,-195,o),
(920,-172,cs),
(920,-119,o),
(877,-76,o),
(819,-76,cs),
(697,-76,o),
(679,-224,o),
(611,-224,cs),
(582,-224,o),
(565,-203,o),
(565,-177,cs),
(565,-139,o),
(594,-100,o),
(731,-5,cs),
(829,63,o),
(858,164,o),
(858,286,cs),
(858,481,o),
(779,594,o),
(669,594,cs),
(553,594,o),
(530,513,o),
(470,513,cs),
(410,513,o),
(385,594,o),
(271,594,cs),
(157,594,o),
(80,485,o),
(80,308,cs),
(80,105,o),
(177,-19,o),
(309,-19,cs),
(382,-19,o),
(427,23,o),
(427,82,cs),
(427,143,o),
(381,182,o),
(317,182,cs),
(245,182,o),
(196,129,o),
(183,48,c),
(235,48,l),
(243,93,o),
(270,131,o),
(316,131,cs),
(346,131,o),
(370,116,o),
(370,83,cs),
(370,54,o),
(349,35,o),
(314,35,cs),
(232,35,o),
(166,130,o),
(166,308,cs),
(166,441,o),
(218,518,o),
(287,518,cs),
(369,518,o),
(381,437,o),
(470,437,cs),
(559,437,o),
(571,518,o),
(653,518,cs),
(718,518,o),
(774,437,o),
(774,290,cs),
(774,142,o),
(728,51,o),
(660,51,cs),
(627,51,o),
(610,78,o),
(610,115,cs),
(610,175,o),
(657,228,o),
(805,255,cs),
(940,280,o),
(986,307,o),
(1005,418,cs),
(1017,487,o),
(1051,525,o),
(1110,525,cs),
(1174,525,o),
(1214,484,o),
(1214,418,cs),
(1214,380,o),
(1201,347,o),
(1176,320,c),
(1240,274,l),
(1281,318,o),
(1298,363,o),
(1298,417,cs)
);
}
);
userData = {
RMXScaler = {
verticalShift = -124;
};
};
width = 1351;
},
{
anchors = (
{
name = Anchor13;
pos = (1190,653);
},
{
name = Anchor14;
pos = (1418,441);
},
{
name = Anchor16;
pos = (1341,272);
},
{
name = Anchor17;
pos = (1341,272);
}
);
layerId = "0A718E2F-231D-484E-9433-16A5230D2CE8";
shapes = (
{
closed = 1;
nodes = (
(1418,567,o),
(1328,653,o),
(1190,653,cs),
(1077,653,o),
(992,608,o),
(967,490,cs),
(942,374,o),
(896,359,o),
(795,352,cs),
(627,340,o),
(503,267,o),
(503,143,cs),
(503,34,o),
(578,-29,o),
(686,-29,cs),
(706,-29,o),
(724,-27,o),
(743,-24,c),
(694,73,l),
(475,-61,o),
(449,-130,o),
(449,-195,cs),
(449,-286,o),
(524,-346,o),
(608,-346,cs),
(742,-346,o),
(772,-215,o),
(817,-215,cs),
(833,-215,o),
(842,-223,o),
(842,-238,cs),
(842,-248,o),
(839,-258,o),
(832,-269,c),
(953,-320,l),
(977,-288,o),
(985,-242,o),
(985,-215,cs),
(985,-144,o),
(927,-84,o),
(844,-84,cs),
(728,-84,o),
(670,-214,o),
(627,-214,cs),
(610,-214,o),
(597,-199,o),
(597,-181,cs),
(597,-149,o),
(627,-108,o),
(771,-20,cs),
(904,61,o),
(933,167,o),
(933,296,cs),
(933,524,o),
(829,653,o),
(699,653,cs),
(577,653,o),
(558,574,o),
(499,574,cs),
(440,574,o),
(421,653,o),
(299,653,cs),
(162,653,o),
(65,530,o),
(65,331,cs),
(65,107,o),
(157,-29,o),
(330,-29,cs),
(426,-29,o),
(483,26,o),
(483,104,cs),
(483,184,o),
(424,234,o),
(341,234,cs),
(251,234,o),
(187,164,o),
(176,64,c),
(258,64,l),
(263,104,o),
(289,151,o),
(339,151,cs),
(363,151,o),
(389,140,o),
(389,104,cs),
(389,78,o),
(372,61,o),
(344,61,cs),
(261,61,o),
(247,166,o),
(247,305,cs),
(247,443,o),
(287,502,o),
(341,502,cs),
(404,502,o),
(426,422,o),
(499,422,cs),
(572,422,o),
(594,502,o),
(657,502,cs),
(711,502,o),
(756,443,o),
(756,305,cs),
(756,179,o),
(725,109,o),
(689,109,cs),
(668,109,o),
(657,125,o),
(657,149,cs),
(657,187,o),
(689,228,o),
(868,255,cs),
(1014,277,o),
(1068,310,o),
(1089,415,cs),
(1102,479,o),
(1122,511,o),
(1172,511,cs),
(1213,511,o),
(1240,484,o),
(1240,443,cs),
(1240,412,o),
(1229,390,o),
(1205,367,c),
(1341,272,l),
(1398,329,o),
(1418,379,o),
(1418,441,cs)
);
}
);
userData = {
RMXScaler = {
verticalShift = -82;
};
};
width = 1460;
},
{
anchors = (
{
name = Anchor13;
pos = (1065,556);
},
{
name = Anchor14;
pos = (1221,403);
},
{
name = Anchor16;
pos = (1174,276);
},
{
name = Anchor17;
pos = (1174,276);
}
);
layerId = "AB666A95-3AF9-4DE8-B258-097FFCFE8A59";
shapes = (
{
closed = 1;
nodes = (
(1221,494,o),
(1160,556,o),
(1065,556,cs),
(982,556,o),
(922,509,o),
(908,415,cs),
(893,316,o),
(864,304,o),
(746,274,cs),
(622,243,o),
(553,174,o),
(553,82,cs),
(553,26,o),
(585,-10,o),
(641,-10,cs),
(653,-10,o),
(664,-9,o),
(674,-6,c),
(672,9,l),
(548,-70,o),
(517,-114,o),
(517,-167,cs),
(517,-211,o),
(551,-248,o),
(600,-248,cs),
(710,-248,o),
(718,-82,o),
(799,-82,cs),
(826,-82,o),
(843,-100,o),
(843,-124,cs),
(843,-139,o),
(836,-157,o),
(825,-171,c),
(843,-185,l),
(858,-166,o),
(867,-144,o),
(867,-124,cs),
(867,-89,o),
(838,-60,o),
(801,-60,cs),
(701,-60,o),
(692,-226,o),
(601,-226,cs),
(562,-226,o),
(541,-199,o),
(541,-165,cs),
(541,-100,o),
(594,-72,o),
(707,8,cs),
(780,60,o),
(809,162,o),
(809,280,cs),
(809,454,o),
(738,556,o),
(624,556,cs),
(527,556,o),
(512,475,o),
(450,475,cs),
(388,475,o),
(373,556,o),
(276,556,cs),
(161,556,o),
(90,457,o),
(90,294,cs),
(90,105,o),
(182,-10,o),
(304,-10,cs),
(354,-10,o),
(386,19,o),
(386,62,cs),
(386,105,o),
(354,133,o),
(304,133,cs),
(252,133,o),
(214,95,o),
(201,33,c),
(224,33,l),
(234,82,o),
(264,112,o),
(304,112,cs),
(340,112,o),
(363,94,o),
(363,63,cs),
(363,32,o),
(339,12,o),
(303,12,cs),
(197,12,o),
(114,117,o),
(114,294,cs),
(114,444,o),
(176,534,o),
(278,534,cs),
(363,534,o),
(378,454,o),
(450,454,cs),
(522,454,o),
(537,534,o),
(622,534,cs),
(723,534,o),
(785,441,o),
(785,280,cs),
(785,116,o),
(729,12,o),
(640,12,cs),
(600,12,o),
(577,43,o),
(577,83,cs),
(577,163,o),
(637,225,o),
(754,254,cs),
(878,285,o),
(916,304,o),
(931,411,cs),
(943,494,o),
(995,534,o),
(1064,534,cs),
(1149,534,o),
(1197,483,o),
(1197,402,cs),
(1197,359,o),
(1183,319,o),
(1157,290,c),
(1174,275,l),
(1206,310,o),
(1221,353,o),
(1221,402,cs)
);
}
);
userData = {
RMXScaler = {
verticalShift = -151;
};
};
width = 1281;
}
);
metricLeft = "=gFinal_cham";
metricRight = dha_cham;
note = uniAA11;
production = uniAA11;
script = cham;
subCategory = Spacing;
unicode = 43537;
userData = {
RMXScaler = {
source = "nha-cham";
};
};
},
{
category = Letter;
glyphname = nhja_cham;
kernLeft = gFinal;
kernRight = dha;
layers = (
{
anchors = (
{
name = Anchor13;
pos = (1114,594);
},
{
name = Anchor14;
pos = (1298,418);
},
{
name = Anchor16;
pos = (1239,274);
},
{
name = Anchor17;
pos = (1239,274);
}
);
layerId = "9FF96064-8718-4A86-A5C8-73C592101F67";
shapes = (
{
closed = 1;
nodes = (
(1298,523,o),
(1226,594,o),
(1115,594,cs),
(1021,594,o),
(951,550,o),
(933,449,cs),
(914,344,o),
(877,330,o),
(767,311,cs),
(625,287,o),
(538,212,o),
(538,109,cs),
(538,37,o),
(586,-7,o),
(660,-7,cs),
(674,-7,o),
(688,-6,o),
(701,-3,c),
(662,31,l),
(528,-65,o),
(481,-126,o),
(481,-184,cs),
(481,-251,o),
(535,-299,o),
(600,-299,cs),
(722,-299,o),
(740,-149,o),
(804,-149,cs),
(826,-149,o),
(839,-162,o),
(839,-183,cs),
(839,-195,o),
(834,-209,o),
(825,-222,c),
(893,-253,l),
(911,-228,o),
(920,-195,o),
(920,-172,cs),
(920,-119,o),
(877,-76,o),
(819,-76,cs),
(697,-76,o),
(679,-224,o),
(611,-224,cs),
(582,-224,o),
(565,-203,o),
(565,-177,cs),
(565,-139,o),
(594,-100,o),
(731,-5,cs),
(829,63,o),
(858,164,o),
(858,286,cs),
(858,481,o),
(779,594,o),
(669,594,cs),
(553,594,o),
(530,513,o),
(470,513,cs),
(410,513,o),
(385,594,o),
(271,594,cs),
(157,594,o),
(80,485,o),
(80,308,cs),
(80,105,o),
(177,-19,o),
(309,-19,cs),
(382,-19,o),
(427,23,o),
(427,82,cs),
(427,143,o),
(381,182,o),
(317,182,cs),
(245,182,o),
(196,129,o),
(183,48,c),
(235,48,l),
(243,93,o),
(270,131,o),
(316,131,cs),
(346,131,o),
(370,116,o),
(370,83,cs),
(370,54,o),
(349,35,o),
(314,35,cs),
(232,35,o),
(166,130,o),
(166,308,cs),
(166,441,o),
(218,518,o),
(287,518,cs),
(369,518,o),
(381,437,o),
(470,437,cs),
(559,437,o),
(571,518,o),
(653,518,cs),
(718,518,o),
(774,437,o),
(774,290,cs),
(774,142,o),
(728,51,o),
(660,51,cs),
(627,51,o),
(610,78,o),
(610,115,cs),
(610,175,o),
(657,228,o),
(805,255,cs),
(940,280,o),
(986,307,o),
(1005,418,cs),
(1017,487,o),
(1051,525,o),
(1110,525,cs),
(1174,525,o),
(1214,484,o),
(1214,418,cs),
(1214,380,o),
(1201,347,o),
(1176,320,c),
(1240,274,l),
(1281,318,o),
(1298,363,o),
(1298,417,cs)
);
},
{
closed = 1;
nodes = (
(639,14,l),
(516,14,ls),
(404,14,o),
(375,-8,o),
(349,-131,cs),
(329,-227,o),
(317,-246,o),
(233,-246,cs),
(212,-246,l),
(212,-299,l),
(254,-299,ls),
(366,-299,o),
(396,-277,o),
(422,-154,cs),
(442,-59,o),
(454,-39,o),
(536,-39,cs),
(639,-39,l)
);
}
);
userData = {
RMXScaler = {
verticalShift = -124;
};
};
width = 1351;
},
{
anchors = (
{
name = Anchor13;
pos = (1190,653);
},
{
name = Anchor14;
pos = (1418,441);
},
{
name = Anchor16;
pos = (1341,272);
},
{
name = Anchor17;
pos = (1341,272);
}
);
layerId = "0A718E2F-231D-484E-9433-16A5230D2CE8";
shapes = (
{
closed = 1;
nodes = (
(1418,567,o),
(1328,653,o),
(1192,653,cs),
(1077,653,o),
(992,608,o),
(967,490,cs),
(942,374,o),
(896,363,o),
(777,351,cs),
(622,335,o),
(518,252,o),
(518,142,cs),
(518,47,o),
(580,-6,o),
(686,-6,cs),
(706,-6,o),
(724,-4,o),
(743,-1,c),
(704,73,l),
(496,-52,o),
(450,-137,o),
(450,-205,cs),
(450,-293,o),
(524,-346,o),
(608,-346,cs),
(742,-346,o),
(772,-215,o),
(817,-215,cs),
(833,-215,o),
(842,-223,o),
(842,-238,cs),
(842,-248,o),
(839,-258,o),
(832,-269,c),
(953,-320,l),
(977,-288,o),
(985,-242,o),
(985,-215,cs),
(985,-144,o),
(927,-84,o),
(844,-84,cs),
(728,-84,o),
(670,-214,o),
(627,-214,cs),
(610,-214,o),
(597,-198,o),
(597,-180,cs),
(597,-148,o),
(625,-109,o),
(771,-20,cs),
(904,61,o),
(933,167,o),
(933,296,cs),
(933,524,o),
(829,653,o),
(699,653,cs),
(577,653,o),
(558,574,o),
(499,574,cs),
(440,574,o),
(421,653,o),
(299,653,cs),
(162,653,o),
(65,530,o),
(65,331,cs),
(65,107,o),
(157,-29,o),
(330,-29,cs),
(426,-29,o),
(483,26,o),
(483,104,cs),
(483,184,o),
(424,234,o),
(341,234,cs),
(251,234,o),
(187,164,o),
(176,64,c),
(258,64,l),
(263,104,o),
(289,151,o),
(339,151,cs),
(363,151,o),
(389,140,o),
(389,104,cs),
(389,78,o),
(372,61,o),
(344,61,cs),
(261,61,o),
(247,166,o),
(247,305,cs),
(247,443,o),
(287,502,o),
(341,502,cs),
(404,502,o),
(426,422,o),
(499,422,cs),
(572,422,o),
(594,502,o),
(657,502,cs),
(711,502,o),
(756,443,o),
(756,305,cs),
(756,179,o),
(725,109,o),
(688,109,cs),
(668,109,o),
(657,125,o),
(657,147,cs),
(657,185,o),
(685,231,o),
(868,255,cs),
(1014,274,o),
(1068,310,o),
(1089,415,cs),
(1102,479,o),
(1122,511,o),
(1172,511,cs),
(1213,511,o),
(1240,484,o),
(1240,443,cs),
(1240,412,o),
(1229,390,o),
(1205,367,c),
(1341,272,l),
(1398,329,o),
(1418,379,o),
(1418,441,cs)
);
},
{
closed = 1;
nodes = (
(635,51,l),
(438,51,ls),
(297,51,o),
(257,26,o),
(228,-120,cs),
(209,-216,o),
(199,-244,o),
(118,-244,cs),
(97,-244,l),
(97,-346,l),
(164,-346,ls),
(305,-346,o),
(345,-321,o),
(374,-175,cs),
(393,-79,o),
(403,-51,o),
(480,-51,cs),
(635,-51,l)
);
}
);
userData = {
RMXScaler = {
verticalShift = -82;
};
};
width = 1460;
},
{
anchors = (
{
name = Anchor13;
pos = (1065,556);
},
{
name = Anchor14;
pos = (1221,403);
},
{
name = Anchor16;
pos = (1174,276);
},
{
name = Anchor17;
pos = (1174,276);
}
);
layerId = "AB666A95-3AF9-4DE8-B258-097FFCFE8A59";
shapes = (
{
closed = 1;
nodes = (
(1221,494,o),
(1160,556,o),
(1065,556,cs),
(982,556,o),
(922,509,o),
(908,415,cs),
(893,316,o),
(864,304,o),
(746,274,cs),
(622,243,o),
(553,175,o),
(553,87,cs),
(553,30,o),
(590,-10,o),
(641,-10,cs),
(653,-10,o),
(664,-9,o),
(674,-6,c),
(672,9,l),
(548,-70,o),
(517,-114,o),
(517,-167,cs),
(517,-211,o),
(551,-248,o),
(600,-248,cs),
(710,-248,o),
(718,-82,o),
(799,-82,cs),
(826,-82,o),
(843,-100,o),
(843,-124,cs),
(843,-139,o),
(836,-157,o),
(825,-171,c),
(843,-185,l),
(858,-166,o),
(867,-144,o),
(867,-124,cs),
(867,-89,o),
(838,-60,o),
(801,-60,cs),
(701,-60,o),
(692,-226,o),
(601,-226,cs),
(562,-226,o),
(541,-199,o),
(541,-165,cs),
(541,-100,o),
(594,-72,o),
(707,8,cs),
(780,60,o),
(809,162,o),
(809,280,cs),
(809,454,o),
(738,556,o),
(624,556,cs),
(527,556,o),
(512,475,o),
(450,475,cs),
(388,475,o),
(373,556,o),
(276,556,cs),
(161,556,o),
(90,457,o),
(90,294,cs),
(90,105,o),
(182,-10,o),
(304,-10,cs),
(354,-10,o),
(386,19,o),
(386,62,cs),
(386,105,o),
(354,133,o),
(304,133,cs),
(252,133,o),
(214,95,o),
(201,33,c),
(224,33,l),
(234,82,o),
(264,112,o),
(304,112,cs),
(340,112,o),
(363,94,o),
(363,63,cs),
(363,32,o),
(339,12,o),
(303,12,cs),
(197,12,o),
(114,117,o),
(114,294,cs),
(114,444,o),
(176,534,o),
(278,534,cs),
(363,534,o),
(378,454,o),
(450,454,cs),
(522,454,o),
(537,534,o),
(622,534,cs),
(723,534,o),
(785,441,o),
(785,280,cs),
(785,116,o),
(729,12,o),
(640,12,cs),
(600,12,o),
(577,45,o),
(577,88,cs),
(577,165,o),
(637,225,o),
(754,254,cs),
(878,285,o),
(916,304,o),
(931,411,cs),
(943,494,o),
(995,534,o),
(1064,534,cs),
(1149,534,o),
(1197,483,o),
(1197,402,cs),
(1197,359,o),
(1183,319,o),
(1157,290,c),
(1174,275,l),
(1206,310,o),
(1221,353,o),
(1221,402,cs)
);
},
{
closed = 1;
nodes = (
(611,12,l),
(566,12,ls),
(473,12,o),
(449,-8,o),
(426,-117,cs),
(406,-212,o),
(392,-226,o),
(306,-226,cs),
(285,-226,l),
(285,-248,l),
(312,-248,ls),
(405,-248,o),
(429,-228,o),
(452,-119,cs),
(472,-24,o),
(486,-10,o),
(572,-10,cs),
(641,-10,l)
);
}
);
userData = {
RMXScaler = {
verticalShift = -151;
};
};
width = 1281;
}
);
metricLeft = "=gFinal_cham";
metricRight = dha_cham;
note = uniAA12;
production = uniAA12;
script = cham;
subCategory = Spacing;
unicode = 43538;
userData = {
RMXScaler = {
source = "nhja-cham";
};
};
},
{
category = Letter;
glyphname = ta_cham;
kernLeft = gFinal;
kernRight = dha;
layers = (
{
anchors = (
{
name = Anchor13;
pos = (629,594);
},
{
name = Anchor14;
pos = (812,418);
},
{
name = Anchor16;
pos = (753,274);
},
{
name = Anchor17;
pos = (783,274);
}
);
layerId = "9FF96064-8718-4A86-A5C8-73C592101F67";
shapes = (
{
closed = 1;
nodes = (
(812,523,o),
(739,594,o),
(630,594,cs),
(517,594,o),
(438,518,o),
(438,390,c),
(490,390,l),
(491,518,o),
(415,594,o),
(304,594,cs),
(166,594,o),
(80,485,o),
(80,308,cs),
(80,107,o),
(175,-17,o),
(318,-17,cs),
(423,-17,o),
(488,47,o),
(488,141,cs),
(488,239,o),
(414,301,o),
(314,301,cs),
(237,301,o),
(174,265,o),
(130,203,c),
(170,151,l),
(200,209,o),
(249,239,o),
(309,239,cs),
(369,239,o),
(412,206,o),
(412,140,cs),
(412,80,o),
(378,45,o),
(321,45,cs),
(222,45,o),
(166,139,o),
(166,310,cs),
(166,445,o),
(220,525,o),
(312,525,cs),
(380,525,o),
(429,476,o),
(427,379,c),
(501,379,l),
(499,478,o),
(550,525,o),
(619,525,cs),
(687,525,o),
(728,484,o),
(728,418,cs),
(728,380,o),
(715,347,o),
(690,320,c),
(753,274,l),
(795,318,o),
(812,363,o),
(812,417,cs)
);
}
);
userData = {
RMXScaler = {
verticalShift = -124;
};
};
width = 865;
},
{
anchors = (
{
name = Anchor13;
pos = (679,653);
},
{
name = Anchor14;
pos = (902,441);
},
{
name = Anchor16;
pos = (825,272);
},
{
name = Anchor17;
pos = (955,272);
}
);
layerId = "0A718E2F-231D-484E-9433-16A5230D2CE8";
shapes = (
{
closed = 1;
nodes = (
(902,567,o),
(811,653,o),
(679,653,cs),
(540,653,o),
(447,560,o),
(447,414,c),
(554,414,l),
(554,560,o),
(467,653,o),
(331,653,cs),
(169,653,o),
(65,529,o),
(65,330,cs),
(65,107,o),
(182,-29,o),
(355,-29,cs),
(487,-29,o),
(563,48,o),
(563,154,cs),
(563,268,o),
(475,337,o),
(365,337,cs),
(277,337,o),
(205,291,o),
(158,214,c),
(233,126,l),
(256,192,o),
(298,225,o),
(354,225,cs),
(387,225,o),
(424,208,o),
(424,152,cs),
(424,112,o),
(398,85,o),
(356,85,cs),
(286,85,o),
(247,168,o),
(247,334,cs),
(247,445,o),
(287,511,o),
(349,511,cs),
(397,511,o),
(430,474,o),
(424,391,c),
(577,391,l),
(571,478,o),
(607,511,o),
(655,511,cs),
(696,511,o),
(724,484,o),
(724,443,cs),
(724,412,o),
(713,390,o),
(689,367,c),
(825,272,l),
(882,329,o),
(902,379,o),
(902,441,cs)
);
}
);
userData = {
RMXScaler = {
verticalShift = -82;
};
};
width = 944;
},
{
anchors = (
{
name = Anchor13;
pos = (598,556);
},
{
name = Anchor14;
pos = (755,403);
},
{
name = Anchor16;
pos = (708,275);
},
{
name = Anchor17;
pos = (708,275);
}
);
layerId = "AB666A95-3AF9-4DE8-B258-097FFCFE8A59";
shapes = (
{
closed = 1;
nodes = (
(755,494,o),
(694,556,o),
(599,556,cs),
(503,556,o),
(434,491,o),
(434,374,c),
(449,374,l),
(450,490,o),
(382,556,o),
(288,556,cs),
(166,556,o),
(90,456,o),
(90,294,cs),
(90,106,o),
(169,-10,o),
(292,-10,cs),
(374,-10,o),
(428,44,o),
(428,129,cs),
(428,215,o),
(367,272,o),
(272,272,cs),
(206,272,o),
(149,244,o),
(109,194,c),
(119,170,l),
(156,223,o),
(209,251,o),
(272,251,cs),
(355,251,o),
(404,204,o),
(404,129,cs),
(404,55,o),
(362,12,o),
(292,12,cs),
(181,12,o),
(114,117,o),
(114,294,cs),
(114,445,o),
(178,534,o),
(289,534,cs),
(370,534,o),
(430,478,o),
(430,372,c),
(453,372,l),
(453,479,o),
(515,534,o),
(597,534,cs),
(682,534,o),
(731,483,o),
(731,402,cs),
(731,359,o),
(717,319,o),
(691,290,c),
(708,275,l),
(740,310,o),
(755,353,o),
(755,402,cs)
);
}
);
userData = {
RMXScaler = {
verticalShift = -151;
};
};
width = 815;
}
);
metricLeft = "=|pFinal_cham";
metricRight = dha_cham;
note = uniAA13;
production = uniAA13;
script = cham;
subCategory = Spacing;
unicode = 43539;
userData = {
RMXScaler = {
source = "ta-cham";
};
};
},
{
category = Letter;
glyphname = tha_cham;
kernLeft = dha;
kernRight = dha;
layers = (
{
anchors = (
{
name = Anchor13;
pos = (855,594);
},
{
name = Anchor14;
pos = (1044,418);
},
{
name = Anchor16;
pos = (980,274);
},
{
name = Anchor17;
pos = (990,274);
}
);
layerId = "9FF96064-8718-4A86-A5C8-73C592101F67";
shapes = (
{
closed = 1;
nodes = (
(1044,525,o),
(969,594,o),
(855,594,cs),
(741,594,o),
(668,533,o),
(668,442,cs),
(668,377,o),
(707,321,o),
(707,274,cs),
(707,223,o),
(666,189,o),
(617,189,cs),
(572,189,o),
(543,208,o),
(542,236,cs),
(541,258,o),
(558,270,o),
(579,270,cs),
(617,270,o),
(639,238,o),
(639,181,cs),
(639,95,o),
(588,50,o),
(508,50,cs),
(424,50,o),
(374,102,o),
(374,175,cs),
(374,252,o),
(439,320,o),
(439,422,cs),
(439,526,o),
(362,594,o),
(249,594,cs),
(132,594,o),
(53,525,o),
(53,418,cs),
(53,368,o),
(73,312,o),
(114,276,c),
(176,325,l),
(154,348,o),
(137,384,o),
(137,420,cs),
(137,485,o),
(179,525,o),
(247,525,cs),
(314,525,o),
(353,483,o),
(353,415,cs),
(353,332,o),
(288,263,o),
(288,170,cs),
(288,59,o),
(369,-17,o),
(498,-17,cs),
(623,-17,o),
(700,55,o),
(700,177,cs),
(700,260,o),
(648,313,o),
(580,313,cs),
(530,313,o),
(491,284,o),
(492,236,cs),
(492,180,o),
(546,144,o),
(623,144,cs),
(708,144,o),
(778,196,o),
(778,277,cs),
(778,327,o),
(748,379,o),
(748,427,cs),
(748,488,o),
(789,525,o),
(855,525,cs),
(919,525,o),
(960,487,o),
(960,421,cs),
(960,383,o),
(943,348,o),
(916,321,c),
(980,274,l),
(1023,319,o),
(1044,366,o),
(1044,421,cs)
);
}
);
userData = {
RMXScaler = {
verticalShift = -124;
};
};
width = 1097;
},
{
anchors = (
{
name = Anchor13;
pos = (973,653);
},
{
name = Anchor14;
pos = (1223,441);
},
{
name = Anchor16;
pos = (1148,272);
},
{
name = Anchor17;
pos = (1228,272);
}
);
layerId = "0A718E2F-231D-484E-9433-16A5230D2CE8";
shapes = (
{
closed = 1;
nodes = (
(1223,567,o),
(1127,653,o),
(973,653,cs),
(822,653,o),
(728,582,o),
(728,480,cs),
(728,406,o),
(775,345,o),
(775,297,cs),
(775,263,o),
(726,234,o),
(693,234,cs),
(653,234,o),
(635,249,o),
(635,268,cs),
(635,285,o),
(647,293,o),
(661,293,cs),
(690,293,o),
(706,265,o),
(706,212,cs),
(706,137,o),
(664,109,o),
(600,109,cs),
(526,109,o),
(484,151,o),
(484,208,cs),
(484,271,o),
(551,343,o),
(551,455,cs),
(551,573,o),
(446,653,o),
(300,653,cs),
(147,653,o),
(42,564,o),
(42,434,cs),
(42,377,o),
(64,307,o),
(120,266,c),
(253,366,l),
(237,380,o),
(220,410,o),
(220,440,cs),
(220,481,o),
(249,511,o),
(295,511,cs),
(342,511,o),
(369,479,o),
(369,438,cs),
(369,364,o),
(302,291,o),
(302,188,cs),
(302,59,o),
(403,-29,o),
(574,-29,cs),
(735,-29,o),
(828,53,o),
(828,203,cs),
(828,305,o),
(751,371,o),
(663,371,cs),
(593,371,o),
(542,334,o),
(542,267,cs),
(542,195,o),
(607,152,o),
(709,152,cs),
(812,152,o),
(923,209,o),
(923,306,cs),
(923,358,o),
(896,405,o),
(896,443,cs),
(896,485,o),
(926,511,o),
(973,511,cs),
(1016,511,o),
(1045,488,o),
(1045,442,cs),
(1045,414,o),
(1034,390,o),
(1010,367,c),
(1148,272,l),
(1204,334,o),
(1223,380,o),
(1223,443,cs)
);
}
);
userData = {
RMXScaler = {
verticalShift = -82;
};
};
width = 1265;
},
{
anchors = (
{
name = Anchor13;
pos = (779,556);
},
{
name = Anchor14;
pos = (929,403);
},
{
name = Anchor16;
pos = (872,276);
},
{
name = Anchor17;
pos = (872,276);
}
);
layerId = "AB666A95-3AF9-4DE8-B258-097FFCFE8A59";
shapes = (
{
closed = 1;
nodes = (
(929,497,o),
(868,556,o),
(779,556,cs),
(689,556,o),
(629,501,o),
(629,417,cs),
(629,359,o),
(662,305,o),
(662,259,cs),
(662,198,o),
(628,160,o),
(567,160,cs),
(519,160,o),
(483,181,o),
(482,215,cs),
(481,241,o),
(500,255,o),
(526,255,cs),
(569,255,o),
(595,221,o),
(595,161,cs),
(595,68,o),
(539,12,o),
(448,12,cs),
(358,12,o),
(302,70,o),
(302,155,cs),
(302,240,o),
(366,305,o),
(366,400,cs),
(366,496,o),
(307,556,o),
(216,556,cs),
(121,556,o),
(60,499,o),
(60,407,cs),
(60,362,o),
(79,316,o),
(109,283,c),
(126,298,l),
(101,326,o),
(84,367,o),
(84,407,cs),
(84,488,o),
(133,534,o),
(216,534,cs),
(295,534,o),
(342,485,o),
(342,400,cs),
(342,312,o),
(278,246,o),
(278,158,cs),
(278,59,o),
(346,-10,o),
(448,-10,cs),
(551,-10,o),
(618,57,o),
(618,161,cs),
(618,231,o),
(581,276,o),
(526,276,cs),
(488,276,o),
(458,252,o),
(459,216,cs),
(460,170,o),
(507,139,o),
(567,139,cs),
(640,139,o),
(685,187,o),
(685,259,cs),
(685,308,o),
(653,362,o),
(653,417,cs),
(653,490,o),
(701,534,o),
(779,534,cs),
(856,534,o),
(905,486,o),
(905,408,cs),
(905,363,o),
(885,321,o),
(856,292,c),
(872,276,l),
(906,309,o),
(929,357,o),
(929,408,cs)
);
}
);
userData = {
RMXScaler = {
verticalShift = -151;
};
};
width = 989;
}
);
metricLeft = dha_cham;
metricRight = dha_cham;
note = uniAA14;
production = uniAA14;
script = cham;
subCategory = Spacing;
unicode = 43540;
userData = {
RMXScaler = {
source = "tha-cham";
};
};
},
{
category = Letter;
glyphname = da_cham;
kernLeft = dha;
kernRight = dha;
layers = (
{
anchors = (
{
name = Anchor13;
pos = (776,594);
},
{
name = Anchor14;
pos = (968,418);
},
{
name = Anchor16;
pos = (904,274);
},
{
name = Anchor17;
pos = (984,274);
}
);
layerId = "9FF96064-8718-4A86-A5C8-73C592101F67";
shapes = (
{
closed = 1;
nodes = (
(968,525,o),
(892,594,o),
(776,594,cs),
(659,594,o),
(583,530,o),
(583,426,cs),
(583,343,o),
(625,270,o),
(625,198,cs),
(625,116,o),
(545,56,o),
(408,33,c),
(408,-16,l),
(475,42,o),
(506,108,o),
(506,175,cs),
(506,262,o),
(442,315,o),
(357,316,cs),
(340,316,o),
(322,313,o),
(304,309,c),
(325,264,l),
(399,291,o),
(441,357,o),
(441,426,cs),
(441,527,o),
(361,594,o),
(248,594,cs),
(132,594,o),
(53,524,o),
(53,420,cs),
(53,368,o),
(74,315,o),
(117,275,c),
(180,323,l),
(154,347,o),
(137,383,o),
(137,421,cs),
(137,485,o),
(181,525,o),
(247,525,cs),
(313,525,o),
(355,482,o),
(355,422,cs),
(355,371,o),
(325,325,o),
(271,302,c),
(286,252,l),
(302,256,o),
(316,259,o),
(331,259,cs),
(383,259,o),
(422,224,o),
(422,162,cs),
(422,107,o),
(399,60,o),
(351,1,c),
(368,-44,l),
(573,-8,o),
(711,84,o),
(711,202,cs),
(711,284,o),
(669,351,o),
(669,424,cs),
(669,486,o),
(708,525,o),
(775,525,cs),
(842,525,o),
(884,486,o),
(884,421,cs),
(884,383,o),
(867,349,o),
(842,324,c),
(904,275,l),
(947,316,o),
(968,368,o),
(968,421,cs)
);
}
);
userData = {
RMXScaler = {
verticalShift = -124;
};
};
width = 1021;
},
{
anchors = (
{
name = Anchor13;
pos = (898,653);
},
{
name = Anchor14;
pos = (1150,441);
},
{
name = Anchor16;
pos = (1069,272);
},
{
name = Anchor17;
pos = (1199,272);
}
);
layerId = "0A718E2F-231D-484E-9433-16A5230D2CE8";
shapes = (
{
closed = 1;
nodes = (
(1150,567,o),
(1051,653,o),
(898,653,cs),
(746,653,o),
(643,580,o),
(643,450,cs),
(643,364,o),
(685,286,o),
(685,224,cs),
(685,153,o),
(624,121,o),
(504,104,c),
(490,5,l),
(582,66,o),
(616,138,o),
(616,207,cs),
(616,310,o),
(532,363,o),
(428,363,cs),
(404,363,o),
(379,360,o),
(354,355,c),
(399,256,l),
(496,289,o),
(551,368,o),
(551,449,cs),
(551,573,o),
(446,653,o),
(299,653,cs),
(145,653,o),
(42,567,o),
(42,437,cs),
(42,381,o),
(63,320,o),
(121,269,c),
(254,368,l),
(233,387,o),
(220,413,o),
(220,441,cs),
(220,485,o),
(251,511,o),
(296,511,cs),
(344,511,o),
(369,476,o),
(369,437,cs),
(369,390,o),
(337,355,o),
(278,336,c),
(312,236,l),
(328,243,o),
(346,247,o),
(363,247,cs),
(400,247,o),
(438,227,o),
(438,175,cs),
(438,125,o),
(420,92,o),
(367,24,c),
(396,-61,l),
(666,-10,o),
(869,89,o),
(869,234,cs),
(869,316,o),
(825,381,o),
(825,445,cs),
(825,486,o),
(853,511,o),
(897,511,cs),
(942,511,o),
(972,485,o),
(972,443,cs),
(972,413,o),
(957,389,o),
(935,369,c),
(1069,269,l),
(1129,320,o),
(1150,380,o),
(1150,442,cs)
);
}
);
userData = {
RMXScaler = {
verticalShift = -82;
};
};
width = 1192;
},
{
anchors = (
{
name = Anchor13;
pos = (698,556);
},
{
name = Anchor14;
pos = (852,403);
},
{
name = Anchor16;
pos = (799,276);
},
{
name = Anchor17;
pos = (829,276);
}
);
layerId = "AB666A95-3AF9-4DE8-B258-097FFCFE8A59";
shapes = (
{
closed = 1;
nodes = (
(852,498,o),
(790,556,o),
(698,556,cs),
(604,556,o),
(545,498,o),
(545,410,cs),
(545,330,o),
(587,259,o),
(587,182,cs),
(587,92,o),
(495,14,o),
(347,-13,c),
(355,-30,l),
(406,27,o),
(435,89,o),
(435,154,cs),
(435,231,o),
(385,285,o),
(311,285,cs),
(299,285,o),
(286,283,o),
(272,280,c),
(278,269,l),
(337,293,o),
(370,350,o),
(370,412,cs),
(370,498,o),
(306,556,o),
(215,556,cs),
(124,556,o),
(60,496,o),
(60,409,cs),
(60,360,o),
(81,312,o),
(115,280,c),
(132,295,l),
(103,322,o),
(84,364,o),
(84,409,cs),
(84,484,o),
(136,534,o),
(215,534,cs),
(294,534,o),
(346,486,o),
(346,412,cs),
(346,358,o),
(318,306,o),
(266,280,c),
(270,262,l),
(285,265,o),
(298,266,o),
(311,266,cs),
(373,266,o),
(411,222,o),
(411,154,cs),
(411,95,o),
(385,38,o),
(340,-14,c),
(351,-33,l),
(513,-6,o),
(611,80,o),
(611,182,cs),
(611,264,o),
(569,333,o),
(569,411,cs),
(569,487,o),
(616,534,o),
(698,534,cs),
(778,534,o),
(828,487,o),
(828,408,cs),
(828,365,o),
(810,324,o),
(783,295,c),
(799,280,l),
(831,313,o),
(852,360,o),
(852,408,cs)
);
}
);
userData = {
RMXScaler = {
verticalShift = -151;
};
};
width = 912;
}
);
metricLeft = dha_cham;
metricRight = dha_cham;
note = uniAA15;
production = uniAA15;
script = cham;
subCategory = Spacing;
unicode = 43541;
userData = {
RMXScaler = {
source = "da-cham";
};
};
},
{
category = Letter;
glyphname = dha_cham;
kernLeft = dha;
kernRight = dha;
layers = (
{
anchors = (
{
name = Anchor13;
pos = (803,594);
},
{
name = Anchor14;
pos = (994,418);
},
{
name = Anchor16;
pos = (930,274);
},
{
name = Anchor17;
pos = (930,274);
}
);
layerId = "9FF96064-8718-4A86-A5C8-73C592101F67";
shapes = (
{
closed = 1;
nodes = (
(994,525,o),
(918,594,o),
(803,594,cs),
(685,594,o),
(611,531,o),
(611,439,cs),
(611,403,o),
(624,368,o),
(624,346,cs),
(624,236,o),
(468,241,o),
(468,122,cs),
(468,89,o),
(475,67,o),
(503,39,c),
(503,52,l),
(497,52,o),
(490,52,o),
(484,52,cs),
(416,52,o),
(373,101,o),
(373,170,cs),
(373,251,o),
(439,319,o),
(439,417,cs),
(439,526,o),
(361,594,o),
(249,594,cs),
(132,594,o),
(53,525,o),
(53,419,cs),
(53,368,o),
(74,316,o),
(116,275,c),
(178,323,l),
(154,349,o),
(137,383,o),
(137,421,cs),
(137,486,o),
(181,525,o),
(248,525,cs),
(314,525,o),
(353,481,o),
(353,414,cs),
(353,329,o),
(287,262,o),
(287,170,cs),
(287,61,o),
(370,-17,o),
(499,-17,cs),
(523,-17,o),
(547,-17,o),
(564,-16,c),
(586,37,l),
(562,65,o),
(551,82,o),
(551,111,cs),
(551,204,o),
(710,199,o),
(710,335,cs),
(710,367,o),
(697,396,o),
(697,428,cs),
(697,487,o),
(735,525,o),
(802,525,cs),
(868,525,o),
(910,486,o),
(910,421,cs),
(910,384,o),
(893,350,o),
(868,324,c),
(931,276,l),
(974,316,o),
(994,368,o),
(994,421,cs)
);
}
);
userData = {
RMXScaler = {
verticalShift = -124;
};
};
width = 1047;
},
{
anchors = (
{
name = Anchor13;
pos = (897,653);
},
{
name = Anchor14;
pos = (1150,441);
},
{
name = Anchor16;
pos = (1075,272);
},
{
name = Anchor17;
pos = (1075,272);
}
);
layerId = "0A718E2F-231D-484E-9433-16A5230D2CE8";
shapes = (
{
closed = 1;
nodes = (
(1150,567,o),
(1051,653,o),
(898,653,cs),
(746,653,o),
(651,579,o),
(651,475,cs),
(651,437,o),
(663,401,o),
(663,376,cs),
(663,276,o),
(520,280,o),
(520,144,cs),
(520,112,o),
(527,91,o),
(559,68,c),
(542,106,l),
(538,106,o),
(533,106,o),
(531,106,cs),
(503,106,o),
(481,150,o),
(481,193,cs),
(481,269,o),
(551,340,o),
(551,445,cs),
(551,573,o),
(446,653,o),
(299,653,cs),
(145,653,o),
(42,567,o),
(42,437,cs),
(42,381,o),
(63,320,o),
(121,269,c),
(254,368,l),
(233,387,o),
(220,413,o),
(220,441,cs),
(220,485,o),
(251,511,o),
(296,511,cs),
(344,511,o),
(369,476,o),
(369,437,cs),
(369,355,o),
(299,287,o),
(299,189,cs),
(299,69,o),
(404,-29,o),
(568,-29,cs),
(600,-29,o),
(631,-28,o),
(650,-25,c),
(689,66,l),
(667,91,o),
(658,105,o),
(658,126,cs),
(658,224,o),
(837,210,o),
(837,356,cs),
(837,394,o),
(825,423,o),
(825,446,cs),
(825,486,o),
(853,511,o),
(897,511,cs),
(942,511,o),
(972,485,o),
(972,443,cs),
(972,413,o),
(957,389,o),
(935,369,c),
(1069,269,l),
(1129,320,o),
(1150,380,o),
(1150,442,cs)
);
}
);
userData = {
RMXScaler = {
verticalShift = -82;
};
};
width = 1192;
},
{
anchors = (
{
name = Anchor13;
pos = (742,556);
},
{
name = Anchor14;
pos = (895,403);
},
{
name = Anchor16;
pos = (838,276);
},
{
name = Anchor17;
pos = (838,276);
}
);
layerId = "AB666A95-3AF9-4DE8-B258-097FFCFE8A59";
shapes = (
{
closed = 1;
nodes = (
(895,498,o),
(833,556,o),
(742,556,cs),
(647,556,o),
(588,500,o),
(588,416,cs),
(588,377,o),
(603,339,o),
(603,313,cs),
(603,196,o),
(429,210,o),
(429,94,cs),
(429,64,o),
(441,38,o),
(464,4,c),
(467,12,l),
(462,12,o),
(459,12,o),
(454,12,c),
(360,12,o),
(303,66,o),
(303,156,cs),
(303,240,o),
(367,306,o),
(367,400,cs),
(367,496,o),
(307,556,o),
(217,556,cs),
(124,556,o),
(60,498,o),
(60,408,cs),
(60,360,o),
(81,313,o),
(113,280,c),
(130,295,l),
(103,324,o),
(84,365,o),
(84,408,cs),
(84,487,o),
(136,534,o),
(217,534,cs),
(295,534,o),
(343,485,o),
(343,400,cs),
(343,313,o),
(279,246,o),
(279,157,cs),
(279,55,o),
(348,-10,o),
(454,-10,c),
(465,-10,o),
(477,-10,o),
(488,-10,c),
(493,3,l),
(466,35,o),
(453,65,o),
(453,94,cs),
(453,200,o),
(626,179,o),
(626,313,cs),
(626,345,o),
(612,377,o),
(612,417,cs),
(612,489,o),
(659,534,o),
(742,534,cs),
(821,534,o),
(871,487,o),
(871,408,cs),
(871,365,o),
(853,324,o),
(826,295,c),
(842,280,l),
(874,313,o),
(895,360,o),
(895,408,cs)
);
}
);
userData = {
RMXScaler = {
verticalShift = -151;
};
};
width = 955;
}
);
note = uniAA16;
production = uniAA16;
script = cham;
subCategory = Spacing;
unicode = 43542;
userData = {
RMXScaler = {
source = "dha-cham";
};
};
},
{
category = Letter;
glyphname = nue_cham;
kernLeft = cha;
kernRight = dha;
layers = (
{
anchors = (
{
name = Anchor13;
pos = (820,594);
},
{
name = Anchor14;
pos = (1011,418);
},
{
name = Anchor16;
pos = (946,274);
},
{
name = Anchor17;
pos = (1036,274);
}
);
layerId = "9FF96064-8718-4A86-A5C8-73C592101F67";
shapes = (
{
closed = 1;
nodes = (
(1011,524,o),
(934,594,o),
(820,594,cs),
(703,594,o),
(632,526,o),
(632,426,cs),
(632,341,o),
(670,272,o),
(670,199,cs),
(670,140,o),
(634,75,o),
(587,47,c),
(637,10,l),
(660,187,o),
(557,325,o),
(388,325,cs),
(258,325,o),
(156,239,o),
(156,124,cs),
(156,36,o),
(215,-17,o),
(294,-17,cs),
(409,-17,o),
(488,101,o),
(488,280,cs),
(488,482,o),
(393,594,o),
(249,594,cs),
(132,594,o),
(61,527,o),
(61,435,cs),
(61,379,o),
(85,332,o),
(118,302,c),
(174,347,l),
(156,367,o),
(143,395,o),
(143,429,cs),
(143,487,o),
(184,525,o),
(251,525,cs),
(345,525,o),
(404,443,o),
(404,284,cs),
(404,140,o),
(359,51,o),
(296,51,cs),
(261,51,o),
(239,80,o),
(239,127,cs),
(239,194,o),
(296,258,o),
(399,258,cs),
(503,258,o),
(586,169,o),
(574,15,c),
(615,-17,l),
(695,29,o),
(752,112,o),
(752,205,cs),
(752,292,o),
(717,353,o),
(717,424,cs),
(717,486,o),
(755,525,o),
(821,525,cs),
(883,525,o),
(927,488,o),
(927,421,cs),
(927,383,o),
(910,348,o),
(883,321,c),
(946,274,l),
(989,317,o),
(1011,366,o),
(1011,421,cs)
);
}
);
userData = {
RMXScaler = {
verticalShift = -124;
};
};
width = 1064;
},
{
anchors = (
{
name = Anchor13;
pos = (903,653);
},
{
name = Anchor14;
pos = (1149,441);
},
{
name = Anchor16;
pos = (1074,272);
},
{
name = Anchor17;
pos = (1214,272);
}
);
layerId = "0A718E2F-231D-484E-9433-16A5230D2CE8";
shapes = (
{
closed = 1;
nodes = (
(1151,567,o),
(1054,653,o),
(904,653,cs),
(750,653,o),
(658,567,o),
(658,448,cs),
(658,365,o),
(696,299,o),
(696,230,cs),
(696,182,o),
(673,124,o),
(656,105,c),
(714,23,l),
(748,209,o),
(617,362,o),
(415,362,cs),
(272,362,o),
(147,280,o),
(147,143,cs),
(147,34,o),
(222,-29,o),
(330,-29,cs),
(475,-29,o),
(577,101,o),
(577,296,cs),
(577,524,o),
(463,653,o),
(286,653,cs),
(147,653,o),
(56,578,o),
(56,470,cs),
(56,395,o),
(91,339,o),
(137,309,c),
(251,404,l),
(241,411,o),
(228,429,o),
(228,455,cs),
(228,494,o),
(259,511,o),
(290,511,cs),
(359,511,o),
(400,443,o),
(400,305,cs),
(400,179,o),
(369,109,o),
(333,109,cs),
(312,109,o),
(301,125,o),
(301,149,cs),
(301,197,o),
(348,249,o),
(439,249,cs),
(521,249,o),
(621,182,o),
(618,24,c),
(685,-29,l),
(799,30,o),
(868,128,o),
(868,245,cs),
(868,342,o),
(840,386,o),
(840,441,cs),
(840,485,o),
(863,511,o),
(906,511,cs),
(942,511,o),
(973,490,o),
(973,443,cs),
(973,416,o),
(962,390,o),
(938,367,c),
(1074,272,l),
(1131,330,o),
(1151,379,o),
(1151,441,cs)
);
}
);
userData = {
RMXScaler = {
verticalShift = -82;
};
};
width = 1193;
},
{
anchors = (
{
name = Anchor13;
pos = (766,556);
},
{
name = Anchor14;
pos = (921,403);
},
{
name = Anchor16;
pos = (864,276);
},
{
name = Anchor17;
pos = (904,276);
}
);
layerId = "AB666A95-3AF9-4DE8-B258-097FFCFE8A59";
shapes = (
{
closed = 1;
nodes = (
(921,497,o),
(858,556,o),
(766,556,cs),
(673,556,o),
(615,499,o),
(615,412,cs),
(615,326,o),
(654,255,o),
(654,180,cs),
(654,113,o),
(609,44,o),
(543,10,c),
(555,-2,l),
(578,167,o),
(501,289,o),
(362,289,cs),
(240,289,o),
(156,201,o),
(156,107,cs),
(156,36,o),
(203,-10,o),
(259,-10,cs),
(359,-10,o),
(430,102,o),
(430,269,cs),
(430,454,o),
(347,556,o),
(225,556,cs),
(123,556,o),
(64,494,o),
(64,412,cs),
(64,368,o),
(80,328,o),
(106,297,c),
(124,311,l),
(102,338,o),
(88,373,o),
(88,412,cs),
(88,483,o),
(135,534,o),
(226,534,cs),
(335,534,o),
(406,442,o),
(406,270,cs),
(406,113,o),
(348,12,o),
(259,12,cs),
(215,12,o),
(180,47,o),
(180,107,cs),
(180,190,o),
(252,267,o),
(362,267,cs),
(487,267,o),
(553,157,o),
(533,2,c),
(550,-10,l),
(628,28,o),
(678,101,o),
(678,180,cs),
(678,260,o),
(639,331,o),
(639,413,cs),
(639,487,o),
(685,534,o),
(766,534,cs),
(846,534,o),
(897,486,o),
(897,408,cs),
(897,363,o),
(877,321,o),
(848,292,c),
(864,276,l),
(898,309,o),
(921,357,o),
(921,408,cs)
);
}
);
userData = {
RMXScaler = {
verticalShift = -151;
};
};
width = 981;
}
);
metricLeft = cha_cham;
metricRight = dha_cham;
note = uniAA17;
production = uniAA17;
script = cham;
subCategory = Spacing;
unicode = 43543;
userData = {
RMXScaler = {
source = "nue-cham";
};
};
},
{
category = Letter;
glyphname = na_cham;
kernLeft = cha;
kernRight = dha;
layers = (
{
anchors = (
{
name = Anchor13;
pos = (820,594);
},
{
name = Anchor14;
pos = (1011,418);
},
{
name = Anchor16;
pos = (946,274);
},
{
name = Anchor17;
pos = (1086,334);
}
);
layerId = "9FF96064-8718-4A86-A5C8-73C592101F67";
shapes = (
{
closed = 1;
nodes = (
(488,482,o),
(393,594,o),
(249,594,cs),
(132,594,o),
(61,527,o),
(61,435,cs),
(61,379,o),
(85,332,o),
(118,302,c),
(174,347,l),
(156,367,o),
(143,395,o),
(143,429,cs),
(143,487,o),
(184,525,o),
(251,525,cs),
(345,525,o),
(404,443,o),
(404,284,cs),
(404,140,o),
(359,51,o),
(296,51,cs),
(261,51,o),
(239,80,o),
(239,127,cs),
(239,194,o),
(296,258,o),
(399,258,cs),
(503,258,o),
(586,169,o),
(574,15,c),
(637,10,l),
(660,187,o),
(557,325,o),
(388,325,cs),
(258,325,o),
(156,239,o),
(156,124,cs),
(156,36,o),
(215,-17,o),
(294,-17,cs),
(409,-17,o),
(488,101,o),
(488,280,cs)
);
},
{
closed = 1;
nodes = (
(1011,524,o),
(934,594,o),
(820,594,cs),
(703,594,o),
(632,526,o),
(632,426,cs),
(632,341,o),
(670,272,o),
(670,199,cs),
(670,136,o),
(636,67,o),
(554,19,cs),
(406,-68,o),
(364,-126,o),
(364,-184,cs),
(364,-251,o),
(418,-299,o),
(483,-299,cs),
(605,-299,o),
(623,-149,o),
(687,-149,cs),
(709,-149,o),
(722,-162,o),
(722,-183,cs),
(722,-195,o),
(717,-209,o),
(708,-222,c),
(776,-253,l),
(794,-228,o),
(803,-195,o),
(803,-172,cs),
(803,-119,o),
(760,-76,o),
(702,-76,cs),
(580,-76,o),
(562,-224,o),
(494,-224,cs),
(465,-224,o),
(448,-203,o),
(448,-177,cs),
(448,-139,o),
(475,-100,o),
(592,-32,cs),
(702,32,o),
(752,113,o),
(752,205,cs),
(752,292,o),
(717,353,o),
(717,424,cs),
(717,486,o),
(755,525,o),
(821,525,cs),
(883,525,o),
(927,488,o),
(927,421,cs),
(927,383,o),
(910,348,o),
(883,321,c),
(946,274,l),
(989,317,o),
(1011,366,o),
(1011,421,cs)
);
}
);
userData = {
RMXScaler = {
verticalShift = -124;
};
};
width = 1064;
},
{
anchors = (
{
name = Anchor13;
pos = (904,653);
},
{
name = Anchor14;
pos = (1151,441);
},
{
name = Anchor16;
pos = (1074,272);
},
{
name = Anchor17;
pos = (1252,312);
}
);
layerId = "0A718E2F-231D-484E-9433-16A5230D2CE8";
shapes = (
{
closed = 1;
nodes = (
(577,524,o),
(463,653,o),
(286,653,cs),
(147,653,o),
(56,578,o),
(56,470,cs),
(56,395,o),
(91,339,o),
(137,309,c),
(251,404,l),
(241,411,o),
(228,429,o),
(228,455,cs),
(228,494,o),
(259,511,o),
(290,511,cs),
(359,511,o),
(400,443,o),
(400,305,cs),
(400,179,o),
(369,109,o),
(333,109,cs),
(312,109,o),
(301,125,o),
(301,149,cs),
(301,197,o),
(348,249,o),
(439,249,cs),
(521,249,o),
(621,182,o),
(618,24,c),
(714,23,l),
(748,209,o),
(617,362,o),
(415,362,cs),
(272,362,o),
(147,280,o),
(147,143,cs),
(147,34,o),
(222,-29,o),
(330,-29,cs),
(475,-29,o),
(577,101,o),
(577,296,cs)
);
},
{
closed = 1;
nodes = (
(1151,567,o),
(1054,653,o),
(904,653,cs),
(750,653,o),
(658,567,o),
(658,448,cs),
(658,365,o),
(696,299,o),
(696,230,cs),
(696,170,o),
(667,96,o),
(590,51,cs),
(400,-60,o),
(374,-130,o),
(374,-195,cs),
(374,-286,o),
(449,-346,o),
(533,-346,cs),
(667,-346,o),
(697,-215,o),
(742,-215,cs),
(758,-215,o),
(767,-223,o),
(767,-238,cs),
(767,-248,o),
(764,-258,o),
(757,-269,c),
(878,-320,l),
(902,-288,o),
(910,-242,o),
(910,-215,cs),
(910,-144,o),
(852,-84,o),
(769,-84,cs),
(653,-84,o),
(595,-214,o),
(552,-214,cs),
(535,-214,o),
(522,-199,o),
(522,-181,cs),
(522,-149,o),
(549,-102,o),
(669,-38,cs),
(807,36,o),
(868,131,o),
(868,245,cs),
(868,342,o),
(840,386,o),
(840,441,cs),
(840,485,o),
(863,511,o),
(906,511,cs),
(942,511,o),
(973,490,o),
(973,443,cs),
(973,416,o),
(962,390,o),
(938,367,c),
(1074,272,l),
(1131,330,o),
(1151,379,o),
(1151,441,cs)
);
}
);
userData = {
RMXScaler = {
verticalShift = -82;
};
};
width = 1193;
},
{
anchors = (
{
name = Anchor13;
pos = (766,556);
},
{
name = Anchor14;
pos = (921,403);
},
{
name = Anchor16;
pos = (864,276);
},
{
name = Anchor17;
pos = (964,366);
}
);
layerId = "AB666A95-3AF9-4DE8-B258-097FFCFE8A59";
shapes = (
{
closed = 1;
nodes = (
(430,454,o),
(347,556,o),
(225,556,cs),
(123,556,o),
(64,494,o),
(64,412,cs),
(64,368,o),
(80,328,o),
(106,297,c),
(124,311,l),
(102,338,o),
(88,373,o),
(88,412,cs),
(88,483,o),
(135,534,o),
(226,534,cs),
(335,534,o),
(406,442,o),
(406,270,cs),
(406,113,o),
(348,12,o),
(259,12,cs),
(215,12,o),
(180,47,o),
(180,107,cs),
(180,190,o),
(252,267,o),
(362,267,cs),
(487,267,o),
(553,157,o),
(533,-4,c),
(555,-2,l),
(578,167,o),
(501,289,o),
(362,289,cs),
(240,289,o),
(156,201,o),
(156,107,cs),
(156,36,o),
(203,-10,o),
(259,-10,cs),
(359,-10,o),
(430,102,o),
(430,269,cs)
);
},
{
closed = 1;
nodes = (
(921,497,o),
(858,556,o),
(766,556,cs),
(673,556,o),
(615,499,o),
(615,412,cs),
(615,326,o),
(654,255,o),
(654,180,cs),
(654,113,o),
(617,54,o),
(535,2,cs),
(422,-70,o),
(392,-124,o),
(392,-167,cs),
(392,-211,o),
(426,-248,o),
(475,-248,cs),
(585,-248,o),
(593,-82,o),
(674,-82,cs),
(701,-82,o),
(718,-100,o),
(718,-124,cs),
(718,-139,o),
(711,-157,o),
(700,-171,c),
(718,-185,l),
(733,-166,o),
(742,-144,o),
(742,-124,cs),
(742,-89,o),
(713,-60,o),
(676,-60,cs),
(576,-60,o),
(567,-226,o),
(476,-226,cs),
(437,-226,o),
(416,-199,o),
(416,-167,cs),
(416,-133,o),
(434,-91,o),
(543,-20,cs),
(635,40,o),
(678,101,o),
(678,180,cs),
(678,260,o),
(639,331,o),
(639,413,cs),
(639,487,o),
(685,534,o),
(766,534,cs),
(846,534,o),
(897,486,o),
(897,408,cs),
(897,363,o),
(877,321,o),
(848,292,c),
(864,276,l),
(898,309,o),
(921,357,o),
(921,408,cs)
);
}
);
userData = {
RMXScaler = {
verticalShift = -151;
};
};
width = 981;
}
);
metricLeft = cha_cham;
metricRight = nue_cham;
note = uniAA18;
production = uniAA18;
script = cham;
subCategory = Spacing;
unicode = 43544;
userData = {
RMXScaler = {
source = "na-cham";
};
};
},
{
category = Letter;
glyphname = dda_cham;
kernLeft = cha;
kernRight = dha;
layers = (
{
anchors = (
{
name = Anchor13;
pos = (820,594);
},
{
name = Anchor14;
pos = (1011,418);
},
{
name = Anchor16;
pos = (946,274);
},
{
name = Anchor17;
pos = (1041,274);
}
);
layerId = "9FF96064-8718-4A86-A5C8-73C592101F67";
shapes = (
{
closed = 1;
nodes = (
(1011,524,o),
(934,594,o),
(820,594,cs),
(703,594,o),
(632,526,o),
(632,426,cs),
(632,341,o),
(670,272,o),
(670,199,cs),
(670,140,o),
(634,75,o),
(587,47,c),
(637,10,l),
(660,187,o),
(557,325,o),
(388,325,cs),
(258,325,o),
(156,239,o),
(156,124,cs),
(156,36,o),
(215,-17,o),
(294,-17,cs),
(309,-17,o),
(321,-16,o),
(332,-13,c),
(287,31,l),
(153,-65,o),
(112,-126,o),
(112,-184,cs),
(112,-251,o),
(166,-299,o),
(231,-299,cs),
(353,-299,o),
(371,-149,o),
(435,-149,cs),
(457,-149,o),
(470,-162,o),
(470,-183,cs),
(470,-195,o),
(465,-209,o),
(456,-222,c),
(524,-253,l),
(542,-228,o),
(551,-195,o),
(551,-172,cs),
(551,-119,o),
(508,-76,o),
(450,-76,cs),
(328,-76,o),
(310,-224,o),
(242,-224,cs),
(213,-224,o),
(196,-203,o),
(196,-177,cs),
(196,-139,o),
(224,-100,o),
(361,-5,cs),
(462,65,o),
(488,165,o),
(488,280,cs),
(488,482,o),
(393,594,o),
(249,594,cs),
(132,594,o),
(61,527,o),
(61,435,cs),
(61,379,o),
(85,332,o),
(118,302,c),
(174,347,l),
(156,367,o),
(143,395,o),
(143,429,cs),
(143,487,o),
(184,525,o),
(251,525,cs),
(345,525,o),
(404,443,o),
(404,284,cs),
(404,140,o),
(359,51,o),
(296,51,cs),
(261,51,o),
(239,80,o),
(239,127,cs),
(239,194,o),
(296,258,o),
(399,258,cs),
(503,258,o),
(586,169,o),
(574,15,c),
(615,-17,l),
(695,29,o),
(752,112,o),
(752,205,cs),
(752,292,o),
(717,353,o),
(717,424,cs),
(717,486,o),
(755,525,o),
(821,525,cs),
(883,525,o),
(927,488,o),
(927,421,cs),
(927,383,o),
(910,348,o),
(883,321,c),
(946,274,l),
(989,317,o),
(1011,366,o),
(1011,421,cs)
);
}
);
userData = {
RMXScaler = {
verticalShift = -124;
};
};
width = 1064;
},
{
anchors = (
{
name = Anchor13;
pos = (904,653);
},
{
name = Anchor14;
pos = (1151,441);
},
{
name = Anchor16;
pos = (1074,272);
},
{
name = Anchor17;
pos = (1224,272);
}
);
layerId = "0A718E2F-231D-484E-9433-16A5230D2CE8";
shapes = (
{
closed = 1;
nodes = (
(1151,567,o),
(1054,653,o),
(904,653,cs),
(750,653,o),
(658,567,o),
(658,448,cs),
(658,365,o),
(696,299,o),
(696,230,cs),
(696,182,o),
(673,124,o),
(656,105,c),
(714,23,l),
(748,209,o),
(617,362,o),
(415,362,cs),
(272,362,o),
(147,280,o),
(147,143,cs),
(147,34,o),
(222,-29,o),
(330,-29,cs),
(350,-29,o),
(368,-27,o),
(387,-24,c),
(338,73,l),
(119,-61,o),
(93,-130,o),
(93,-195,cs),
(93,-286,o),
(168,-346,o),
(252,-346,cs),
(386,-346,o),
(416,-215,o),
(461,-215,cs),
(477,-215,o),
(486,-223,o),
(486,-238,cs),
(486,-248,o),
(483,-258,o),
(476,-269,c),
(597,-320,l),
(621,-288,o),
(629,-242,o),
(629,-215,cs),
(629,-144,o),
(571,-84,o),
(488,-84,cs),
(372,-84,o),
(314,-214,o),
(271,-214,cs),
(254,-214,o),
(241,-199,o),
(241,-181,cs),
(241,-149,o),
(271,-109,o),
(415,-20,cs),
(538,56,o),
(577,167,o),
(577,296,cs),
(577,524,o),
(463,653,o),
(286,653,cs),
(147,653,o),
(56,578,o),
(56,470,cs),
(56,395,o),
(91,339,o),
(137,309,c),
(251,404,l),
(241,411,o),
(228,429,o),
(228,455,cs),
(228,494,o),
(259,511,o),
(290,511,cs),
(359,511,o),
(400,443,o),
(400,305,cs),
(400,179,o),
(369,109,o),
(333,109,cs),
(312,109,o),
(301,125,o),
(301,149,cs),
(301,197,o),
(348,249,o),
(439,249,cs),
(521,249,o),
(621,182,o),
(618,24,c),
(685,-29,l),
(799,30,o),
(868,128,o),
(868,245,cs),
(868,342,o),
(840,386,o),
(840,441,cs),
(840,485,o),
(863,511,o),
(906,511,cs),
(942,511,o),
(973,490,o),
(973,443,cs),
(973,416,o),
(962,390,o),
(938,367,c),
(1074,272,l),
(1131,330,o),
(1151,379,o),
(1151,441,cs)
);
}
);
userData = {
RMXScaler = {
verticalShift = -82;
};
};
width = 1193;
},
{
anchors = (
{
name = Anchor13;
pos = (766,556);
},
{
name = Anchor14;
pos = (921,403);
},
{
name = Anchor16;
pos = (864,276);
},
{
name = Anchor17;
pos = (904,276);
}
);
layerId = "AB666A95-3AF9-4DE8-B258-097FFCFE8A59";
shapes = (
{
closed = 1;
nodes = (
(921,497,o),
(858,556,o),
(766,556,cs),
(673,556,o),
(615,499,o),
(615,412,cs),
(615,326,o),
(654,255,o),
(654,180,cs),
(654,113,o),
(609,44,o),
(543,10,c),
(555,-2,l),
(578,167,o),
(501,289,o),
(362,289,cs),
(240,289,o),
(156,201,o),
(156,107,cs),
(156,36,o),
(203,-10,o),
(259,-10,cs),
(269,-10,o),
(285,-8,o),
(294,-5,c),
(293,9,l),
(169,-70,o),
(138,-114,o),
(138,-167,cs),
(138,-211,o),
(172,-248,o),
(221,-248,cs),
(331,-248,o),
(339,-82,o),
(420,-82,cs),
(447,-82,o),
(464,-100,o),
(464,-124,cs),
(464,-139,o),
(457,-157,o),
(446,-171,c),
(464,-185,l),
(479,-166,o),
(488,-144,o),
(488,-124,cs),
(488,-89,o),
(459,-60,o),
(422,-60,cs),
(322,-60,o),
(313,-226,o),
(222,-226,cs),
(183,-226,o),
(162,-199,o),
(162,-165,cs),
(162,-100,o),
(215,-72,o),
(328,8,cs),
(401,60,o),
(430,163,o),
(430,269,cs),
(430,454,o),
(347,556,o),
(225,556,cs),
(123,556,o),
(64,494,o),
(64,412,cs),
(64,368,o),
(80,328,o),
(106,297,c),
(124,311,l),
(102,338,o),
(88,373,o),
(88,412,cs),
(88,483,o),
(135,534,o),
(226,534,cs),
(335,534,o),
(406,442,o),
(406,270,cs),
(406,113,o),
(348,12,o),
(259,12,cs),
(215,12,o),
(180,47,o),
(180,107,cs),
(180,190,o),
(252,267,o),
(362,267,cs),
(487,267,o),
(553,157,o),
(533,2,c),
(550,-10,l),
(628,28,o),
(678,101,o),
(678,180,cs),
(678,260,o),
(639,331,o),
(639,413,cs),
(639,487,o),
(685,534,o),
(766,534,cs),
(846,534,o),
(897,486,o),
(897,408,cs),
(897,363,o),
(877,321,o),
(848,292,c),
(864,276,l),
(898,309,o),
(921,357,o),
(921,408,cs)
);
}
);
userData = {
RMXScaler = {
verticalShift = -151;
};
};
width = 981;
}
);
metricLeft = cha_cham;
metricRight = nue_cham;
note = uniAA19;
production = uniAA19;
script = cham;
subCategory = Spacing;
unicode = 43545;
userData = {
RMXScaler = {
source = "dda-cham";
};
};
},
{
category = Letter;
glyphname = pa_cham;
kernLeft = ha;
kernRight = dha;
layers = (
{
anchors = (
{
name = Anchor13;
pos = (925,594);
},
{
name = Anchor14;
pos = (1109,418);
},
{
name = Anchor16;
pos = (1050,273);
},
{
name = Anchor17;
pos = (1050,273);
}
);
layerId = "9FF96064-8718-4A86-A5C8-73C592101F67";
shapes = (
{
closed = 1;
nodes = (
(1109,523,o),
(1036,594,o),
(925,594,cs),
(814,594,o),
(735,518,o),
(735,390,c),
(786,390,l),
(787,518,o),
(707,594,o),
(594,594,cs),
(487,594,o),
(414,524,o),
(414,424,cs),
(414,337,o),
(455,277,o),
(455,196,cs),
(455,100,o),
(395,48,o),
(292,48,cs),
(195,48,o),
(132,96,o),
(132,166,cs),
(132,216,o),
(164,251,o),
(217,251,cs),
(270,251,o),
(303,215,o),
(303,152,cs),
(303,116,o),
(290,71,o),
(276,43,c),
(343,43,l),
(356,68,o),
(374,114,o),
(374,163,cs),
(374,258,o),
(308,317,o),
(214,317,cs),
(114,317,o),
(53,251,o),
(53,165,cs),
(53,57,o),
(151,-17,o),
(304,-17,cs),
(453,-17,o),
(540,65,o),
(540,191,cs),
(540,284,o),
(500,343,o),
(500,420,cs),
(500,483,o),
(541,525,o),
(608,525,cs),
(677,525,o),
(726,477,o),
(724,380,c),
(797,380,l),
(795,478,o),
(847,525,o),
(915,525,cs),
(983,525,o),
(1024,484,o),
(1024,418,cs),
(1024,380,o),
(1011,347,o),
(986,320,c),
(1050,274,l),
(1092,318,o),
(1109,363,o),
(1109,417,cs)
);
}
);
userData = {
RMXScaler = {
verticalShift = -124;
};
};
width = 1162;
},
{
anchors = (
{
name = Anchor13;
pos = (1017,653);
},
{
name = Anchor14;
pos = (1240,441);
},
{
name = Anchor16;
pos = (1163,272);
},
{
name = Anchor17;
pos = (1163,272);
}
);
layerId = "0A718E2F-231D-484E-9433-16A5230D2CE8";
shapes = (
{
closed = 1;
nodes = (
(1240,567,o),
(1149,653,o),
(1017,653,cs),
(878,653,o),
(785,560,o),
(785,414,c),
(892,414,l),
(892,560,o),
(794,653,o),
(655,653,cs),
(525,653,o),
(436,570,o),
(436,454,cs),
(436,365,o),
(480,302,o),
(480,224,cs),
(480,132,o),
(419,85,o),
(325,85,cs),
(235,85,o),
(181,130,o),
(181,187,cs),
(181,224,o),
(204,249,o),
(241,249,cs),
(280,249,o),
(303,220,o),
(303,171,cs),
(303,142,o),
(294,106,o),
(280,80,c),
(393,80,l),
(407,102,o),
(426,145,o),
(426,196,cs),
(426,298,o),
(347,361,o),
(236,361,cs),
(112,361,o),
(42,284,o),
(42,184,cs),
(42,58,o),
(159,-29,o),
(357,-29,cs),
(545,-29,o),
(658,70,o),
(658,213,cs),
(658,312,o),
(618,373,o),
(618,443,cs),
(618,481,o),
(644,511,o),
(687,511,cs),
(736,511,o),
(768,476,o),
(762,391,c),
(915,391,l),
(909,478,o),
(945,511,o),
(993,511,cs),
(1034,511,o),
(1062,484,o),
(1062,443,cs),
(1062,412,o),
(1051,390,o),
(1027,367,c),
(1163,272,l),
(1220,329,o),
(1240,379,o),
(1240,441,cs)
);
}
);
userData = {
RMXScaler = {
verticalShift = -82;
};
};
width = 1282;
},
{
anchors = (
{
name = Anchor13;
pos = (865,556);
},
{
name = Anchor14;
pos = (1022,403);
},
{
name = Anchor16;
pos = (975,275);
},
{
name = Anchor17;
pos = (975,275);
}
);
layerId = "AB666A95-3AF9-4DE8-B258-097FFCFE8A59";
shapes = (
{
closed = 1;
nodes = (
(1022,494,o),
(961,556,o),
(865,556,cs),
(770,556,o),
(701,491,o),
(701,374,c),
(716,374,l),
(717,490,o),
(649,556,o),
(554,556,cs),
(461,556,o),
(398,495,o),
(398,406,cs),
(398,319,o),
(437,263,o),
(437,178,cs),
(437,72,o),
(376,12,o),
(262,12,cs),
(157,12,o),
(84,64,o),
(84,147,cs),
(84,209,o),
(123,255,o),
(193,255,cs),
(257,255,o),
(300,210,o),
(300,134,cs),
(300,91,o),
(283,39,o),
(269,8,c),
(293,8,l),
(306,37,o),
(324,85,o),
(324,134,cs),
(324,221,o),
(269,276,o),
(192,276,cs),
(111,276,o),
(60,220,o),
(60,147,cs),
(60,53,o),
(145,-10,o),
(261,-10,cs),
(388,-10,o),
(461,61,o),
(461,177,cs),
(461,268,o),
(422,324,o),
(422,405,cs),
(422,484,o),
(473,534,o),
(556,534,cs),
(637,534,o),
(697,478,o),
(697,372,c),
(720,372,l),
(720,479,o),
(782,534,o),
(863,534,cs),
(949,534,o),
(998,483,o),
(998,402,cs),
(998,359,o),
(984,319,o),
(958,290,c),
(975,275,l),
(1007,310,o),
(1022,353,o),
(1022,402,cs)
);
}
);
userData = {
RMXScaler = {
verticalShift = -151;
};
};
width = 1082;
}
);
metricLeft = dha_cham;
metricRight = dha_cham;
note = uniAA1A;
production = uniAA1A;
script = cham;
subCategory = Spacing;
unicode = 43546;
userData = {
RMXScaler = {
source = "pa-cham";
};
};
},
{
category = Letter;
glyphname = ppa_cham;
kernLeft = dha;
kernRight = dha;
layers = (
{
anchors = (
{
name = Anchor13;
pos = (776,594);
},
{
name = Anchor14;
pos = (968,418);
},
{
name = Anchor16;
pos = (904,274);
},
{
name = Anchor17;
pos = (1014,274);
}
);
layerId = "9FF96064-8718-4A86-A5C8-73C592101F67";
shapes = (
{
closed = 1;
nodes = (
(968,525,o),
(892,594,o),
(776,594,cs),
(659,594,o),
(583,530,o),
(583,423,cs),
(583,343,o),
(644,248,o),
(644,165,cs),
(644,104,o),
(617,60,o),
(556,60,cs),
(478,60,o),
(400,133,o),
(312,133,cs),
(257,133,o),
(216,100,o),
(216,51,cs),
(216,-2,o),
(264,-30,o),
(316,-30,cs),
(423,-30,o),
(506,65,o),
(506,174,cs),
(506,262,o),
(442,316,o),
(357,316,cs),
(340,316,o),
(322,313,o),
(304,309,c),
(325,264,l),
(399,291,o),
(441,357,o),
(441,426,cs),
(441,527,o),
(360,594,o),
(248,594,cs),
(132,594,o),
(53,524,o),
(53,420,cs),
(53,368,o),
(74,315,o),
(117,275,c),
(180,323,l),
(154,347,o),
(137,383,o),
(137,421,cs),
(137,485,o),
(181,525,o),
(247,525,cs),
(313,525,o),
(355,482,o),
(355,422,cs),
(355,371,o),
(325,325,o),
(271,302,c),
(286,252,l),
(301,256,o),
(317,259,o),
(331,259,cs),
(383,259,o),
(421,224,o),
(421,162,cs),
(421,81,o),
(378,14,o),
(313,14,cs),
(286,14,o),
(263,27,o),
(263,50,cs),
(263,77,o),
(285,90,o),
(314,90,cs),
(396,90,o),
(472,-6,o),
(584,-6,cs),
(673,-6,o),
(730,57,o),
(730,157,cs),
(730,257,o),
(669,351,o),
(669,422,cs),
(669,486,o),
(709,525,o),
(776,525,cs),
(842,525,o),
(884,486,o),
(884,422,cs),
(884,384,o),
(867,350,o),
(842,324,c),
(904,276,l),
(947,316,o),
(968,368,o),
(968,421,cs)
);
}
);
userData = {
RMXScaler = {
verticalShift = -124;
};
};
width = 1021;
},
{
anchors = (
{
name = Anchor13;
pos = (898,653);
},
{
name = Anchor14;
pos = (1150,441);
},
{
name = Anchor16;
pos = (1069,272);
},
{
name = Anchor17;
pos = (1269,272);
}
);
layerId = "0A718E2F-231D-484E-9433-16A5230D2CE8";
shapes = (
{
closed = 1;
nodes = (
(1150,567,o),
(1051,653,o),
(898,653,cs),
(746,653,o),
(643,580,o),
(643,450,cs),
(643,364,o),
(708,280,o),
(708,212,cs),
(708,166,o),
(691,116,o),
(622,116,cs),
(527,116,o),
(438,188,o),
(334,188,cs),
(257,188,o),
(205,139,o),
(205,75,cs),
(205,-4,o),
(273,-41,o),
(349,-41,cs),
(504,-41,o),
(616,82,o),
(616,207,cs),
(616,310,o),
(532,363,o),
(428,363,cs),
(404,363,o),
(379,360,o),
(354,355,c),
(399,256,l),
(496,289,o),
(551,368,o),
(551,449,cs),
(551,573,o),
(446,653,o),
(299,653,cs),
(145,653,o),
(42,567,o),
(42,437,cs),
(42,381,o),
(63,320,o),
(121,269,c),
(254,368,l),
(233,387,o),
(220,413,o),
(220,441,cs),
(220,485,o),
(251,511,o),
(296,511,cs),
(344,511,o),
(369,476,o),
(369,437,cs),
(369,390,o),
(337,355,o),
(278,336,c),
(312,236,l),
(328,243,o),
(346,247,o),
(363,247,cs),
(400,247,o),
(438,227,o),
(438,175,cs),
(438,105,o),
(406,37,o),
(341,37,cs),
(309,37,o),
(290,52,o),
(290,73,cs),
(290,97,o),
(310,110,o),
(340,110,cs),
(443,110,o),
(522,-17,o),
(689,-17,cs),
(816,-17,o),
(890,63,o),
(890,192,cs),
(890,301,o),
(825,381,o),
(825,445,cs),
(825,486,o),
(853,511,o),
(897,511,cs),
(942,511,o),
(972,485,o),
(972,443,cs),
(972,413,o),
(957,389,o),
(935,369,c),
(1069,269,l),
(1129,320,o),
(1150,380,o),
(1150,442,cs)
);
}
);
userData = {
RMXScaler = {
verticalShift = -82;
};
};
width = 1192;
},
{
anchors = (
{
name = Anchor13;
pos = (698,556);
},
{
name = Anchor14;
pos = (852,403);
},
{
name = Anchor16;
pos = (799,276);
},
{
name = Anchor17;
pos = (869,276);
}
);
layerId = "AB666A95-3AF9-4DE8-B258-097FFCFE8A59";
shapes = (
{
closed = 1;
nodes = (
(852,498,o),
(790,556,o),
(698,556,cs),
(604,556,o),
(545,498,o),
(545,407,cs),
(545,330,o),
(604,226,o),
(604,135,cs),
(604,64,o),
(569,24,o),
(515,24,cs),
(446,24,o),
(375,98,o),
(298,98,cs),
(258,98,o),
(224,75,o),
(224,36,cs),
(224,0,o),
(259,-22,o),
(296,-22,cs),
(372,-22,o),
(435,55,o),
(435,154,cs),
(435,231,o),
(385,285,o),
(311,285,cs),
(299,285,o),
(286,283,o),
(272,280,c),
(278,269,l),
(337,293,o),
(370,350,o),
(370,412,cs),
(370,498,o),
(306,556,o),
(215,556,cs),
(124,556,o),
(60,496,o),
(60,409,cs),
(60,360,o),
(81,312,o),
(115,280,c),
(132,295,l),
(103,322,o),
(84,364,o),
(84,409,cs),
(84,484,o),
(136,534,o),
(215,534,cs),
(294,534,o),
(346,486,o),
(346,412,cs),
(346,358,o),
(318,306,o),
(266,280,c),
(270,262,l),
(285,265,o),
(298,266,o),
(311,266,cs),
(373,266,o),
(411,222,o),
(411,154,cs),
(411,66,o),
(360,-1,o),
(296,-1,cs),
(271,-1,o),
(246,11,o),
(246,36,cs),
(246,64,o),
(270,77,o),
(298,77,cs),
(366,77,o),
(440,2,o),
(516,2,cs),
(581,2,o),
(628,53,o),
(628,134,cs),
(628,229,o),
(569,333,o),
(569,407,cs),
(569,487,o),
(616,534,o),
(698,534,cs),
(778,534,o),
(828,487,o),
(828,408,cs),
(828,365,o),
(810,324,o),
(783,295,c),
(799,280,l),
(831,313,o),
(852,360,o),
(852,408,cs)
);
}
);
userData = {
RMXScaler = {
verticalShift = -151;
};
};
width = 912;
}
);
metricLeft = dha_cham;
metricRight = dha_cham;
note = uniAA1B;
production = uniAA1B;
script = cham;
subCategory = Spacing;
unicode = 43547;
userData = {
RMXScaler = {
source = "ppa-cham";
};
};
},
{
category = Letter;
glyphname = pha_cham;
kernLeft = ha;
kernRight = dha;
layers = (
{
anchors = (
{
name = Anchor13;
pos = (1241,594);
},
{
name = Anchor14;
pos = (1430,418);
},
{
name = Anchor16;
pos = (1366,274);
},
{
name = Anchor17;
pos = (1376,274);
}
);
layerId = "9FF96064-8718-4A86-A5C8-73C592101F67";
shapes = (
{
closed = 1;
nodes = (
(1430,525,o),
(1355,594,o),
(1241,594,cs),
(1127,594,o),
(1054,533,o),
(1054,442,cs),
(1054,377,o),
(1092,320,o),
(1092,274,cs),
(1092,224,o),
(1053,189,o),
(1003,189,cs),
(958,189,o),
(929,208,o),
(928,236,cs),
(927,258,o),
(944,270,o),
(965,270,cs),
(1002,270,o),
(1024,238,o),
(1024,181,cs),
(1024,95,o),
(974,50,o),
(894,50,cs),
(810,50,o),
(760,102,o),
(760,174,cs),
(760,252,o),
(820,321,o),
(820,421,cs),
(820,526,o),
(737,594,o),
(615,594,cs),
(493,594,o),
(412,524,o),
(412,424,cs),
(412,337,o),
(455,278,o),
(455,196,cs),
(455,100,o),
(395,48,o),
(292,48,cs),
(195,48,o),
(132,96,o),
(132,166,cs),
(132,216,o),
(164,251,o),
(217,251,cs),
(270,251,o),
(303,215,o),
(303,152,cs),
(303,116,o),
(290,71,o),
(276,43,c),
(343,43,l),
(356,68,o),
(374,114,o),
(374,163,cs),
(374,258,o),
(308,317,o),
(214,317,cs),
(114,317,o),
(53,251,o),
(53,165,cs),
(53,57,o),
(151,-17,o),
(304,-17,cs),
(453,-17,o),
(540,65,o),
(540,191,cs),
(540,285,o),
(497,345,o),
(497,417,cs),
(497,482,o),
(544,525,o),
(619,525,cs),
(692,525,o),
(734,479,o),
(734,412,cs),
(734,332,o),
(674,264,o),
(674,168,cs),
(674,59,o),
(754,-17,o),
(884,-17,cs),
(1009,-17,o),
(1086,55,o),
(1086,177,cs),
(1086,260,o),
(1033,313,o),
(966,313,cs),
(915,313,o),
(877,284,o),
(878,236,cs),
(878,180,o),
(932,144,o),
(1009,144,cs),
(1093,144,o),
(1164,196,o),
(1164,277,cs),
(1164,327,o),
(1134,379,o),
(1134,427,cs),
(1134,488,o),
(1175,525,o),
(1241,525,cs),
(1305,525,o),
(1346,487,o),
(1346,421,cs),
(1346,383,o),
(1330,348,o),
(1302,321,c),
(1366,274,l),
(1409,319,o),
(1430,366,o),
(1430,421,cs)
);
}
);
userData = {
RMXScaler = {
verticalShift = -124;
};
};
width = 1483;
},
{
anchors = (
{
name = Anchor13;
pos = (1416,653);
},
{
name = Anchor14;
pos = (1666,441);
},
{
name = Anchor16;
pos = (1591,272);
},
{
name = Anchor17;
pos = (1671,272);
}
);
layerId = "0A718E2F-231D-484E-9433-16A5230D2CE8";
shapes = (
{
closed = 1;
nodes = (
(1666,567,o),
(1570,653,o),
(1416,653,cs),
(1265,653,o),
(1171,582,o),
(1171,480,cs),
(1171,406,o),
(1218,345,o),
(1218,297,cs),
(1218,263,o),
(1169,234,o),
(1136,234,cs),
(1096,234,o),
(1078,249,o),
(1078,268,cs),
(1078,285,o),
(1090,293,o),
(1104,293,cs),
(1133,293,o),
(1149,265,o),
(1149,212,cs),
(1149,137,o),
(1107,109,o),
(1043,109,cs),
(969,109,o),
(927,151,o),
(927,208,cs),
(927,271,o),
(979,348,o),
(979,457,cs),
(979,578,o),
(864,653,o),
(702,653,cs),
(540,653,o),
(437,570,o),
(437,454,cs),
(437,365,o),
(480,302,o),
(480,224,cs),
(480,132,o),
(419,85,o),
(325,85,cs),
(235,85,o),
(181,130,o),
(181,187,cs),
(181,224,o),
(204,249,o),
(241,249,cs),
(280,249,o),
(303,220,o),
(303,171,cs),
(303,142,o),
(294,106,o),
(280,80,c),
(393,80,l),
(407,102,o),
(426,145,o),
(426,196,cs),
(426,298,o),
(347,361,o),
(236,361,cs),
(112,361,o),
(42,284,o),
(42,184,cs),
(42,58,o),
(159,-29,o),
(357,-29,cs),
(545,-29,o),
(658,70,o),
(658,213,cs),
(658,312,o),
(618,375,o),
(618,436,cs),
(618,481,o),
(653,511,o),
(709,511,cs),
(766,511,o),
(797,479,o),
(797,436,cs),
(797,364,o),
(745,291,o),
(745,188,cs),
(745,59,o),
(846,-29,o),
(1017,-29,cs),
(1178,-29,o),
(1271,53,o),
(1271,203,cs),
(1271,305,o),
(1194,371,o),
(1106,371,cs),
(1036,371,o),
(985,334,o),
(985,267,cs),
(985,195,o),
(1050,152,o),
(1152,152,cs),
(1255,152,o),
(1366,209,o),
(1366,306,cs),
(1366,358,o),
(1339,405,o),
(1339,443,cs),
(1339,485,o),
(1369,511,o),
(1416,511,cs),
(1459,511,o),
(1488,488,o),
(1488,442,cs),
(1488,414,o),
(1477,390,o),
(1453,367,c),
(1591,272,l),
(1647,334,o),
(1666,380,o),
(1666,443,cs)
);
}
);
userData = {
RMXScaler = {
verticalShift = -82;
};
};
width = 1708;
},
{
anchors = (
{
name = Anchor13;
pos = (1126,556);
},
{
name = Anchor14;
pos = (1276,403);
},
{
name = Anchor16;
pos = (1219,276);
},
{
name = Anchor17;
pos = (1219,276);
}
);
layerId = "AB666A95-3AF9-4DE8-B258-097FFCFE8A59";
shapes = (
{
closed = 1;
nodes = (
(1276,497,o),
(1215,556,o),
(1126,556,cs),
(1036,556,o),
(976,501,o),
(976,417,cs),
(976,359,o),
(1009,305,o),
(1009,259,cs),
(1009,198,o),
(975,160,o),
(914,160,cs),
(866,160,o),
(830,181,o),
(829,215,cs),
(828,241,o),
(847,255,o),
(873,255,cs),
(916,255,o),
(942,221,o),
(942,161,cs),
(942,68,o),
(886,12,o),
(795,12,cs),
(705,12,o),
(649,70,o),
(649,152,cs),
(649,240,o),
(715,304,o),
(715,397,cs),
(715,492,o),
(653,556,o),
(557,556,cs),
(459,556,o),
(393,495,o),
(393,406,cs),
(393,319,o),
(437,263,o),
(437,178,cs),
(437,72,o),
(376,12,o),
(262,12,cs),
(157,12,o),
(84,64,o),
(84,147,cs),
(84,209,o),
(123,255,o),
(193,255,cs),
(257,255,o),
(300,210,o),
(300,134,cs),
(300,91,o),
(283,39,o),
(269,8,c),
(293,8,l),
(306,37,o),
(324,85,o),
(324,134,cs),
(324,221,o),
(269,276,o),
(192,276,cs),
(111,276,o),
(60,220,o),
(60,147,cs),
(60,53,o),
(145,-10,o),
(261,-10,cs),
(388,-10,o),
(461,61,o),
(461,177,cs),
(461,268,o),
(417,324,o),
(417,405,cs),
(417,483,o),
(471,534,o),
(558,534,cs),
(641,534,o),
(691,480,o),
(691,397,cs),
(691,311,o),
(625,247,o),
(625,155,cs),
(625,59,o),
(693,-10,o),
(795,-10,cs),
(898,-10,o),
(965,57,o),
(965,161,cs),
(965,231,o),
(928,276,o),
(873,276,cs),
(835,276,o),
(805,252,o),
(806,216,cs),
(807,170,o),
(854,139,o),
(914,139,cs),
(987,139,o),
(1032,187,o),
(1032,259,cs),
(1032,308,o),
(1000,362,o),
(1000,417,cs),
(1000,490,o),
(1048,534,o),
(1126,534,cs),
(1203,534,o),
(1252,486,o),
(1252,408,cs),
(1252,363,o),
(1232,321,o),
(1203,292,c),
(1219,276,l),
(1253,309,o),
(1276,357,o),
(1276,408,cs)
);
}
);
userData = {
RMXScaler = {
verticalShift = -151;
};
};
width = 1336;
}
);
metricLeft = dha_cham;
metricRight = dha_cham;
note = uniAA1C;
production = uniAA1C;
script = cham;
subCategory = Spacing;
unicode = 43548;
userData = {
RMXScaler = {
source = "pha-cham";
};
};
},
{
category = Letter;
glyphname = ba_cham;
kernLeft = dha;
kernRight = dha;
layers = (
{
anchors = (
{
name = Anchor13;
pos = (754,594);
},
{
name = Anchor14;
pos = (950,418);
},
{
name = Anchor16;
pos = (889,279);
},
{
name = Anchor17;
pos = (1009,279);
}
);
layerId = "9FF96064-8718-4A86-A5C8-73C592101F67";
shapes = (
{
closed = 1;
nodes = (
(950,525,o),
(872,594,o),
(754,594,cs),
(642,594,o),
(565,526,o),
(565,422,cs),
(565,318,o),
(626,248,o),
(626,170,cs),
(626,98,o),
(580,51,o),
(502,51,cs),
(424,51,o),
(377,98,o),
(377,170,cs),
(377,248,o),
(438,318,o),
(438,422,cs),
(438,526,o),
(361,594,o),
(249,594,cs),
(131,594,o),
(53,525,o),
(53,418,cs),
(53,368,o),
(74,312,o),
(114,276,c),
(176,325,l),
(154,348,o),
(137,384,o),
(137,420,cs),
(137,485,o),
(179,525,o),
(247,525,cs),
(314,525,o),
(353,483,o),
(353,415,cs),
(353,332,o),
(288,263,o),
(288,170,cs),
(288,59,o),
(370,-17,o),
(503,-17,cs),
(635,-17,o),
(716,59,o),
(716,170,cs),
(716,263,o),
(651,332,o),
(651,415,cs),
(651,483,o),
(689,525,o),
(756,525,cs),
(824,525,o),
(866,485,o),
(866,420,cs),
(866,384,o),
(849,347,o),
(827,325,c),
(889,276,l),
(930,312,o),
(950,368,o),
(950,418,cs)
);
}
);
userData = {
RMXScaler = {
verticalShift = -124;
};
};
width = 1003;
},
{
anchors = (
{
name = Anchor13;
pos = (854,653);
},
{
name = Anchor14;
pos = (1112,441);
},
{
name = Anchor16;
pos = (1034,272);
},
{
name = Anchor17;
pos = (1244,272);
}
);
layerId = "0A718E2F-231D-484E-9433-16A5230D2CE8";
shapes = (
{
closed = 1;
nodes = (
(1112,564,o),
(1007,653,o),
(854,653,cs),
(708,653,o),
(603,573,o),
(603,455,cs),
(603,338,o),
(660,260,o),
(660,193,cs),
(660,140,o),
(634,113,o),
(579,113,cs),
(524,113,o),
(494,140,o),
(494,193,cs),
(494,260,o),
(551,338,o),
(551,455,cs),
(551,573,o),
(446,653,o),
(300,653,cs),
(147,653,o),
(42,564,o),
(42,434,cs),
(42,377,o),
(64,307,o),
(120,266,c),
(253,366,l),
(237,380,o),
(220,410,o),
(220,440,cs),
(220,481,o),
(249,511,o),
(295,511,cs),
(342,511,o),
(369,479,o),
(369,438,cs),
(369,364,o),
(302,291,o),
(302,188,cs),
(302,59,o),
(406,-29,o),
(580,-29,cs),
(754,-29,o),
(852,59,o),
(852,188,cs),
(852,291,o),
(785,364,o),
(785,438,cs),
(785,479,o),
(812,511,o),
(859,511,cs),
(905,511,o),
(934,481,o),
(934,440,cs),
(934,410,o),
(917,380,o),
(901,366,c),
(1034,266,l),
(1090,307,o),
(1112,377,o),
(1112,434,cs)
);
}
);
userData = {
RMXScaler = {
verticalShift = -82;
};
};
width = 1154;
},
{
anchors = (
{
name = Anchor13;
pos = (690,556);
},
{
name = Anchor14;
pos = (846,403);
},
{
name = Anchor16;
pos = (797,283);
},
{
name = Anchor17;
pos = (867,283);
}
);
layerId = "AB666A95-3AF9-4DE8-B258-097FFCFE8A59";
shapes = (
{
closed = 1;
nodes = (
(846,499,o),
(785,556,o),
(690,556,cs),
(599,556,o),
(540,496,o),
(540,400,cs),
(540,305,o),
(604,240,o),
(604,155,cs),
(604,71,o),
(546,12,o),
(453,12,cs),
(360,12,o),
(302,71,o),
(302,155,cs),
(302,240,o),
(366,305,o),
(366,400,cs),
(366,496,o),
(307,556,o),
(216,556,cs),
(121,556,o),
(60,499,o),
(60,407,cs),
(60,362,o),
(79,316,o),
(109,283,c),
(126,298,l),
(101,326,o),
(84,367,o),
(84,407,cs),
(84,488,o),
(133,534,o),
(216,534,cs),
(295,534,o),
(342,485,o),
(342,400,cs),
(342,312,o),
(278,246,o),
(278,158,cs),
(278,59,o),
(347,-10,o),
(453,-10,cs),
(559,-10,o),
(628,59,o),
(628,158,cs),
(628,246,o),
(564,312,o),
(564,400,cs),
(564,485,o),
(611,534,o),
(690,534,cs),
(773,534,o),
(822,488,o),
(822,407,cs),
(822,367,o),
(805,326,o),
(780,298,c),
(797,283,l),
(827,316,o),
(846,362,o),
(846,407,cs)
);
}
);
userData = {
RMXScaler = {
verticalShift = -151;
};
};
width = 906;
}
);
metricLeft = dha_cham;
metricRight = dha_cham;
note = uniAA1D;
production = uniAA1D;
script = cham;
subCategory = Spacing;
unicode = 43549;
userData = {
RMXScaler = {
source = "ba-cham";
};
};
},
{
category = Letter;
glyphname = bha_cham;
kernLeft = dha;
kernRight = dha;
layers = (
{
anchors = (
{
name = Anchor13;
pos = (1074,594);
},
{
name = Anchor14;
pos = (1257,418);
},
{
name = Anchor16;
pos = (1198,273);
},
{
name = Anchor17;
pos = (1198,273);
}
);
layerId = "9FF96064-8718-4A86-A5C8-73C592101F67";
shapes = (
{
closed = 1;
nodes = (
(1257,523,o),
(1184,594,o),
(1074,594,cs),
(962,594,o),
(883,519,o),
(883,390,c),
(938,390,l),
(938,519,o),
(856,594,o),
(743,594,cs),
(632,594,o),
(561,528,o),
(561,426,cs),
(561,335,o),
(622,258,o),
(622,174,cs),
(622,98,o),
(578,51,o),
(502,51,cs),
(424,51,o),
(377,98,o),
(377,170,cs),
(377,248,o),
(438,318,o),
(438,422,cs),
(438,526,o),
(361,594,o),
(249,594,cs),
(131,594,o),
(53,525,o),
(53,418,cs),
(53,368,o),
(73,312,o),
(113,276,c),
(176,325,l),
(154,348,o),
(137,384,o),
(137,420,cs),
(137,485,o),
(178,525,o),
(247,525,cs),
(313,525,o),
(352,483,o),
(352,415,cs),
(352,332,o),
(287,263,o),
(287,170,cs),
(287,59,o),
(370,-17,o),
(503,-17,cs),
(633,-17,o),
(711,58,o),
(711,173,cs),
(711,273,o),
(647,350,o),
(647,424,cs),
(647,485,o),
(686,525,o),
(757,525,cs),
(826,525,o),
(876,478,o),
(873,380,c),
(948,380,l),
(945,480,o),
(996,525,o),
(1063,525,cs),
(1132,525,o),
(1173,484,o),
(1173,418,cs),
(1173,380,o),
(1160,347,o),
(1135,320,c),
(1198,274,l),
(1240,318,o),
(1257,363,o),
(1257,417,cs)
);
}
);
userData = {
RMXScaler = {
verticalShift = -124;
};
};
width = 1310;
},
{
anchors = (
{
name = Anchor13;
pos = (1181,653);
},
{
name = Anchor14;
pos = (1404,441);
},
{
name = Anchor16;
pos = (1327,272);
},
{
name = Anchor17;
pos = (1327,272);
}
);
layerId = "0A718E2F-231D-484E-9433-16A5230D2CE8";
shapes = (
{
closed = 1;
nodes = (
(1404,567,o),
(1313,653,o),
(1181,653,cs),
(1042,653,o),
(949,560,o),
(949,414,c),
(1056,414,l),
(1056,560,o),
(958,653,o),
(819,653,cs),
(689,653,o),
(603,574,o),
(603,455,cs),
(603,351,o),
(660,268,o),
(660,197,cs),
(660,139,o),
(632,113,o),
(579,113,cs),
(524,113,o),
(494,140,o),
(494,193,cs),
(494,260,o),
(551,338,o),
(551,455,cs),
(551,573,o),
(446,653,o),
(300,653,cs),
(147,653,o),
(42,564,o),
(42,434,cs),
(42,377,o),
(64,307,o),
(120,266,c),
(253,366,l),
(237,380,o),
(220,410,o),
(220,440,cs),
(220,481,o),
(249,511,o),
(295,511,cs),
(342,511,o),
(369,479,o),
(369,438,cs),
(369,364,o),
(302,291,o),
(302,188,cs),
(302,59,o),
(406,-29,o),
(580,-29,cs),
(751,-29,o),
(852,58,o),
(852,193,cs),
(852,299,o),
(785,379,o),
(785,448,cs),
(785,481,o),
(808,511,o),
(851,511,cs),
(900,511,o),
(932,476,o),
(926,391,c),
(1079,391,l),
(1073,478,o),
(1109,511,o),
(1157,511,cs),
(1198,511,o),
(1226,484,o),
(1226,443,cs),
(1226,412,o),
(1215,390,o),
(1191,367,c),
(1327,272,l),
(1384,329,o),
(1404,379,o),
(1404,441,cs)
);
}
);
userData = {
RMXScaler = {
verticalShift = -82;
};
};
width = 1446;
},
{
anchors = (
{
name = Anchor13;
pos = (1006,556);
},
{
name = Anchor14;
pos = (1163,403);
},
{
name = Anchor16;
pos = (1116,275);
},
{
name = Anchor17;
pos = (1116,275);
}
);
layerId = "AB666A95-3AF9-4DE8-B258-097FFCFE8A59";
shapes = (
{
closed = 1;
nodes = (
(1163,494,o),
(1102,556,o),
(1006,556,cs),
(911,556,o),
(843,493,o),
(843,375,c),
(861,375,l),
(861,492,o),
(791,556,o),
(695,556,cs),
(596,556,o),
(534,498,o),
(534,408,cs),
(534,325,o),
(597,251,o),
(597,160,cs),
(597,71,o),
(544,12,o),
(453,12,cs),
(360,12,o),
(302,71,o),
(302,155,cs),
(302,240,o),
(366,305,o),
(366,400,cs),
(366,496,o),
(307,556,o),
(216,556,cs),
(121,556,o),
(60,499,o),
(60,407,cs),
(60,362,o),
(79,316,o),
(109,283,c),
(126,298,l),
(101,326,o),
(84,367,o),
(84,407,cs),
(84,488,o),
(133,534,o),
(216,534,cs),
(295,534,o),
(342,485,o),
(342,400,cs),
(342,312,o),
(278,246,o),
(278,158,cs),
(278,59,o),
(347,-10,o),
(453,-10,cs),
(557,-10,o),
(621,58,o),
(621,160,cs),
(621,257,o),
(558,331,o),
(558,408,cs),
(558,487,o),
(608,534,o),
(697,534,cs),
(779,534,o),
(840,480,o),
(840,372,c),
(864,372,l),
(864,481,o),
(924,534,o),
(1004,534,cs),
(1090,534,o),
(1139,483,o),
(1139,402,cs),
(1139,359,o),
(1125,319,o),
(1099,290,c),
(1116,275,l),
(1148,310,o),
(1163,353,o),
(1163,402,cs)
);
}
);
userData = {
RMXScaler = {
verticalShift = -151;
};
};
width = 1223;
}
);
metricLeft = dha_cham;
metricRight = dha_cham;
note = uniAA1E;
production = uniAA1E;
script = cham;
subCategory = Spacing;
unicode = 43550;
userData = {
RMXScaler = {
source = "bha-cham";
};
};
},
{
category = Letter;
glyphname = mue_cham;
kernLeft = dha;
kernRight = dha;
layers = (
{
anchors = (
{
name = Anchor13;
pos = (803,594);
},
{
name = Anchor14;
pos = (994,418);
},
{
name = Anchor16;
pos = (931,274);
},
{
name = Anchor17;
pos = (951,274);
}
);
layerId = "9FF96064-8718-4A86-A5C8-73C592101F67";
shapes = (
{
closed = 1;
nodes = (
(462,275,l),
(662,110,l),
(701,160,l),
(502,326,l)
);
},
{
closed = 1;
nodes = (
(994,525,o),
(918,594,o),
(803,594,cs),
(685,594,o),
(613,531,o),
(613,439,cs),
(613,399,o),
(627,361,o),
(627,334,cs),
(627,222,o),
(464,233,o),
(464,113,cs),
(464,82,o),
(474,58,o),
(501,29,c),
(496,49,l),
(492,49,o),
(488,49,o),
(484,49,cs),
(416,49,o),
(372,99,o),
(372,170,cs),
(372,251,o),
(439,319,o),
(439,417,cs),
(439,526,o),
(361,594,o),
(249,594,cs),
(132,594,o),
(53,525,o),
(53,419,cs),
(53,368,o),
(74,316,o),
(116,275,c),
(178,323,l),
(154,349,o),
(137,383,o),
(137,421,cs),
(137,486,o),
(181,525,o),
(248,525,cs),
(314,525,o),
(353,481,o),
(353,414,cs),
(353,329,o),
(287,262,o),
(287,170,cs),
(287,61,o),
(370,-17,o),
(499,-17,cs),
(518,-17,o),
(537,-17,o),
(551,-16,c),
(569,28,l),
(542,57,o),
(529,81,o),
(529,110,cs),
(529,214,o),
(708,195,o),
(708,336,cs),
(708,368,o),
(695,396,o),
(695,428,cs),
(695,487,o),
(735,525,o),
(802,525,cs),
(868,525,o),
(910,486,o),
(910,421,cs),
(910,384,o),
(893,350,o),
(868,324,c),
(931,276,l),
(974,316,o),
(994,368,o),
(994,421,cs)
);
}
);
userData = {
RMXScaler = {
verticalShift = -124;
};
};
width = 1047;
},
{
anchors = (
{
name = Anchor13;
pos = (898,653);
},
{
name = Anchor14;
pos = (1150,441);
},
{
name = Anchor16;
pos = (1069,273);
},
{
name = Anchor17;
pos = (1159,273);
}
);
layerId = "0A718E2F-231D-484E-9433-16A5230D2CE8";
shapes = (
{
closed = 1;
nodes = (
(516,276,l),
(740,110,l),
(819,216,l),
(596,384,l)
);
},
{
closed = 1;
nodes = (
(1150,567,o),
(1051,653,o),
(898,653,cs),
(746,653,o),
(651,579,o),
(651,475,cs),
(651,434,o),
(663,394,o),
(663,367,cs),
(663,218,o),
(520,263,o),
(520,137,cs),
(520,108,o),
(527,91,o),
(559,68,c),
(542,106,l),
(538,106,o),
(528,106,o),
(526,106,cs),
(498,106,o),
(476,153,o),
(476,200,cs),
(476,276,o),
(546,347,o),
(546,452,cs),
(546,575,o),
(446,653,o),
(299,653,cs),
(145,653,o),
(42,567,o),
(42,437,cs),
(42,381,o),
(63,320,o),
(121,269,c),
(254,368,l),
(233,387,o),
(220,413,o),
(220,441,cs),
(220,485,o),
(251,511,o),
(296,511,cs),
(344,511,o),
(369,476,o),
(369,437,cs),
(369,355,o),
(299,287,o),
(299,189,cs),
(299,69,o),
(404,-29,o),
(568,-29,cs),
(600,-29,o),
(631,-28,o),
(650,-25,c),
(689,66,l),
(660,91,o),
(648,109,o),
(648,151,cs),
(648,255,o),
(834,250,o),
(834,376,cs),
(834,408,o),
(825,427,o),
(825,446,cs),
(825,486,o),
(853,511,o),
(897,511,cs),
(942,511,o),
(972,485,o),
(972,443,cs),
(972,413,o),
(957,389,o),
(935,369,c),
(1069,269,l),
(1129,320,o),
(1150,380,o),
(1150,442,cs)
);
}
);
userData = {
RMXScaler = {
verticalShift = -82;
};
};
width = 1192;
},
{
anchors = (
{
name = Anchor13;
pos = (742,556);
},
{
name = Anchor14;
pos = (895,403);
},
{
name = Anchor16;
pos = (842,276);
},
{
name = Anchor17;
pos = (842,276);
}
);
layerId = "AB666A95-3AF9-4DE8-B258-097FFCFE8A59";
shapes = (
{
closed = 1;
nodes = (
(433,277,l),
(618,112,l),
(631,127,l),
(447,293,l)
);
},
{
closed = 1;
nodes = (
(895,498,o),
(833,556,o),
(742,556,cs),
(647,556,o),
(588,500,o),
(588,416,cs),
(588,377,o),
(603,339,o),
(603,313,cs),
(603,196,o),
(429,210,o),
(429,94,cs),
(429,64,o),
(441,38,o),
(464,4,c),
(467,12,l),
(462,12,o),
(459,12,o),
(454,12,c),
(360,12,o),
(303,66,o),
(303,156,cs),
(303,240,o),
(367,306,o),
(367,400,cs),
(367,496,o),
(307,556,o),
(217,556,cs),
(124,556,o),
(60,498,o),
(60,408,cs),
(60,360,o),
(81,313,o),
(113,280,c),
(130,295,l),
(103,324,o),
(84,365,o),
(84,408,cs),
(84,487,o),
(136,534,o),
(217,534,cs),
(295,534,o),
(343,485,o),
(343,400,cs),
(343,313,o),
(279,246,o),
(279,157,cs),
(279,55,o),
(348,-10,o),
(454,-10,c),
(465,-10,o),
(477,-10,o),
(488,-10,c),
(493,3,l),
(466,35,o),
(453,65,o),
(453,94,cs),
(453,200,o),
(626,179,o),
(626,313,cs),
(626,345,o),
(612,377,o),
(612,417,cs),
(612,489,o),
(659,534,o),
(742,534,cs),
(821,534,o),
(871,487,o),
(871,408,cs),
(871,365,o),
(853,324,o),
(826,295,c),
(842,280,l),
(874,313,o),
(895,360,o),
(895,408,cs)
);
}
);
userData = {
RMXScaler = {
verticalShift = -151;
};
};
width = 955;
}
);
metricLeft = dha_cham;
metricRight = dha_cham;
note = uniAA1F;
production = uniAA1F;
script = cham;
subCategory = Spacing;
unicode = 43551;
userData = {
RMXScaler = {
source = "mue-cham";
};
};
},
{
category = Letter;
glyphname = ma_cham;
kernLeft = dha;
kernRight = dha;
layers = (
{
anchors = (
{
name = Anchor13;
pos = (803,594);
},
{
name = Anchor14;
pos = (994,418);
},
{
name = Anchor16;
pos = (975,391);
},
{
name = Anchor17;
pos = (1131,394);
}
);
layerId = "9FF96064-8718-4A86-A5C8-73C592101F67";
shapes = (
{
closed = 1;
nodes = (
(917,-119,o),
(874,-76,o),
(816,-76,cs),
(694,-76,o),
(680,-224,o),
(614,-224,cs),
(585,-224,o),
(568,-203,o),
(568,-177,cs),
(568,-111,o),
(660,22,o),
(660,143,cs),
(660,243,o),
(590,316,o),
(480,334,c),
(468,284,l),
(540,272,o),
(598,219,o),
(598,141,cs),
(598,9,o),
(484,-97,o),
(484,-186,cs),
(484,-254,o),
(538,-299,o),
(603,-299,cs),
(723,-299,o),
(737,-149,o),
(801,-149,cs),
(823,-149,o),
(836,-162,o),
(836,-183,cs),
(836,-195,o),
(831,-209,o),
(822,-222,c),
(890,-253,l),
(908,-228,o),
(917,-195,o),
(917,-172,cs)
);
},
{
ref = dha_withcrossstroke;
}
);
userData = {
RMXScaler = {
verticalShift = -124;
};
};
width = 1047;
},
{
anchors = (
{
name = Anchor13;
pos = (897,653);
},
{
name = Anchor14;
pos = (1150,441);
},
{
name = Anchor16;
pos = (1155,372);
},
{
name = Anchor17;
pos = (1365,362);
}
);
layerId = "0A718E2F-231D-484E-9433-16A5230D2CE8";
shapes = (
{
closed = 1;
nodes = (
(1068,-144,o),
(1010,-84,o),
(927,-84,cs),
(811,-84,o),
(755,-214,o),
(715,-214,cs),
(698,-214,o),
(685,-199,o),
(685,-181,cs),
(685,-124,o),
(810,16,o),
(810,158,cs),
(810,267,o),
(715,360,o),
(567,387,c),
(544,293,l),
(623,279,o),
(692,226,o),
(692,150,cs),
(692,12,o),
(537,-88,o),
(537,-205,cs),
(537,-290,o),
(612,-346,o),
(696,-346,cs),
(827,-346,o),
(855,-215,o),
(900,-215,cs),
(916,-215,o),
(925,-223,o),
(925,-238,cs),
(925,-248,o),
(922,-258,o),
(915,-269,c),
(1036,-320,l),
(1060,-288,o),
(1068,-242,o),
(1068,-215,cs)
);
},
{
ref = dha_withcrossstroke;
}
);
userData = {
RMXScaler = {
verticalShift = -82;
};
};
width = 1192;
},
{
anchors = (
{
name = Anchor13;
pos = (742,556);
},
{
name = Anchor14;
pos = (895,403);
},
{
name = Anchor16;
pos = (851,400);
},
{
name = Anchor17;
pos = (942,406);
}
);
layerId = "AB666A95-3AF9-4DE8-B258-097FFCFE8A59";
shapes = (
{
closed = 1;
nodes = (
(787,-89,o),
(758,-60,o),
(721,-60,cs),
(621,-60,o),
(608,-226,o),
(525,-226,cs),
(486,-226,o),
(465,-199,o),
(465,-165,cs),
(465,-96,o),
(565,18,o),
(565,126,cs),
(565,218,o),
(511,284,o),
(424,297,c),
(419,276,l),
(494,265,o),
(541,208,o),
(541,126,cs),
(541,21,o),
(441,-93,o),
(441,-165,cs),
(441,-211,o),
(475,-248,o),
(524,-248,cs),
(626,-248,o),
(638,-82,o),
(719,-82,cs),
(746,-82,o),
(763,-100,o),
(763,-124,cs),
(763,-139,o),
(756,-157,o),
(745,-171,c),
(763,-185,l),
(778,-166,o),
(787,-144,o),
(787,-124,cs)
);
},
{
ref = dha_withcrossstroke;
}
);
userData = {
RMXScaler = {
verticalShift = -151;
};
};
width = 955;
}
);
metricLeft = dha_cham;
metricRight = dha_cham;
note = uniAA20;
production = uniAA20;
script = cham;
subCategory = Spacing;
unicode = 43552;
userData = {
RMXScaler = {
source = "ma-cham";
};
};
},
{
category = Letter;
glyphname = bba_cham;
kernLeft = dha;
kernRight = dha;
layers = (
{
anchors = (
{
name = Anchor13;
pos = (803,594);
},
{
name = Anchor14;
pos = (994,418);
},
{
name = Anchor16;
pos = (981,274);
},
{
name = Anchor17;
pos = (1131,274);
}
);
layerId = "9FF96064-8718-4A86-A5C8-73C592101F67";
shapes = (
{
closed = 1;
nodes = (
(781,51,o),
(690,193,o),
(513,320,c),
(476,261,l),
(660,147,o),
(709,8,o),
(709,-111,cs),
(709,-196,o),
(686,-235,o),
(650,-235,cs),
(617,-235,o),
(597,-200,o),
(597,-146,cs),
(597,-72,o),
(648,39,o),
(789,190,c),
(742,237,l),
(594,80,o),
(526,-41,o),
(526,-148,cs),
(526,-240,o),
(574,-299,o),
(651,-299,cs),
(732,-299,o),
(781,-232,o),
(781,-113,cs)
);
},
{
ref = dha_withcrossstroke;
}
);
userData = {
RMXScaler = {
verticalShift = -124;
};
};
width = 1047;
},
{
anchors = (
{
name = Anchor13;
pos = (897,653);
},
{
name = Anchor14;
pos = (1150,441);
},
{
name = Anchor16;
pos = (1125,272);
},
{
name = Anchor17;
pos = (1315,272);
}
);
layerId = "0A718E2F-231D-484E-9433-16A5230D2CE8";
shapes = (
{
closed = 1;
nodes = (
(900,64,o),
(795,211,o),
(584,361,c),
(524,267,l),
(755,134,o),
(784,-16,o),
(784,-123,cs),
(784,-211,o),
(764,-243,o),
(732,-243,cs),
(702,-243,o),
(685,-210,o),
(685,-163,cs),
(685,-110,o),
(728,14,o),
(907,190,c),
(835,264,l),
(643,83,o),
(571,-57,o),
(571,-166,cs),
(571,-275,o),
(635,-346,o),
(735,-346,cs),
(835,-346,o),
(900,-268,o),
(900,-126,cs)
);
},
{
ref = dha_withcrossstroke;
}
);
userData = {
RMXScaler = {
verticalShift = -82;
};
};
width = 1192;
},
{
anchors = (
{
name = Anchor13;
pos = (742,556);
},
{
name = Anchor14;
pos = (895,403);
},
{
name = Anchor16;
pos = (842,276);
},
{
name = Anchor17;
pos = (952,276);
}
);
layerId = "AB666A95-3AF9-4DE8-B258-097FFCFE8A59";
shapes = (
{
closed = 1;
nodes = (
(666,37,o),
(590,175,o),
(452,276,c),
(439,257,l),
(571,162,o),
(642,37,o),
(642,-98,cs),
(642,-179,o),
(616,-226,o),
(575,-226,cs),
(540,-226,o),
(516,-188,o),
(516,-128,cs),
(516,-31,o),
(574,65,o),
(675,189,c),
(658,204,l),
(554,77,o),
(492,-25,o),
(492,-128,cs),
(492,-201,o),
(525,-248,o),
(575,-248,cs),
(633,-248,o),
(666,-192,o),
(666,-98,cs)
);
},
{
ref = dha_withcrossstroke;
}
);
userData = {
RMXScaler = {
verticalShift = -151;
};
};
width = 955;
}
);
metricLeft = dha_cham;
metricRight = dha_cham;
note = uniAA21;
production = uniAA21;
script = cham;
subCategory = Spacing;
unicode = 43553;
userData = {
RMXScaler = {
source = "bba-cham";
};
};
},
{
category = Letter;
glyphname = ya_cham;
kernLeft = dha;
kernRight = dha;
layers = (
{
anchors = (
{
name = Anchor13;
pos = (1061,594);
},
{
name = Anchor14;
pos = (1245,418);
},
{
name = Anchor16;
pos = (1186,274);
},
{
name = Anchor17;
pos = (1186,274);
}
);
layerId = "9FF96064-8718-4A86-A5C8-73C592101F67";
shapes = (
{
closed = 1;
nodes = (
(1245,523,o),
(1173,594,o),
(1061,594,cs),
(950,594,o),
(872,518,o),
(872,390,c),
(925,390,l),
(926,518,o),
(845,594,o),
(733,594,cs),
(625,594,o),
(552,525,o),
(552,423,cs),
(552,334,o),
(593,272,o),
(593,211,cs),
(593,127,o),
(514,70,o),
(376,41,c),
(378,19,l),
(428,139,o),
(454,263,o),
(454,353,cs),
(454,509,o),
(371,594,o),
(250,594,cs),
(133,594,o),
(53,525,o),
(53,419,cs),
(53,368,o),
(74,316,o),
(116,275,c),
(178,323,l),
(154,349,o),
(137,383,o),
(137,421,cs),
(137,486,o),
(181,525,o),
(248,525,cs),
(324,525,o),
(368,461,o),
(368,349,cs),
(368,250,o),
(335,106,o),
(283,-3,c),
(297,-44,l),
(539,-6,o),
(679,79,o),
(679,207,cs),
(679,286,o),
(637,345,o),
(637,421,cs),
(637,482,o),
(679,525,o),
(746,525,cs),
(815,525,o),
(864,477,o),
(862,380,c),
(935,380,l),
(933,479,o),
(984,525,o),
(1052,525,cs),
(1119,525,o),
(1161,483,o),
(1161,419,cs),
(1161,380,o),
(1148,347,o),
(1123,320,c),
(1186,273,l),
(1228,318,o),
(1245,363,o),
(1245,418,cs)
);
}
);
userData = {
RMXScaler = {
verticalShift = -124;
};
};
width = 1298;
},
{
anchors = (
{
name = Anchor13;
pos = (1204,653);
},
{
name = Anchor14;
pos = (1427,441);
},
{
name = Anchor16;
pos = (1350,272);
},
{
name = Anchor17;
pos = (1350,272);
}
);
layerId = "0A718E2F-231D-484E-9433-16A5230D2CE8";
shapes = (
{
closed = 1;
nodes = (
(1427,567,o),
(1336,653,o),
(1204,653,cs),
(1065,653,o),
(972,560,o),
(972,414,c),
(1079,414,l),
(1079,560,o),
(981,653,o),
(842,653,cs),
(712,653,o),
(623,572,o),
(623,451,cs),
(623,358,o),
(662,294,o),
(662,247,cs),
(662,181,o),
(609,153,o),
(492,119,c),
(486,71,l),
(535,186,o),
(558,296,o),
(558,383,cs),
(558,554,o),
(449,653,o),
(292,653,cs),
(143,653,o),
(42,567,o),
(42,437,cs),
(42,381,o),
(63,320,o),
(121,269,c),
(254,368,l),
(233,387,o),
(220,413,o),
(220,441,cs),
(220,485,o),
(248,511,o),
(289,511,cs),
(347,511,o),
(376,448,o),
(376,374,cs),
(376,269,o),
(337,123,o),
(283,21,c),
(311,-61,l),
(639,-6,o),
(846,78,o),
(846,239,cs),
(846,318,o),
(805,380,o),
(805,445,cs),
(805,480,o),
(831,511,o),
(874,511,cs),
(923,511,o),
(955,476,o),
(949,391,c),
(1102,391,l),
(1096,478,o),
(1132,511,o),
(1180,511,cs),
(1221,511,o),
(1249,484,o),
(1249,443,cs),
(1249,412,o),
(1238,390,o),
(1214,367,c),
(1350,272,l),
(1407,329,o),
(1427,379,o),
(1427,441,cs)
);
}
);
userData = {
RMXScaler = {
verticalShift = -82;
};
};
width = 1469;
},
{
anchors = (
{
name = Anchor13;
pos = (970,556);
},
{
name = Anchor14;
pos = (1129,403);
},
{
name = Anchor16;
pos = (1082,275);
},
{
name = Anchor17;
pos = (1082,275);
}
);
layerId = "AB666A95-3AF9-4DE8-B258-097FFCFE8A59";
shapes = (
{
closed = 1;
nodes = (
(1129,494,o),
(1069,556,o),
(970,556,cs),
(877,556,o),
(810,490,o),
(810,374,c),
(825,374,l),
(826,490,o),
(758,556,o),
(663,556,cs),
(570,556,o),
(507,495,o),
(507,406,cs),
(507,319,o),
(549,259,o),
(549,187,cs),
(549,92,o),
(454,17,o),
(302,-9,c),
(309,-14,l),
(359,108,o),
(387,241,o),
(387,334,cs),
(387,481,o),
(321,556,o),
(222,556,cs),
(126,556,o),
(60,498,o),
(60,408,cs),
(60,360,o),
(81,313,o),
(113,280,c),
(130,295,l),
(103,324,o),
(84,365,o),
(84,408,cs),
(84,487,o),
(138,534,o),
(222,534,cs),
(309,534,o),
(363,470,o),
(363,334,cs),
(363,237,o),
(334,95,o),
(283,-18,c),
(288,-33,l),
(475,-6,o),
(573,80,o),
(573,187,cs),
(573,264,o),
(531,322,o),
(531,405,cs),
(531,484,o),
(582,534,o),
(665,534,cs),
(746,534,o),
(806,478,o),
(806,372,c),
(829,372,l),
(829,481,o),
(890,534,o),
(970,534,cs),
(1054,534,o),
(1105,482,o),
(1105,403,cs),
(1105,359,o),
(1091,319,o),
(1065,290,c),
(1082,275,l),
(1114,310,o),
(1129,353,o),
(1129,403,cs)
);
}
);
userData = {
RMXScaler = {
verticalShift = -151;
};
};
width = 1189;
}
);
metricLeft = dha_cham;
metricRight = dha_cham;
note = uniAA22;
production = uniAA22;
script = cham;
subCategory = Spacing;
unicode = 43554;
userData = {
RMXScaler = {
source = "ya-cham";
};
};
},
{
category = Letter;
glyphname = ra_cham;
kernLeft = ha;
kernRight = dha;
layers = (
{
anchors = (
{
name = Anchor13;
pos = (612,594);
},
{
name = Anchor14;
pos = (811,418);
},
{
name = Anchor16;
pos = (751,274);
},
{
name = Anchor17;
pos = (841,274);
}
);
layerId = "9FF96064-8718-4A86-A5C8-73C592101F67";
shapes = (
{
closed = 1;
nodes = (
(811,522,o),
(732,594,o),
(612,594,cs),
(494,594,o),
(415,526,o),
(415,424,cs),
(415,337,o),
(455,278,o),
(455,196,cs),
(455,100,o),
(395,48,o),
(292,48,cs),
(195,48,o),
(132,96,o),
(132,166,cs),
(132,216,o),
(164,251,o),
(217,251,cs),
(270,251,o),
(303,215,o),
(303,152,cs),
(303,116,o),
(290,71,o),
(276,43,c),
(343,43,l),
(356,68,o),
(374,114,o),
(374,163,cs),
(374,258,o),
(308,317,o),
(214,317,cs),
(114,317,o),
(53,251,o),
(53,165,cs),
(53,57,o),
(151,-17,o),
(304,-17,cs),
(453,-17,o),
(540,65,o),
(540,191,cs),
(540,285,o),
(500,343,o),
(500,418,cs),
(500,482,o),
(542,525,o),
(613,525,cs),
(685,525,o),
(726,483,o),
(726,417,cs),
(726,379,o),
(711,344,o),
(689,320,c),
(751,272,l),
(792,309,o),
(811,363,o),
(811,415,cs)
);
}
);
userData = {
RMXScaler = {
verticalShift = -124;
};
};
width = 864;
},
{
anchors = (
{
name = Anchor13;
pos = (687,653);
},
{
name = Anchor14;
pos = (945,441);
},
{
name = Anchor16;
pos = (867,272);
},
{
name = Anchor17;
pos = (1047,272);
}
);
layerId = "0A718E2F-231D-484E-9433-16A5230D2CE8";
shapes = (
{
closed = 1;
nodes = (
(945,564,o),
(840,653,o),
(687,653,cs),
(541,653,o),
(436,573,o),
(436,454,cs),
(436,365,o),
(480,302,o),
(480,224,cs),
(480,132,o),
(419,85,o),
(325,85,cs),
(235,85,o),
(181,130,o),
(181,187,cs),
(181,224,o),
(204,249,o),
(241,249,cs),
(280,249,o),
(303,220,o),
(303,171,cs),
(303,142,o),
(294,106,o),
(280,80,c),
(393,80,l),
(407,102,o),
(426,145,o),
(426,196,cs),
(426,298,o),
(347,361,o),
(236,361,cs),
(112,361,o),
(42,284,o),
(42,184,cs),
(42,58,o),
(159,-29,o),
(357,-29,cs),
(545,-29,o),
(658,70,o),
(658,213,cs),
(658,312,o),
(618,373,o),
(618,438,cs),
(618,479,o),
(645,511,o),
(692,511,cs),
(738,511,o),
(767,481,o),
(767,440,cs),
(767,410,o),
(750,380,o),
(734,366,c),
(867,266,l),
(923,307,o),
(945,377,o),
(945,434,cs)
);
}
);
userData = {
RMXScaler = {
verticalShift = -82;
};
};
width = 987;
},
{
anchors = (
{
name = Anchor13;
pos = (560,556);
},
{
name = Anchor14;
pos = (721,403);
},
{
name = Anchor16;
pos = (674,276);
},
{
name = Anchor17;
pos = (694,276);
}
);
layerId = "AB666A95-3AF9-4DE8-B258-097FFCFE8A59";
shapes = (
{
closed = 1;
nodes = (
(721,495,o),
(660,556,o),
(560,556,cs),
(461,556,o),
(398,495,o),
(398,406,cs),
(398,319,o),
(437,263,o),
(437,178,cs),
(437,72,o),
(376,12,o),
(262,12,cs),
(157,12,o),
(84,64,o),
(84,147,cs),
(84,209,o),
(123,255,o),
(193,255,cs),
(257,255,o),
(300,210,o),
(300,134,cs),
(300,91,o),
(283,39,o),
(269,8,c),
(293,8,l),
(306,37,o),
(324,85,o),
(324,134,cs),
(324,221,o),
(269,276,o),
(192,276,cs),
(111,276,o),
(60,220,o),
(60,147,cs),
(60,53,o),
(145,-10,o),
(261,-10,cs),
(388,-10,o),
(461,61,o),
(461,177,cs),
(461,268,o),
(422,324,o),
(422,405,cs),
(422,484,o),
(473,534,o),
(559,534,cs),
(648,534,o),
(697,484,o),
(697,403,cs),
(697,360,o),
(683,320,o),
(657,291,c),
(674,276,l),
(706,311,o),
(721,354,o),
(721,403,cs)
);
}
);
userData = {
RMXScaler = {
verticalShift = -151;
};
};
width = 781;
}
);
metricLeft = dha_cham;
metricRight = dha_cham;
note = uniAA23;
production = uniAA23;
script = cham;
subCategory = Spacing;
unicode = 43555;
userData = {
RMXScaler = {
source = "ra-cham";
};
};
},
{
category = Letter;
glyphname = la_cham;
kernLeft = gFinal;
kernRight = dha;
layers = (
{
anchors = (
{
name = Anchor13;
pos = (667,594);
},
{
name = Anchor14;
pos = (828,418);
},
{
name = Anchor16;
pos = (769,274);
},
{
name = Anchor17;
pos = (779,274);
}
);
layerId = "9FF96064-8718-4A86-A5C8-73C592101F67";
shapes = (
{
closed = 1;
nodes = (
(828,529,o),
(763,594,o),
(667,594,cs),
(553,594,o),
(530,513,o),
(470,513,cs),
(410,513,o),
(385,594,o),
(271,594,cs),
(157,594,o),
(80,485,o),
(80,308,cs),
(80,105,o),
(190,-19,o),
(339,-19,cs),
(412,-19,o),
(457,23,o),
(457,82,cs),
(457,143,o),
(411,182,o),
(347,182,cs),
(275,182,o),
(226,129,o),
(213,48,c),
(265,48,l),
(273,93,o),
(300,131,o),
(346,131,cs),
(376,131,o),
(400,116,o),
(400,83,cs),
(400,54,o),
(379,35,o),
(344,35,cs),
(245,35,o),
(166,130,o),
(166,309,cs),
(166,442,o),
(218,518,o),
(287,518,cs),
(369,518,o),
(381,437,o),
(470,437,cs),
(559,437,o),
(571,518,o),
(653,518,cs),
(703,518,o),
(744,481,o),
(744,416,cs),
(744,379,o),
(731,347,o),
(706,320,c),
(769,274,l),
(811,318,o),
(828,367,o),
(828,421,cs)
);
}
);
userData = {
RMXScaler = {
verticalShift = -124;
};
};
width = 881;
},
{
anchors = (
{
name = Anchor13;
pos = (708,653);
},
{
name = Anchor14;
pos = (905,441);
},
{
name = Anchor16;
pos = (828,272);
},
{
name = Anchor17;
pos = (948,272);
}
);
layerId = "0A718E2F-231D-484E-9433-16A5230D2CE8";
shapes = (
{
closed = 1;
nodes = (
(905,578,o),
(821,653,o),
(708,653,cs),
(591,653,o),
(565,573,o),
(503,573,cs),
(441,573,o),
(411,653,o),
(294,653,cs),
(162,653,o),
(65,530,o),
(65,331,cs),
(65,107,o),
(197,-29,o),
(377,-29,cs),
(477,-29,o),
(534,26,o),
(534,104,cs),
(534,184,o),
(475,234,o),
(392,234,cs),
(302,234,o),
(238,164,o),
(227,64,c),
(309,64,l),
(314,104,o),
(340,151,o),
(390,151,cs),
(414,151,o),
(440,140,o),
(440,104,cs),
(440,78,o),
(423,61,o),
(395,61,cs),
(312,61,o),
(247,147,o),
(247,333,cs),
(247,439,o),
(287,501,o),
(341,501,cs),
(408,501,o),
(430,421,o),
(503,421,cs),
(576,421,o),
(598,501,o),
(665,501,cs),
(701,501,o),
(727,478,o),
(727,438,cs),
(727,410,o),
(716,389,o),
(692,367,c),
(828,272,l),
(885,329,o),
(905,389,o),
(905,451,cs)
);
}
);
userData = {
RMXScaler = {
verticalShift = -82;
};
};
width = 947;
},
{
anchors = (
{
name = Anchor13;
pos = (630,556);
},
{
name = Anchor14;
pos = (779,403);
},
{
name = Anchor16;
pos = (732,275);
},
{
name = Anchor17;
pos = (732,275);
}
);
layerId = "AB666A95-3AF9-4DE8-B258-097FFCFE8A59";
shapes = (
{
closed = 1;
nodes = (
(779,497,o),
(721,556,o),
(630,556,cs),
(530,556,o),
(508,475,o),
(449,475,cs),
(390,475,o),
(368,556,o),
(268,556,cs),
(158,556,o),
(90,457,o),
(90,294,cs),
(90,105,o),
(182,-10,o),
(304,-10,cs),
(354,-10,o),
(386,19,o),
(386,62,cs),
(386,105,o),
(354,133,o),
(304,133,cs),
(252,133,o),
(214,95,o),
(201,33,c),
(224,33,l),
(234,82,o),
(264,112,o),
(304,112,cs),
(340,112,o),
(363,94,o),
(363,63,cs),
(363,32,o),
(339,12,o),
(303,12,cs),
(197,12,o),
(114,117,o),
(114,294,cs),
(114,444,o),
(173,534,o),
(270,534,cs),
(357,534,o),
(379,454,o),
(449,454,cs),
(519,454,o),
(541,534,o),
(628,534,cs),
(706,534,o),
(755,483,o),
(755,402,cs),
(755,359,o),
(741,319,o),
(715,290,c),
(732,275,l),
(764,310,o),
(779,353,o),
(779,402,cs)
);
}
);
userData = {
RMXScaler = {
verticalShift = -151;
};
};
width = 839;
}
);
metricLeft = "=gFinal_cham";
metricRight = dha_cham;
note = uniAA24;
production = uniAA24;
script = cham;
subCategory = Spacing;
unicode = 43556;
userData = {
RMXScaler = {
source = "la-cham";
};
};
},
{
category = Letter;
glyphname = va_cham;
kernRight = dha;
layers = (
{
anchors = (
{
name = Anchor13;
pos = (803,594);
},
{
name = Anchor14;
pos = (994,418);
},
{
name = Anchor16;
pos = (981,274);
},
{
name = Anchor17;
pos = (1131,274);
}
);
layerId = "9FF96064-8718-4A86-A5C8-73C592101F67";
shapes = (
{
closed = 1;
nodes = (
(781,18,o),
(723,135,o),
(609,241,c),
(558,201,l),
(675,100,o),
(709,-12,o),
(709,-111,cs),
(709,-196,o),
(686,-235,o),
(650,-235,cs),
(617,-235,o),
(597,-200,o),
(597,-146,cs),
(597,-72,o),
(648,39,o),
(789,190,c),
(742,237,l),
(594,80,o),
(526,-41,o),
(526,-148,cs),
(526,-240,o),
(574,-299,o),
(651,-299,cs),
(732,-299,o),
(781,-232,o),
(781,-113,cs)
);
},
{
ref = dha_withcrossstroke;
}
);
userData = {
RMXScaler = {
verticalShift = -124;
};
};
width = 1047;
},
{
anchors = (
{
name = Anchor13;
pos = (897,653);
},
{
name = Anchor14;
pos = (1150,441);
},
{
name = Anchor16;
pos = (1135,272);
},
{
name = Anchor17;
pos = (1325,272);
}
);
layerId = "0A718E2F-231D-484E-9433-16A5230D2CE8";
shapes = (
{
closed = 1;
nodes = (
(900,26,o),
(833,150,o),
(699,270,c),
(626,197,l),
(764,84,o),
(784,-35,o),
(784,-123,cs),
(784,-211,o),
(764,-243,o),
(732,-243,cs),
(702,-243,o),
(685,-210,o),
(685,-163,cs),
(685,-110,o),
(728,14,o),
(907,190,c),
(835,264,l),
(643,83,o),
(571,-57,o),
(571,-166,cs),
(571,-275,o),
(635,-346,o),
(735,-346,cs),
(835,-346,o),
(900,-268,o),
(900,-126,cs)
);
},
{
ref = dha_withcrossstroke;
}
);
userData = {
RMXScaler = {
verticalShift = -82;
};
};
width = 1192;
},
{
anchors = (
{
name = Anchor13;
pos = (742,556);
},
{
name = Anchor14;
pos = (895,403);
},
{
name = Anchor16;
pos = (842,276);
},
{
name = Anchor17;
pos = (962,276);
}
);
layerId = "AB666A95-3AF9-4DE8-B258-097FFCFE8A59";
shapes = (
{
closed = 1;
nodes = (
(666,6,o),
(621,111,o),
(538,200,c),
(516,191,l),
(598,107,o),
(642,7,o),
(642,-98,cs),
(642,-179,o),
(616,-226,o),
(575,-226,cs),
(540,-226,o),
(516,-188,o),
(516,-128,cs),
(516,-31,o),
(574,65,o),
(675,189,c),
(658,204,l),
(554,77,o),
(492,-25,o),
(492,-128,cs),
(492,-201,o),
(525,-248,o),
(575,-248,cs),
(633,-248,o),
(666,-192,o),
(666,-98,cs)
);
},
{
ref = dha_withcrossstroke;
}
);
userData = {
RMXScaler = {
verticalShift = -151;
};
};
width = 955;
}
);
metricLeft = dha_cham;
metricRight = dha_cham;
note = uniAA25;
production = uniAA25;
script = cham;
subCategory = Spacing;
unicode = 43557;
userData = {
RMXScaler = {
source = "va-cham";
};
};
},
{
category = Letter;
glyphname = ssa_cham;
kernLeft = dha;
kernRight = dha;
layers = (
{
anchors = (
{
name = Anchor13;
pos = (830,594);
},
{
name = Anchor14;
pos = (1021,418);
},
{
name = Anchor16;
pos = (958,274);
},
{
name = Anchor17;
pos = (958,274);
}
);
layerId = "9FF96064-8718-4A86-A5C8-73C592101F67";
shapes = (
{
closed = 1;
nodes = (
(1021,525,o),
(945,594,o),
(830,594,cs),
(712,594,o),
(638,531,o),
(638,439,cs),
(638,403,o),
(651,368,o),
(651,346,cs),
(651,236,o),
(495,241,o),
(495,122,cs),
(495,89,o),
(502,67,o),
(530,39,c),
(530,52,l),
(524,52,o),
(517,52,o),
(511,52,cs),
(443,52,o),
(400,101,o),
(400,170,cs),
(400,251,o),
(466,319,o),
(466,414,cs),
(466,523,o),
(382,594,o),
(260,594,cs),
(135,594,o),
(53,520,o),
(53,405,cs),
(53,301,o),
(122,237,o),
(202,237,cs),
(253,237,o),
(284,267,o),
(284,313,cs),
(284,352,o),
(256,381,o),
(211,381,cs),
(136,381,o),
(91,307,o),
(84,202,c),
(131,198,l),
(137,282,o),
(162,340,o),
(208,340,cs),
(226,340,o),
(242,331,o),
(242,310,cs),
(242,292,o),
(232,278,o),
(207,278,cs),
(161,278,o),
(126,324,o),
(126,398,cs),
(126,480,o),
(178,525,o),
(257,525,cs),
(333,525,o),
(380,480,o),
(380,411,cs),
(380,329,o),
(314,262,o),
(314,170,cs),
(314,61,o),
(397,-17,o),
(526,-17,cs),
(550,-17,o),
(574,-17,o),
(591,-16,c),
(613,37,l),
(589,65,o),
(578,82,o),
(578,111,cs),
(578,204,o),
(737,199,o),
(737,335,cs),
(737,367,o),
(724,396,o),
(724,428,cs),
(724,487,o),
(762,525,o),
(829,525,cs),
(895,525,o),
(937,486,o),
(937,421,cs),
(937,384,o),
(920,350,o),
(895,324,c),
(958,276,l),
(1001,316,o),
(1021,368,o),
(1021,421,cs)
);
}
);
userData = {
RMXScaler = {
verticalShift = -124;
};
};
width = 1074;
},
{
anchors = (
{
name = Anchor13;
pos = (937,653);
},
{
name = Anchor14;
pos = (1189,441);
},
{
name = Anchor16;
pos = (1108,272);
},
{
name = Anchor17;
pos = (1108,272);
}
);
layerId = "0A718E2F-231D-484E-9433-16A5230D2CE8";
shapes = (
{
closed = 1;
nodes = (
(1189,567,o),
(1090,653,o),
(937,653,cs),
(785,653,o),
(690,579,o),
(690,475,cs),
(690,437,o),
(702,401,o),
(702,376,cs),
(702,276,o),
(559,280,o),
(559,144,cs),
(559,112,o),
(566,91,o),
(598,68,c),
(581,106,l),
(577,106,o),
(572,106,o),
(570,106,cs),
(542,106,o),
(520,150,o),
(520,193,cs),
(520,267,o),
(590,336,o),
(590,436,cs),
(590,568,o),
(475,653,o),
(314,653,cs),
(144,653,o),
(42,555,o),
(42,415,cs),
(42,279,o),
(132,214,o),
(234,214,cs),
(307,214,o),
(352,254,o),
(352,314,cs),
(352,371,o),
(311,408,o),
(248,408,cs),
(146,408,o),
(88,303,o),
(78,172,c),
(157,168,l),
(168,257,o),
(191,341,o),
(245,341,cs),
(259,341,o),
(275,334,o),
(275,312,cs),
(275,302,o),
(271,286,o),
(248,286,cs),
(215,286,o),
(193,321,o),
(193,398,cs),
(193,471,o),
(235,511,o),
(307,511,cs),
(368,511,o),
(408,473,o),
(408,421,cs),
(408,350,o),
(338,281,o),
(338,189,cs),
(338,69,o),
(443,-29,o),
(607,-29,cs),
(639,-29,o),
(670,-28,o),
(689,-25,c),
(728,66,l),
(706,91,o),
(697,105,o),
(697,126,cs),
(697,224,o),
(876,210,o),
(876,356,cs),
(876,394,o),
(864,423,o),
(864,446,cs),
(864,486,o),
(892,511,o),
(936,511,cs),
(981,511,o),
(1011,485,o),
(1011,443,cs),
(1011,413,o),
(996,389,o),
(974,369,c),
(1108,269,l),
(1168,320,o),
(1189,380,o),
(1189,442,cs)
);
}
);
userData = {
RMXScaler = {
verticalShift = -82;
};
};
width = 1231;
},
{
anchors = (
{
name = Anchor13;
pos = (761,556);
},
{
name = Anchor14;
pos = (914,403);
},
{
name = Anchor16;
pos = (861,276);
},
{
name = Anchor17;
pos = (861,276);
}
);
layerId = "AB666A95-3AF9-4DE8-B258-097FFCFE8A59";
shapes = (
{
closed = 1;
nodes = (
(914,498,o),
(852,556,o),
(761,556,cs),
(666,556,o),
(607,500,o),
(607,416,cs),
(607,377,o),
(622,339,o),
(622,313,cs),
(622,196,o),
(448,210,o),
(448,94,cs),
(448,64,o),
(460,38,o),
(483,4,c),
(486,12,l),
(481,12,o),
(478,12,o),
(473,12,c),
(379,12,o),
(322,66,o),
(322,156,cs),
(322,240,o),
(386,306,o),
(386,400,cs),
(386,495,o),
(323,556,o),
(225,556,cs),
(130,556,o),
(60,497,o),
(60,399,cs),
(60,315,o),
(115,251,o),
(181,251,cs),
(218,251,o),
(242,275,o),
(242,308,cs),
(242,339,o),
(214,360,o),
(183,360,cs),
(132,360,o),
(95,309,o),
(92,220,c),
(114,217,l),
(117,296,o),
(142,339,o),
(183,339,cs),
(203,339,o),
(220,329,o),
(220,308,cs),
(220,285,o),
(207,272,o),
(181,272,cs),
(127,272,o),
(84,326,o),
(84,399,cs),
(84,486,o),
(142,534,o),
(225,534,cs),
(311,534,o),
(362,484,o),
(362,400,cs),
(362,313,o),
(298,246,o),
(298,157,cs),
(298,55,o),
(367,-10,o),
(473,-10,c),
(484,-10,o),
(496,-10,o),
(507,-10,c),
(512,3,l),
(485,35,o),
(472,65,o),
(472,94,cs),
(472,200,o),
(645,179,o),
(645,313,cs),
(645,345,o),
(631,377,o),
(631,417,cs),
(631,489,o),
(678,534,o),
(761,534,cs),
(840,534,o),
(890,487,o),
(890,408,cs),
(890,365,o),
(872,324,o),
(845,295,c),
(861,280,l),
(893,313,o),
(914,360,o),
(914,408,cs)
);
}
);
userData = {
RMXScaler = {
verticalShift = -151;
};
};
width = 974;
}
);
metricLeft = dha_cham;
metricRight = dha_cham;
note = uniAA26;
production = uniAA26;
script = cham;
subCategory = Spacing;
unicode = 43558;
userData = {
RMXScaler = {
source = "ssa-cham";
};
};
},
{
category = Letter;
glyphname = sa_cham;
kernLeft = ha;
kernRight = dha;
layers = (
{
anchors = (
{
name = Anchor13;
pos = (971,594);
},
{
name = Anchor14;
pos = (1132,418);
},
{
name = Anchor16;
pos = (1073,273);
},
{
name = Anchor17;
pos = (1073,273);
}
);
layerId = "9FF96064-8718-4A86-A5C8-73C592101F67";
shapes = (
{
closed = 1;
nodes = (
(1132,529,o),
(1067,594,o),
(971,594,cs),
(857,594,o),
(834,513,o),
(774,513,cs),
(714,513,o),
(689,594,o),
(577,594,cs),
(482,594,o),
(414,532,o),
(414,432,cs),
(414,342,o),
(455,277,o),
(455,196,cs),
(455,100,o),
(395,48,o),
(292,48,cs),
(195,48,o),
(132,96,o),
(132,166,cs),
(132,216,o),
(164,251,o),
(217,251,cs),
(270,251,o),
(303,215,o),
(303,152,cs),
(303,116,o),
(290,71,o),
(276,43,c),
(343,43,l),
(356,68,o),
(374,114,o),
(374,163,cs),
(374,258,o),
(308,317,o),
(214,317,cs),
(114,317,o),
(53,251,o),
(53,165,cs),
(53,57,o),
(151,-17,o),
(304,-17,cs),
(453,-17,o),
(540,65,o),
(540,191,cs),
(540,285,o),
(499,347,o),
(499,420,cs),
(499,483,o),
(540,518,o),
(591,518,cs),
(673,518,o),
(685,437,o),
(774,437,cs),
(863,437,o),
(875,518,o),
(957,518,cs),
(1007,518,o),
(1048,481,o),
(1048,416,cs),
(1048,379,o),
(1035,347,o),
(1010,320,c),
(1073,274,l),
(1115,318,o),
(1132,367,o),
(1132,421,cs)
);
}
);
userData = {
RMXScaler = {
verticalShift = -124;
};
};
width = 1185;
},
{
anchors = (
{
name = Anchor13;
pos = (910,556);
},
{
name = Anchor14;
pos = (1059,403);
},
{
name = Anchor16;
pos = (1012,275);
},
{
name = Anchor17;
pos = (1012,275);
}
);
layerId = "AB666A95-3AF9-4DE8-B258-097FFCFE8A59";
shapes = (
{
closed = 1;
nodes = (
(1059,497,o),
(1001,556,o),
(910,556,cs),
(810,556,o),
(788,475,o),
(729,475,cs),
(670,475,o),
(648,556,o),
(548,556,cs),
(456,556,o),
(398,499,o),
(398,409,cs),
(398,320,o),
(437,263,o),
(437,178,cs),
(437,72,o),
(376,12,o),
(262,12,cs),
(157,12,o),
(84,64,o),
(84,147,cs),
(84,209,o),
(123,255,o),
(193,255,cs),
(257,255,o),
(300,210,o),
(300,134,cs),
(300,91,o),
(283,39,o),
(269,8,c),
(293,8,l),
(306,37,o),
(324,85,o),
(324,134,cs),
(324,221,o),
(269,276,o),
(192,276,cs),
(111,276,o),
(60,220,o),
(60,147,cs),
(60,53,o),
(145,-10,o),
(261,-10,cs),
(388,-10,o),
(461,61,o),
(461,177,cs),
(461,268,o),
(422,325,o),
(422,408,cs),
(422,486,o),
(471,534,o),
(550,534,cs),
(637,534,o),
(659,454,o),
(729,454,cs),
(799,454,o),
(821,534,o),
(908,534,cs),
(986,534,o),
(1035,483,o),
(1035,402,cs),
(1035,359,o),
(1021,319,o),
(995,290,c),
(1012,275,l),
(1044,310,o),
(1059,353,o),
(1059,402,cs)
);
}
);
userData = {
RMXScaler = {
verticalShift = -151;
};
};
width = 1119;
},
{
anchors = (
{
name = Anchor13;
pos = (1047,653);
},
{
name = Anchor14;
pos = (1244,441);
},
{
name = Anchor16;
pos = (1167,272);
},
{
name = Anchor17;
pos = (1167,272);
}
);
layerId = "0A718E2F-231D-484E-9433-16A5230D2CE8";
shapes = (
{
closed = 1;
nodes = (
(1244,578,o),
(1160,653,o),
(1047,653,cs),
(930,653,o),
(904,573,o),
(842,573,cs),
(780,573,o),
(750,653,o),
(633,653,cs),
(520,653,o),
(436,584,o),
(436,467,cs),
(436,375,o),
(480,300,o),
(480,224,cs),
(480,132,o),
(419,85,o),
(325,85,cs),
(235,85,o),
(181,130,o),
(181,187,cs),
(181,224,o),
(204,249,o),
(241,249,cs),
(280,249,o),
(303,220,o),
(303,171,cs),
(303,142,o),
(294,106,o),
(280,80,c),
(393,80,l),
(407,102,o),
(426,145,o),
(426,196,cs),
(426,298,o),
(347,361,o),
(236,361,cs),
(112,361,o),
(42,284,o),
(42,184,cs),
(42,58,o),
(159,-29,o),
(357,-29,cs),
(545,-29,o),
(658,70,o),
(658,213,cs),
(658,312,o),
(618,381,o),
(618,439,cs),
(618,479,o),
(644,501,o),
(680,501,cs),
(747,501,o),
(769,421,o),
(842,421,cs),
(915,421,o),
(937,501,o),
(1004,501,cs),
(1040,501,o),
(1066,478,o),
(1066,438,cs),
(1066,410,o),
(1055,389,o),
(1031,367,c),
(1167,272,l),
(1224,329,o),
(1244,389,o),
(1244,451,cs)
);
}
);
userData = {
RMXScaler = {
verticalShift = -82;
};
};
width = 1286;
}
);
metricLeft = dha_cham;
metricRight = dha_cham;
note = uniAA27;
production = uniAA27;
script = cham;
subCategory = Spacing;
unicode = 43559;
userData = {
RMXScaler = {
source = "sa-cham";
};
};
},
